<?xml version="1.0" encoding="UTF-8" standalone="no"?>
<!-- Generator: Adobe Illustrator 16.0.3, SVG Export Plug-In . SVG Version: 6.00 Build 0)  -->

<svg
   xmlns:dc="http://purl.org/dc/elements/1.1/"
   xmlns:cc="http://creativecommons.org/ns#"
   xmlns:rdf="http://www.w3.org/1999/02/22-rdf-syntax-ns#"
   xmlns:svg="http://www.w3.org/2000/svg"
   xmlns="http://www.w3.org/2000/svg"
   xmlns:sodipodi="http://sodipodi.sourceforge.net/DTD/sodipodi-0.dtd"
   xmlns:inkscape="http://www.inkscape.org/namespaces/inkscape"
   version="1.1"
   id="Layer_1"
   x="0px"
   y="0px"
   width="334.488px"
   height="186.949px"
   viewBox="-43.492 0 334.488 186.949"
   enable-background="new -43.492 0 334.488 186.949"
   xml:space="preserve"
   sodipodi:docname="Inpustream.svg"
   inkscape:version="0.92.3 (unknown)"><metadata
   id="metadata305"><rdf:RDF><cc:Work
       rdf:about=""><dc:format>image/svg+xml</dc:format><dc:type
         rdf:resource="http://purl.org/dc/dcmitype/StillImage" /><dc:title></dc:title></cc:Work></rdf:RDF></metadata><defs
   id="defs303" /><sodipodi:namedview
   pagecolor="#ffffff"
   bordercolor="#666666"
   borderopacity="1"
   objecttolerance="10"
   gridtolerance="10"
   guidetolerance="10"
   inkscape:pageopacity="0"
   inkscape:pageshadow="2"
   inkscape:window-width="1867"
   inkscape:window-height="1056"
   id="namedview301"
   showgrid="false"
   inkscape:zoom="2.12"
   inkscape:cx="167.244"
   inkscape:cy="93.474503"
   inkscape:window-x="53"
   inkscape:window-y="24"
   inkscape:window-maximized="1"
   inkscape:current-layer="Layer_1" />
<polygon
   fill="none"
   stroke="#000000"
   stroke-miterlimit="10"
   points="132.256,45.45 123.752,30.722 115.248,45.45 "
   id="polygon2" />
<polygon
   fill="none"
   stroke="#000000"
   stroke-miterlimit="10"
   points="154.935,121.752 146.431,107.023 137.925,121.752 "
   id="polygon4" />
<polyline
   fill="none"
   stroke="#000000"
   stroke-miterlimit="10"
   points="109.579,104.744 123.752,104.744 123.752,45.45 "
   id="polyline6" />
<polyline
   fill="none"
   stroke="#000000"
   stroke-miterlimit="10"
   points="146.431,121.752 146.431,167.107 160.603,167.107 "
   id="polyline8" />
<g
   id="g32"
   style="fill:#0000ff">
	<path
   d="M 94.448,8.787 V 16.87 H 93.404 V 8.787 Z"
   id="path10"
   inkscape:connector-curvature="0"
   style="fill:#0000ff" />
	<path
   d="m 96.357,12.636 c 0,-0.6 -0.013,-1.091 -0.049,-1.571 h 0.936 l 0.061,0.959 h 0.023 c 0.288,-0.552 0.96,-1.091 1.919,-1.091 0.804,0 2.051,0.479 2.051,2.47 v 3.466 h -1.055 v -3.346 c 0,-0.936 -0.348,-1.715 -1.344,-1.715 -0.695,0 -1.235,0.492 -1.415,1.079 -0.048,0.132 -0.072,0.312 -0.072,0.492 v 3.49 h -1.055 z"
   id="path12"
   inkscape:connector-curvature="0"
   style="fill:#0000ff" />
	<path
   d="m 103.016,12.961 c 0,-0.744 -0.024,-1.343 -0.049,-1.895 h 0.948 l 0.048,0.995 h 0.023 c 0.432,-0.708 1.115,-1.127 2.063,-1.127 1.403,0 2.458,1.187 2.458,2.95 0,2.087 -1.271,3.118 -2.639,3.118 -0.768,0 -1.438,-0.336 -1.786,-0.912 h -0.024 v 3.154 h -1.043 v -6.283 z m 1.043,1.547 c 0,0.156 0.024,0.3 0.048,0.432 0.192,0.732 0.828,1.235 1.583,1.235 1.115,0 1.764,-0.911 1.764,-2.243 0,-1.163 -0.612,-2.159 -1.728,-2.159 -0.72,0 -1.392,0.516 -1.595,1.307 -0.036,0.132 -0.072,0.288 -0.072,0.432 z"
   id="path14"
   inkscape:connector-curvature="0"
   style="fill:#0000ff" />
	<path
   d="m 114.7,15.287 c 0,0.6 0.013,1.127 0.049,1.583 h -0.936 l -0.061,-0.947 h -0.023 c -0.276,0.467 -0.888,1.079 -1.919,1.079 -0.912,0 -2.003,-0.503 -2.003,-2.542 v -3.394 h 1.055 v 3.214 c 0,1.103 0.336,1.847 1.296,1.847 0.707,0 1.199,-0.492 1.391,-0.959 0.061,-0.156 0.097,-0.348 0.097,-0.54 v -3.562 h 1.055 v 4.221 z"
   id="path16"
   inkscape:connector-curvature="0"
   style="fill:#0000ff" />
	<path
   d="m 117.727,9.399 v 1.667 h 1.512 v 0.803 h -1.512 v 3.13 c 0,0.72 0.204,1.127 0.792,1.127 0.275,0 0.479,-0.036 0.611,-0.072 l 0.048,0.792 c -0.203,0.084 -0.527,0.144 -0.936,0.144 -0.491,0 -0.887,-0.156 -1.139,-0.444 -0.3,-0.312 -0.408,-0.828 -0.408,-1.511 v -3.167 h -0.899 v -0.803 h 0.899 v -1.39 z"
   id="path18"
   inkscape:connector-curvature="0"
   style="fill:#0000ff" />
	<path
   d="m 120.32,15.599 c 0.468,0.288 1.151,0.528 1.871,0.528 1.067,0 1.691,-0.563 1.691,-1.379 0,-0.755 -0.433,-1.187 -1.523,-1.607 -1.319,-0.468 -2.135,-1.151 -2.135,-2.291 0,-1.259 1.043,-2.195 2.614,-2.195 0.827,0 1.428,0.192 1.787,0.396 l -0.288,0.852 c -0.264,-0.144 -0.804,-0.384 -1.535,-0.384 -1.104,0 -1.522,0.66 -1.522,1.211 0,0.755 0.491,1.127 1.606,1.559 1.367,0.528 2.063,1.188 2.063,2.375 0,1.247 -0.924,2.327 -2.831,2.327 -0.779,0 -1.631,-0.228 -2.063,-0.516 z"
   id="path20"
   inkscape:connector-curvature="0"
   style="fill:#0000ff" />
	<path
   d="m 127.578,9.399 v 1.667 h 1.512 v 0.803 h -1.512 v 3.13 c 0,0.72 0.204,1.127 0.792,1.127 0.275,0 0.479,-0.036 0.611,-0.072 l 0.048,0.792 c -0.203,0.084 -0.527,0.144 -0.936,0.144 -0.491,0 -0.887,-0.156 -1.139,-0.444 -0.3,-0.312 -0.408,-0.828 -0.408,-1.511 v -3.167 h -0.899 v -0.803 h 0.899 v -1.39 z"
   id="path22"
   inkscape:connector-curvature="0"
   style="fill:#0000ff" />
	<path
   d="m 130.28,12.877 c 0,-0.684 -0.013,-1.271 -0.049,-1.811 h 0.924 l 0.036,1.139 h 0.048 c 0.264,-0.779 0.899,-1.271 1.607,-1.271 0.12,0 0.203,0.012 0.3,0.036 v 0.996 c -0.108,-0.024 -0.216,-0.036 -0.36,-0.036 -0.743,0 -1.271,0.564 -1.415,1.355 -0.023,0.144 -0.048,0.312 -0.048,0.492 v 3.094 h -1.043 z"
   id="path24"
   inkscape:connector-curvature="0"
   style="fill:#0000ff" />
	<path
   d="m 134.671,14.16 c 0.024,1.427 0.936,2.015 1.991,2.015 0.756,0 1.211,-0.132 1.607,-0.3 l 0.18,0.756 c -0.372,0.168 -1.008,0.36 -1.931,0.36 -1.787,0 -2.854,-1.175 -2.854,-2.927 0,-1.751 1.031,-3.13 2.723,-3.13 1.895,0 2.398,1.667 2.398,2.734 0,0.216 -0.024,0.384 -0.036,0.492 z m 3.095,-0.756 c 0.012,-0.671 -0.276,-1.715 -1.463,-1.715 -1.067,0 -1.535,0.983 -1.619,1.715 z"
   id="path26"
   inkscape:connector-curvature="0"
   style="fill:#0000ff" />
	<path
   d="m 143.31,16.87 -0.084,-0.731 h -0.036 c -0.324,0.456 -0.947,0.863 -1.775,0.863 -1.175,0 -1.774,-0.828 -1.774,-1.667 0,-1.403 1.247,-2.171 3.49,-2.159 v -0.12 c 0,-0.479 -0.132,-1.343 -1.319,-1.343 -0.54,0 -1.104,0.168 -1.512,0.432 l -0.239,-0.695 c 0.479,-0.312 1.175,-0.516 1.906,-0.516 1.775,0 2.207,1.211 2.207,2.375 v 2.171 c 0,0.503 0.024,0.995 0.096,1.391 h -0.96 z m -0.156,-2.962 c -1.151,-0.024 -2.458,0.18 -2.458,1.307 0,0.684 0.455,1.008 0.995,1.008 0.756,0 1.235,-0.48 1.403,-0.972 0.036,-0.108 0.06,-0.228 0.06,-0.336 z"
   id="path28"
   inkscape:connector-curvature="0"
   style="fill:#0000ff" />
	<path
   d="m 145.88,12.636 c 0,-0.6 -0.013,-1.091 -0.049,-1.571 h 0.924 l 0.048,0.936 h 0.036 c 0.324,-0.552 0.863,-1.067 1.823,-1.067 0.791,0 1.391,0.479 1.643,1.163 h 0.024 c 0.18,-0.324 0.407,-0.576 0.647,-0.755 0.348,-0.264 0.731,-0.408 1.283,-0.408 0.768,0 1.907,0.503 1.907,2.519 v 3.418 h -1.031 v -3.286 c 0,-1.115 -0.408,-1.787 -1.26,-1.787 -0.6,0 -1.067,0.444 -1.247,0.959 -0.048,0.144 -0.084,0.336 -0.084,0.528 v 3.586 h -1.031 v -3.478 c 0,-0.923 -0.408,-1.595 -1.212,-1.595 -0.659,0 -1.139,0.528 -1.307,1.056 -0.061,0.156 -0.084,0.335 -0.084,0.516 v 3.502 h -1.031 v -4.236 z"
   id="path30"
   inkscape:connector-curvature="0"
   style="fill:#0000ff" />
</g>
<g
   id="g64"
   style="fill:#0000ff">
	<path
   d="m 5.442,65.48 h 4.354 v 0.875 h -3.31 v 2.687 h 3.059 v 0.863 H 6.486 v 3.658 H 5.442 Z"
   id="path34"
   inkscape:connector-curvature="0"
   style="fill:#0000ff" />
	<path
   d="m 12.114,66.127 c 0.012,0.36 -0.252,0.648 -0.672,0.648 -0.371,0 -0.636,-0.288 -0.636,-0.648 0,-0.372 0.276,-0.66 0.66,-0.66 0.396,0.001 0.648,0.289 0.648,0.66 z m -1.175,7.436 v -5.805 h 1.055 v 5.805 z"
   id="path36"
   inkscape:connector-curvature="0"
   style="fill:#0000ff" />
	<path
   d="m 13.746,65.048 h 1.055 v 8.515 h -1.055 z"
   id="path38"
   inkscape:connector-curvature="0"
   style="fill:#0000ff" />
	<path
   d="m 17.165,70.853 c 0.024,1.427 0.936,2.015 1.991,2.015 0.756,0 1.211,-0.132 1.607,-0.3 l 0.18,0.756 c -0.372,0.168 -1.008,0.36 -1.931,0.36 -1.787,0 -2.854,-1.175 -2.854,-2.927 0,-1.751 1.031,-3.13 2.723,-3.13 1.895,0 2.398,1.667 2.398,2.734 0,0.216 -0.024,0.384 -0.036,0.492 z m 3.095,-0.756 c 0.012,-0.671 -0.276,-1.715 -1.463,-1.715 -1.067,0 -1.535,0.983 -1.619,1.715 z"
   id="path40"
   inkscape:connector-curvature="0"
   style="fill:#0000ff" />
	<path
   d="m 23.669,65.48 v 8.083 H 22.625 V 65.48 Z"
   id="path42"
   inkscape:connector-curvature="0"
   style="fill:#0000ff" />
	<path
   d="m 25.578,69.329 c 0,-0.6 -0.013,-1.091 -0.049,-1.571 h 0.936 l 0.061,0.959 h 0.023 c 0.288,-0.552 0.96,-1.091 1.919,-1.091 0.804,0 2.051,0.479 2.051,2.47 v 3.466 h -1.055 v -3.346 c 0,-0.936 -0.348,-1.715 -1.344,-1.715 -0.695,0 -1.235,0.492 -1.415,1.079 -0.048,0.132 -0.072,0.312 -0.072,0.492 v 3.49 h -1.055 z"
   id="path44"
   inkscape:connector-curvature="0"
   style="fill:#0000ff" />
	<path
   d="m 32.239,69.654 c 0,-0.744 -0.024,-1.343 -0.049,-1.895 h 0.948 l 0.048,0.995 h 0.023 c 0.432,-0.708 1.115,-1.127 2.063,-1.127 1.403,0 2.458,1.187 2.458,2.95 0,2.087 -1.271,3.118 -2.639,3.118 -0.768,0 -1.438,-0.336 -1.786,-0.912 h -0.024 v 3.154 h -1.043 v -6.283 z m 1.042,1.546 c 0,0.156 0.024,0.3 0.048,0.432 0.192,0.732 0.828,1.235 1.583,1.235 1.115,0 1.764,-0.911 1.764,-2.243 0,-1.163 -0.612,-2.159 -1.728,-2.159 -0.72,0 -1.392,0.516 -1.595,1.307 -0.036,0.132 -0.072,0.288 -0.072,0.432 z"
   id="path46"
   inkscape:connector-curvature="0"
   style="fill:#0000ff" />
	<path
   d="m 43.922,71.98 c 0,0.6 0.013,1.127 0.049,1.583 h -0.936 l -0.061,-0.947 h -0.023 c -0.276,0.467 -0.888,1.079 -1.919,1.079 -0.912,0 -2.003,-0.503 -2.003,-2.542 v -3.394 h 1.055 v 3.214 c 0,1.103 0.336,1.847 1.296,1.847 0.707,0 1.199,-0.492 1.391,-0.959 0.061,-0.156 0.097,-0.348 0.097,-0.54 v -3.562 h 1.055 v 4.221 z"
   id="path48"
   inkscape:connector-curvature="0"
   style="fill:#0000ff" />
	<path
   d="m 46.948,66.092 v 1.667 h 1.512 v 0.803 h -1.512 v 3.13 c 0,0.72 0.204,1.127 0.792,1.127 0.275,0 0.479,-0.036 0.611,-0.072 l 0.048,0.792 c -0.203,0.084 -0.527,0.144 -0.936,0.144 -0.491,0 -0.887,-0.156 -1.139,-0.444 -0.3,-0.312 -0.408,-0.828 -0.408,-1.511 v -3.167 h -0.899 v -0.803 h 0.899 v -1.391 z"
   id="path50"
   inkscape:connector-curvature="0"
   style="fill:#0000ff" />
	<path
   d="m 49.541,72.292 c 0.468,0.288 1.151,0.528 1.871,0.528 1.067,0 1.691,-0.563 1.691,-1.379 0,-0.755 -0.433,-1.187 -1.523,-1.607 -1.319,-0.468 -2.135,-1.151 -2.135,-2.291 0,-1.259 1.043,-2.195 2.614,-2.195 0.827,0 1.428,0.192 1.787,0.396 l -0.288,0.852 c -0.264,-0.144 -0.804,-0.384 -1.535,-0.384 -1.104,0 -1.522,0.66 -1.522,1.211 0,0.755 0.491,1.127 1.606,1.559 1.367,0.528 2.063,1.188 2.063,2.375 0,1.247 -0.924,2.327 -2.831,2.327 -0.779,0 -1.631,-0.228 -2.063,-0.516 z"
   id="path52"
   inkscape:connector-curvature="0"
   style="fill:#0000ff" />
	<path
   d="m 56.8,66.092 v 1.667 h 1.512 v 0.803 H 56.8 v 3.13 c 0,0.72 0.204,1.127 0.792,1.127 0.275,0 0.479,-0.036 0.611,-0.072 l 0.048,0.792 c -0.203,0.084 -0.527,0.144 -0.936,0.144 -0.491,0 -0.887,-0.156 -1.139,-0.444 -0.3,-0.312 -0.408,-0.828 -0.408,-1.511 v -3.167 h -0.899 v -0.803 h 0.899 v -1.391 z"
   id="path54"
   inkscape:connector-curvature="0"
   style="fill:#0000ff" />
	<path
   d="m 59.502,69.57 c 0,-0.684 -0.013,-1.271 -0.049,-1.811 h 0.924 l 0.036,1.139 h 0.048 c 0.264,-0.779 0.899,-1.271 1.607,-1.271 0.12,0 0.204,0.012 0.3,0.036 v 0.996 c -0.108,-0.024 -0.216,-0.036 -0.36,-0.036 -0.743,0 -1.271,0.564 -1.415,1.355 -0.023,0.144 -0.048,0.312 -0.048,0.492 v 3.094 h -1.043 z"
   id="path56"
   inkscape:connector-curvature="0"
   style="fill:#0000ff" />
	<path
   d="m 63.893,70.853 c 0.024,1.427 0.936,2.015 1.991,2.015 0.756,0 1.211,-0.132 1.607,-0.3 l 0.18,0.756 c -0.372,0.168 -1.008,0.36 -1.931,0.36 -1.787,0 -2.854,-1.175 -2.854,-2.927 0,-1.751 1.031,-3.13 2.723,-3.13 1.895,0 2.398,1.667 2.398,2.734 0,0.216 -0.024,0.384 -0.036,0.492 z m 3.095,-0.756 C 67,69.426 66.712,68.382 65.525,68.382 c -1.067,0 -1.535,0.983 -1.619,1.715 z"
   id="path58"
   inkscape:connector-curvature="0"
   style="fill:#0000ff" />
	<path
   d="m 72.531,73.563 -0.084,-0.731 h -0.036 c -0.324,0.456 -0.947,0.863 -1.775,0.863 -1.175,0 -1.774,-0.828 -1.774,-1.667 0,-1.403 1.247,-2.171 3.49,-2.159 v -0.12 c 0,-0.479 -0.132,-1.343 -1.319,-1.343 -0.54,0 -1.104,0.168 -1.512,0.432 l -0.239,-0.695 c 0.479,-0.312 1.175,-0.516 1.906,-0.516 1.775,0 2.207,1.211 2.207,2.375 v 2.171 c 0,0.503 0.024,0.995 0.096,1.391 h -0.96 z m -0.156,-2.962 c -1.151,-0.024 -2.458,0.18 -2.458,1.307 0,0.684 0.455,1.008 0.995,1.008 0.756,0 1.235,-0.48 1.403,-0.972 0.036,-0.108 0.06,-0.228 0.06,-0.336 z"
   id="path60"
   inkscape:connector-curvature="0"
   style="fill:#0000ff" />
	<path
   d="m 75.102,69.329 c 0,-0.6 -0.013,-1.091 -0.049,-1.571 h 0.924 l 0.048,0.936 h 0.036 c 0.324,-0.552 0.863,-1.067 1.823,-1.067 0.791,0 1.391,0.479 1.643,1.163 h 0.024 c 0.18,-0.324 0.407,-0.576 0.647,-0.755 0.348,-0.264 0.731,-0.408 1.283,-0.408 0.768,0 1.907,0.503 1.907,2.519 v 3.418 h -1.031 v -3.286 c 0,-1.115 -0.408,-1.787 -1.26,-1.787 -0.6,0 -1.067,0.444 -1.247,0.959 -0.048,0.144 -0.084,0.336 -0.084,0.528 v 3.586 h -1.031 v -3.478 c 0,-0.923 -0.408,-1.595 -1.212,-1.595 -0.659,0 -1.139,0.528 -1.307,1.056 -0.061,0.156 -0.084,0.335 -0.084,0.516 v 3.502 h -1.031 v -4.236 z"
   id="path62"
   inkscape:connector-curvature="0"
   style="fill:#0000ff" />
</g>
<rect
   x="-15.146"
   y="96.24"
   fill="none"
   stroke="#000000"
   stroke-miterlimit="10"
   width="124.725"
   height="22.678"
   id="rect66" />
<line
   fill="none"
   stroke="#000000"
   stroke-miterlimit="10"
   x1="-15.146"
   y1="113.248"
   x2="109.579"
   y2="113.248"
   id="line68" />
<line
   fill="none"
   stroke="#000000"
   stroke-miterlimit="10"
   x1="-15.146"
   y1="116.083"
   x2="109.579"
   y2="116.083"
   id="line70" />
<rect
   x="61.39"
   y="5.531"
   fill="none"
   stroke="#000000"
   stroke-miterlimit="10"
   width="124.725"
   height="22.678"
   id="rect72" />
<line
   fill="none"
   stroke="#000000"
   stroke-miterlimit="10"
   x1="61.39"
   y1="22.54"
   x2="186.115"
   y2="22.54"
   id="line74" />
<line
   fill="none"
   stroke="#000000"
   stroke-miterlimit="10"
   x1="61.39"
   y1="25.375"
   x2="186.115"
   y2="25.375"
   id="line76" />
<rect
   x="-15.146"
   y="62.224"
   fill="none"
   stroke="#000000"
   stroke-miterlimit="10"
   width="124.725"
   height="22.678"
   id="rect78" />
<line
   fill="none"
   stroke="#000000"
   stroke-miterlimit="10"
   x1="-15.146"
   y1="79.233"
   x2="109.579"
   y2="79.233"
   id="line80" />
<line
   fill="none"
   stroke="#000000"
   stroke-miterlimit="10"
   x1="-15.146"
   y1="82.068"
   x2="109.579"
   y2="82.068"
   id="line82" />
<g
   id="g124">
	<path
   d="M-7.432,99.603c0.456-0.096,1.176-0.168,1.907-0.168c1.044,0,1.715,0.18,2.219,0.588c0.42,0.312,0.672,0.792,0.672,1.427   c0,0.779-0.516,1.463-1.367,1.775v0.024c0.768,0.192,1.667,0.828,1.667,2.027c0,0.696-0.276,1.223-0.684,1.62   c-0.563,0.516-1.476,0.755-2.795,0.755c-0.72,0-1.271-0.048-1.619-0.096V99.603z M-6.388,102.913h0.947   c1.104,0,1.751-0.576,1.751-1.355c0-0.948-0.72-1.319-1.775-1.319c-0.479,0-0.755,0.036-0.923,0.072V102.913z M-6.388,106.787   c0.204,0.036,0.504,0.048,0.875,0.048c1.08,0,2.075-0.396,2.075-1.571c0-1.103-0.947-1.559-2.087-1.559h-0.863V106.787z"
   id="path84" />
	<path
   d="M-0.531,101.774l1.271,3.43c0.132,0.384,0.276,0.84,0.372,1.188h0.024c0.107-0.348,0.228-0.792,0.371-1.212l1.151-3.406   h1.115l-1.583,4.137c-0.755,1.991-1.271,3.011-1.99,3.635c-0.516,0.455-1.032,0.635-1.296,0.684l-0.264-0.888   c0.264-0.084,0.611-0.252,0.924-0.516c0.288-0.228,0.647-0.636,0.888-1.176c0.048-0.108,0.084-0.192,0.084-0.251   c0-0.061-0.024-0.145-0.072-0.276l-2.146-5.349H-0.531z"
   id="path86" />
	<path
   d="M6.008,100.107v1.667h1.512v0.803H6.008v3.131c0,0.719,0.204,1.127,0.792,1.127c0.275,0,0.479-0.036,0.611-0.072   l0.048,0.792c-0.203,0.084-0.527,0.144-0.936,0.144c-0.491,0-0.887-0.156-1.139-0.443c-0.3-0.313-0.408-0.828-0.408-1.512v-3.166   H4.077v-0.803h0.899v-1.391L6.008,100.107z"
   id="path88" />
	<path
   d="M9.223,104.868c0.024,1.428,0.936,2.015,1.991,2.015c0.756,0,1.211-0.132,1.607-0.3l0.18,0.756   c-0.372,0.168-1.008,0.359-1.931,0.359c-1.787,0-2.854-1.175-2.854-2.926c0-1.751,1.031-3.13,2.723-3.13   c1.895,0,2.398,1.667,2.398,2.734c0,0.216-0.024,0.384-0.036,0.492H9.223z M12.318,104.113c0.012-0.671-0.276-1.715-1.463-1.715   c-1.067,0-1.535,0.983-1.619,1.715H12.318z"
   id="path90" />
	<path
   d="M15.991,105.036l-0.84,2.543h-1.079l2.746-8.084h1.26l2.759,8.084H19.72l-0.863-2.543H15.991z M18.641,104.221   l-0.791-2.327c-0.181-0.527-0.3-1.007-0.42-1.475h-0.024c-0.12,0.48-0.252,0.972-0.407,1.463l-0.792,2.339H18.641z"
   id="path92" />
	<path
   d="M21.957,103.585c0-0.684-0.013-1.271-0.049-1.811h0.924l0.036,1.139h0.048c0.264-0.779,0.899-1.271,1.607-1.271   c0.12,0,0.203,0.012,0.3,0.036v0.996c-0.108-0.024-0.216-0.036-0.36-0.036c-0.743,0-1.271,0.564-1.415,1.355   c-0.023,0.144-0.048,0.312-0.048,0.492v3.095h-1.043V103.585z"
   id="path94" />
	<path
   d="M25.928,103.585c0-0.684-0.013-1.271-0.049-1.811h0.924l0.036,1.139h0.048c0.264-0.779,0.899-1.271,1.607-1.271   c0.12,0,0.204,0.012,0.3,0.036v0.996c-0.108-0.024-0.216-0.036-0.36-0.036c-0.743,0-1.271,0.564-1.415,1.355   c-0.023,0.144-0.048,0.312-0.048,0.492v3.095h-1.043V103.585z"
   id="path96" />
	<path
   d="M33.007,107.579l-0.084-0.732h-0.036c-0.324,0.456-0.947,0.863-1.775,0.863c-1.175,0-1.774-0.827-1.774-1.666   c0-1.404,1.247-2.171,3.49-2.159v-0.12c0-0.479-0.132-1.343-1.319-1.343c-0.54,0-1.104,0.168-1.512,0.432l-0.239-0.695   c0.479-0.312,1.175-0.516,1.906-0.516c1.775,0,2.207,1.211,2.207,2.375v2.171c0,0.503,0.024,0.995,0.096,1.392H33.007z    M32.85,104.616c-1.151-0.024-2.458,0.18-2.458,1.307c0,0.684,0.455,1.008,0.995,1.008c0.756,0,1.235-0.479,1.403-0.971   c0.036-0.108,0.06-0.229,0.06-0.336V104.616z"
   id="path98" />
	<path
   d="M35.865,101.774l1.271,3.43c0.132,0.384,0.276,0.84,0.372,1.188h0.024c0.107-0.348,0.228-0.792,0.371-1.212l1.151-3.406   h1.115l-1.583,4.137c-0.755,1.991-1.271,3.011-1.99,3.635c-0.516,0.455-1.032,0.635-1.296,0.684l-0.264-0.888   c0.264-0.084,0.611-0.252,0.924-0.516c0.288-0.228,0.647-0.636,0.888-1.176c0.048-0.108,0.084-0.192,0.084-0.251   c0-0.061-0.024-0.145-0.072-0.276l-2.146-5.349H35.865z"
   id="path100" />
	<path
   d="M42.212,99.495v8.084h-1.044v-8.084H42.212z"
   id="path102" />
	<path
   d="M44.121,103.345c0-0.6-0.013-1.091-0.049-1.571h0.936l0.061,0.959h0.023c0.288-0.552,0.96-1.091,1.919-1.091   c0.804,0,2.051,0.479,2.051,2.47v3.467h-1.055v-3.347c0-0.936-0.349-1.715-1.344-1.715c-0.695,0-1.235,0.492-1.415,1.079   c-0.048,0.132-0.072,0.312-0.072,0.492v3.491h-1.055V103.345z"
   id="path104" />
	<path
   d="M50.78,103.669c0-0.744-0.024-1.343-0.049-1.895h0.948l0.048,0.995h0.023c0.432-0.708,1.115-1.127,2.063-1.127   c1.403,0,2.458,1.187,2.458,2.95c0,2.086-1.271,3.118-2.639,3.118c-0.768,0-1.438-0.336-1.786-0.911h-0.024v3.154H50.78V103.669z    M51.823,105.216c0,0.156,0.024,0.3,0.048,0.432c0.192,0.732,0.828,1.235,1.583,1.235c1.115,0,1.764-0.911,1.764-2.243   c0-1.163-0.612-2.159-1.728-2.159c-0.72,0-1.392,0.516-1.595,1.307c-0.036,0.132-0.072,0.288-0.072,0.432V105.216z"
   id="path106" />
	<path
   d="M62.465,105.995c0,0.6,0.013,1.128,0.049,1.584h-0.936l-0.061-0.947h-0.023c-0.276,0.467-0.888,1.078-1.919,1.078   c-0.912,0-2.003-0.503-2.003-2.542v-3.394h1.055v3.214c0,1.103,0.336,1.847,1.296,1.847c0.707,0,1.199-0.492,1.391-0.959   c0.061-0.156,0.097-0.348,0.097-0.54v-3.562h1.055V105.995z"
   id="path108" />
	<path
   d="M65.491,100.107v1.667h1.512v0.803h-1.512v3.131c0,0.719,0.204,1.127,0.792,1.127c0.275,0,0.479-0.036,0.611-0.072   l0.048,0.792c-0.203,0.084-0.527,0.144-0.936,0.144c-0.491,0-0.887-0.156-1.139-0.443c-0.3-0.313-0.408-0.828-0.408-1.512v-3.166   H63.56v-0.803h0.899v-1.391L65.491,100.107z"
   id="path110" />
	<path
   d="M68.084,106.308c0.468,0.287,1.151,0.527,1.871,0.527c1.067,0,1.691-0.563,1.691-1.379c0-0.756-0.433-1.188-1.523-1.607   c-1.319-0.468-2.135-1.151-2.135-2.291c0-1.259,1.043-2.195,2.614-2.195c0.827,0,1.428,0.192,1.787,0.396l-0.288,0.852   c-0.264-0.144-0.804-0.384-1.535-0.384c-1.104,0-1.523,0.66-1.523,1.211c0,0.755,0.492,1.127,1.607,1.559   c1.367,0.528,2.063,1.188,2.063,2.375c0,1.247-0.924,2.326-2.831,2.326c-0.779,0-1.631-0.228-2.063-0.516L68.084,106.308z"
   id="path112" />
	<path
   d="M75.343,100.107v1.667h1.512v0.803h-1.512v3.131c0,0.719,0.204,1.127,0.792,1.127c0.275,0,0.479-0.036,0.611-0.072   l0.048,0.792c-0.203,0.084-0.527,0.144-0.936,0.144c-0.491,0-0.887-0.156-1.139-0.443c-0.3-0.313-0.408-0.828-0.408-1.512v-3.166   h-0.899v-0.803h0.899v-1.391L75.343,100.107z"
   id="path114" />
	<path
   d="M78.044,103.585c0-0.684-0.013-1.271-0.049-1.811h0.924l0.036,1.139h0.048c0.264-0.779,0.899-1.271,1.607-1.271   c0.12,0,0.204,0.012,0.3,0.036v0.996c-0.108-0.024-0.216-0.036-0.36-0.036c-0.743,0-1.271,0.564-1.415,1.355   c-0.023,0.144-0.048,0.312-0.048,0.492v3.095h-1.043V103.585z"
   id="path116" />
	<path
   d="M82.435,104.868c0.024,1.428,0.936,2.015,1.991,2.015c0.756,0,1.211-0.132,1.607-0.3l0.18,0.756   c-0.372,0.168-1.008,0.359-1.931,0.359c-1.787,0-2.854-1.175-2.854-2.926c0-1.751,1.031-3.13,2.723-3.13   c1.895,0,2.398,1.667,2.398,2.734c0,0.216-0.024,0.384-0.036,0.492H82.435z M85.53,104.113c0.012-0.671-0.276-1.715-1.463-1.715   c-1.067,0-1.535,0.983-1.619,1.715H85.53z"
   id="path118" />
	<path
   d="M91.074,107.579l-0.084-0.732h-0.036c-0.323,0.456-0.947,0.863-1.775,0.863c-1.175,0-1.774-0.827-1.774-1.666   c0-1.404,1.247-2.171,3.49-2.159v-0.12c0-0.479-0.132-1.343-1.319-1.343c-0.54,0-1.104,0.168-1.512,0.432l-0.239-0.695   c0.479-0.312,1.175-0.516,1.906-0.516c1.775,0,2.207,1.211,2.207,2.375v2.171c0,0.503,0.024,0.995,0.096,1.392H91.074z    M90.918,104.616c-1.151-0.024-2.458,0.18-2.458,1.307c0,0.684,0.455,1.008,0.995,1.008c0.756,0,1.235-0.479,1.403-0.971   c0.036-0.108,0.06-0.229,0.06-0.336V104.616z"
   id="path120" />
	<path
   d="M93.644,103.345c0-0.6-0.013-1.091-0.049-1.571h0.924l0.048,0.936h0.036c0.324-0.552,0.863-1.067,1.823-1.067   c0.791,0,1.391,0.479,1.643,1.163h0.024c0.18-0.324,0.407-0.576,0.647-0.755c0.348-0.264,0.731-0.408,1.283-0.408   c0.768,0,1.907,0.503,1.907,2.519v3.418H100.9v-3.287c0-1.115-0.408-1.787-1.26-1.787c-0.6,0-1.067,0.444-1.247,0.959   c-0.048,0.144-0.084,0.336-0.084,0.528v3.586h-1.031v-3.479c0-0.923-0.408-1.595-1.212-1.595c-0.659,0-1.139,0.528-1.307,1.056   c-0.061,0.156-0.084,0.335-0.084,0.516v3.502h-1.031V103.345z"
   id="path122" />
</g>
<rect
   x="137.925"
   y="48.052"
   fill="none"
   stroke="#000000"
   stroke-miterlimit="10"
   width="124.725"
   height="22.678"
   id="rect126" />
<line
   fill="none"
   stroke="#000000"
   stroke-miterlimit="10"
   x1="137.925"
   y1="65.06"
   x2="262.65"
   y2="65.06"
   id="line128" />
<line
   fill="none"
   stroke="#000000"
   stroke-miterlimit="10"
   x1="137.925"
   y1="67.895"
   x2="262.65"
   y2="67.895"
   id="line130" />
<g
   id="g166"
   style="fill:#0000ff">
	<path
   d="m 160.081,55.265 c 0,2.782 -1.689,4.257 -3.753,4.257 -2.135,0 -3.634,-1.655 -3.634,-4.102 0,-2.567 1.596,-4.246 3.754,-4.246 2.208,0.002 3.633,1.692 3.633,4.091 z m -6.272,0.132 c 0,1.727 0.936,3.274 2.579,3.274 1.656,0 2.591,-1.523 2.591,-3.358 0,-1.607 -0.84,-3.286 -2.58,-3.286 -1.725,0 -2.59,1.595 -2.59,3.37 z"
   id="path132"
   inkscape:connector-curvature="0"
   style="fill:#0000ff" />
	<path
   d="m 161.357,59.391 c 0.025,-0.396 0.049,-0.983 0.049,-1.499 v -7.016 h 1.043 v 3.646 h 0.025 c 0.371,-0.648 1.043,-1.067 1.979,-1.067 1.439,0 2.459,1.199 2.445,2.962 0,2.075 -1.307,3.106 -2.602,3.106 -0.84,0 -1.512,-0.324 -1.943,-1.091 h -0.035 l -0.049,0.959 z m 1.091,-2.327 c 0,0.132 0.025,0.264 0.049,0.384 0.203,0.731 0.814,1.235 1.582,1.235 1.104,0 1.764,-0.899 1.764,-2.231 0,-1.163 -0.6,-2.159 -1.727,-2.159 -0.721,0 -1.393,0.492 -1.607,1.295 -0.023,0.12 -0.061,0.264 -0.061,0.432 z"
   id="path134"
   inkscape:connector-curvature="0"
   style="fill:#0000ff" />
	<path
   d="m 166.818,61.07 c 0.48,-0.036 0.9,-0.168 1.152,-0.444 0.287,-0.336 0.396,-0.792 0.396,-2.183 v -4.857 h 1.055 v 5.265 c 0,1.127 -0.18,1.859 -0.695,2.387 -0.469,0.468 -1.236,0.66 -1.799,0.66 z m 2.722,-9.115 c 0.012,0.348 -0.238,0.648 -0.658,0.648 -0.396,0 -0.648,-0.3 -0.648,-0.648 0,-0.372 0.275,-0.66 0.672,-0.66 0.382,0 0.634,0.288 0.634,0.66 z"
   id="path136"
   inkscape:connector-curvature="0"
   style="fill:#0000ff" />
	<path
   d="m 171.738,56.68 c 0.023,1.427 0.936,2.015 1.99,2.015 0.756,0 1.211,-0.132 1.607,-0.3 l 0.18,0.756 c -0.371,0.168 -1.008,0.36 -1.93,0.36 -1.787,0 -2.855,-1.175 -2.855,-2.927 0,-1.751 1.031,-3.13 2.723,-3.13 1.895,0 2.398,1.667 2.398,2.734 0,0.216 -0.023,0.384 -0.035,0.492 z m 3.093,-0.755 c 0.012,-0.671 -0.275,-1.715 -1.463,-1.715 -1.066,0 -1.535,0.983 -1.619,1.715 z"
   id="path138"
   inkscape:connector-curvature="0"
   style="fill:#0000ff" />
	<path
   d="m 181.3,59.175 c -0.277,0.144 -0.889,0.336 -1.668,0.336 -1.752,0 -2.891,-1.188 -2.891,-2.962 0,-1.787 1.223,-3.083 3.119,-3.083 0.623,0 1.174,0.156 1.463,0.3 l -0.24,0.815 c -0.252,-0.144 -0.648,-0.276 -1.223,-0.276 -1.332,0 -2.051,0.984 -2.051,2.195 0,1.343 0.863,2.171 2.014,2.171 0.6,0 0.996,-0.156 1.295,-0.288 z"
   id="path140"
   inkscape:connector-curvature="0"
   style="fill:#0000ff" />
	<path
   d="m 183.964,51.919 v 1.667 h 1.512 v 0.803 h -1.512 v 3.13 c 0,0.72 0.205,1.127 0.793,1.127 0.275,0 0.479,-0.036 0.611,-0.072 l 0.047,0.792 c -0.203,0.084 -0.527,0.144 -0.936,0.144 -0.49,0 -0.887,-0.156 -1.139,-0.444 -0.299,-0.312 -0.408,-0.828 -0.408,-1.511 v -3.167 h -0.898 v -0.803 h 0.898 v -1.391 z"
   id="path142"
   inkscape:connector-curvature="0"
   style="fill:#0000ff" />
	<path
   d="M 187.745,51.307 V 59.39 H 186.7 v -8.083 z"
   id="path144"
   inkscape:connector-curvature="0"
   style="fill:#0000ff" />
	<path
   d="m 189.654,55.157 c 0,-0.6 -0.012,-1.091 -0.049,-1.571 h 0.936 l 0.061,0.959 h 0.023 c 0.289,-0.552 0.961,-1.091 1.92,-1.091 0.803,0 2.051,0.479 2.051,2.47 v 3.466 h -1.055 v -3.346 c 0,-0.936 -0.348,-1.715 -1.344,-1.715 -0.695,0 -1.236,0.492 -1.416,1.079 -0.047,0.132 -0.072,0.312 -0.072,0.492 v 3.49 h -1.055 z"
   id="path146"
   inkscape:connector-curvature="0"
   style="fill:#0000ff" />
	<path
   d="m 196.314,55.481 c 0,-0.744 -0.025,-1.343 -0.049,-1.895 h 0.947 l 0.049,0.995 h 0.023 c 0.432,-0.708 1.115,-1.127 2.063,-1.127 1.404,0 2.459,1.187 2.459,2.95 0,2.087 -1.271,3.118 -2.639,3.118 -0.768,0 -1.439,-0.336 -1.787,-0.912 h -0.023 v 3.154 h -1.043 z m 1.043,1.547 c 0,0.156 0.023,0.3 0.047,0.432 0.193,0.732 0.828,1.235 1.584,1.235 1.115,0 1.764,-0.911 1.764,-2.243 0,-1.163 -0.613,-2.159 -1.729,-2.159 -0.719,0 -1.391,0.516 -1.594,1.307 -0.037,0.132 -0.072,0.288 -0.072,0.432 z"
   id="path148"
   inkscape:connector-curvature="0"
   style="fill:#0000ff" />
	<path
   d="m 207.997,57.808 c 0,0.6 0.014,1.127 0.049,1.583 h -0.936 l -0.061,-0.947 h -0.023 c -0.275,0.467 -0.887,1.079 -1.918,1.079 -0.912,0 -2.004,-0.503 -2.004,-2.542 v -3.394 h 1.055 v 3.214 c 0,1.103 0.336,1.847 1.297,1.847 0.707,0 1.199,-0.492 1.391,-0.959 0.061,-0.156 0.096,-0.348 0.096,-0.54 v -3.562 h 1.055 v 4.221 z"
   id="path150"
   inkscape:connector-curvature="0"
   style="fill:#0000ff" />
	<path
   d="m 211.025,51.919 v 1.667 h 1.512 v 0.803 h -1.512 v 3.13 c 0,0.72 0.203,1.127 0.791,1.127 0.275,0 0.48,-0.036 0.611,-0.072 l 0.049,0.792 c -0.203,0.084 -0.527,0.144 -0.936,0.144 -0.492,0 -0.887,-0.156 -1.139,-0.444 -0.301,-0.312 -0.408,-0.828 -0.408,-1.511 v -3.167 h -0.9 v -0.803 h 0.9 v -1.391 z"
   id="path152"
   inkscape:connector-curvature="0"
   style="fill:#0000ff" />
	<path
   d="m 213.616,58.119 c 0.469,0.288 1.152,0.528 1.871,0.528 1.068,0 1.691,-0.563 1.691,-1.379 0,-0.755 -0.432,-1.187 -1.523,-1.607 -1.318,-0.468 -2.135,-1.151 -2.135,-2.291 0,-1.259 1.043,-2.195 2.615,-2.195 0.826,0 1.428,0.192 1.787,0.396 l -0.289,0.852 c -0.264,-0.144 -0.803,-0.384 -1.535,-0.384 -1.104,0 -1.521,0.66 -1.521,1.211 0,0.755 0.49,1.127 1.605,1.559 1.367,0.528 2.064,1.188 2.064,2.375 0,1.247 -0.924,2.327 -2.832,2.327 -0.779,0 -1.631,-0.228 -2.063,-0.516 z"
   id="path154"
   inkscape:connector-curvature="0"
   style="fill:#0000ff" />
	<path
   d="m 220.876,51.919 v 1.667 h 1.512 v 0.803 h -1.512 v 3.13 c 0,0.72 0.203,1.127 0.791,1.127 0.275,0 0.48,-0.036 0.611,-0.072 l 0.049,0.792 c -0.203,0.084 -0.527,0.144 -0.936,0.144 -0.492,0 -0.887,-0.156 -1.139,-0.444 -0.301,-0.312 -0.408,-0.828 -0.408,-1.511 v -3.167 h -0.9 v -0.803 h 0.9 v -1.391 z"
   id="path156"
   inkscape:connector-curvature="0"
   style="fill:#0000ff" />
	<path
   d="m 223.577,55.397 c 0,-0.684 -0.014,-1.271 -0.049,-1.811 h 0.924 l 0.035,1.139 h 0.049 c 0.264,-0.779 0.898,-1.271 1.607,-1.271 0.119,0 0.203,0.012 0.299,0.036 v 0.996 c -0.107,-0.024 -0.215,-0.036 -0.359,-0.036 -0.744,0 -1.271,0.564 -1.416,1.355 -0.023,0.144 -0.047,0.312 -0.047,0.492 v 3.094 h -1.043 z"
   id="path158"
   inkscape:connector-curvature="0"
   style="fill:#0000ff" />
	<path
   d="m 227.968,56.68 c 0.025,1.427 0.936,2.015 1.992,2.015 0.756,0 1.211,-0.132 1.607,-0.3 l 0.18,0.756 c -0.373,0.168 -1.008,0.36 -1.932,0.36 -1.787,0 -2.854,-1.175 -2.854,-2.927 0,-1.751 1.031,-3.13 2.723,-3.13 1.895,0 2.398,1.667 2.398,2.734 0,0.216 -0.025,0.384 -0.037,0.492 z m 3.096,-0.755 c 0.012,-0.671 -0.277,-1.715 -1.463,-1.715 -1.068,0 -1.535,0.983 -1.619,1.715 z"
   id="path160"
   inkscape:connector-curvature="0"
   style="fill:#0000ff" />
	<path
   d="m 236.607,59.391 -0.084,-0.731 h -0.035 c -0.324,0.456 -0.947,0.863 -1.775,0.863 -1.176,0 -1.775,-0.828 -1.775,-1.667 0,-1.403 1.248,-2.171 3.49,-2.159 v -0.12 c 0,-0.479 -0.131,-1.343 -1.318,-1.343 -0.541,0 -1.104,0.168 -1.512,0.432 l -0.24,-0.695 c 0.48,-0.312 1.176,-0.516 1.906,-0.516 1.775,0 2.207,1.211 2.207,2.375 V 58 c 0,0.503 0.025,0.995 0.096,1.391 z m -0.157,-2.963 c -1.15,-0.024 -2.457,0.18 -2.457,1.307 0,0.684 0.455,1.008 0.994,1.008 0.756,0 1.236,-0.48 1.404,-0.972 0.035,-0.108 0.059,-0.228 0.059,-0.336 z"
   id="path162"
   inkscape:connector-curvature="0"
   style="fill:#0000ff" />
	<path
   d="m 239.177,55.157 c 0,-0.6 -0.012,-1.091 -0.049,-1.571 h 0.924 l 0.049,0.936 h 0.035 c 0.324,-0.552 0.863,-1.067 1.824,-1.067 0.791,0 1.391,0.479 1.643,1.163 h 0.023 c 0.18,-0.324 0.408,-0.576 0.648,-0.755 0.348,-0.264 0.73,-0.408 1.283,-0.408 0.768,0 1.906,0.503 1.906,2.519 v 3.418 h -1.031 v -3.286 c 0,-1.115 -0.408,-1.787 -1.26,-1.787 -0.6,0 -1.066,0.444 -1.246,0.959 -0.049,0.144 -0.084,0.336 -0.084,0.528 v 3.586 h -1.031 v -3.478 c 0,-0.923 -0.408,-1.595 -1.213,-1.595 -0.658,0 -1.139,0.528 -1.307,1.056 -0.061,0.156 -0.084,0.335 -0.084,0.516 v 3.502 h -1.031 v -4.236 z"
   id="path164"
   inkscape:connector-curvature="0"
   style="fill:#0000ff" />
</g>
<line
   fill="none"
   stroke="#000000"
   stroke-miterlimit="10"
   x1="123.752"
   y1="70.729"
   x2="109.579"
   y2="70.729"
   id="line168" />
<line
   fill="none"
   stroke="#000000"
   stroke-miterlimit="10"
   x1="137.926"
   y1="56.556"
   x2="123.752"
   y2="56.556"
   id="line170" />
<rect
   x="160.603"
   y="124.586"
   fill="none"
   stroke="#000000"
   stroke-miterlimit="10"
   width="124.724"
   height="22.678"
   id="rect172" />
<line
   fill="none"
   stroke="#000000"
   stroke-miterlimit="10"
   x1="160.603"
   y1="141.595"
   x2="285.326"
   y2="141.595"
   id="line174" />
<line
   fill="none"
   stroke="#000000"
   stroke-miterlimit="10"
   x1="160.603"
   y1="144.43"
   x2="285.326"
   y2="144.43"
   id="line176" />
<g
   id="g214"
   style="fill:#0000ff">
	<path
   d="m 171.339,127.95 c 0.457,-0.097 1.176,-0.168 1.908,-0.168 1.043,0 1.715,0.18 2.219,0.588 0.42,0.311 0.672,0.791 0.672,1.427 0,0.779 -0.516,1.463 -1.367,1.774 v 0.024 c 0.768,0.192 1.666,0.827 1.666,2.026 0,0.696 -0.275,1.224 -0.684,1.619 -0.563,0.516 -1.475,0.756 -2.795,0.756 -0.719,0 -1.27,-0.048 -1.619,-0.096 z m 1.045,3.31 h 0.947 c 1.104,0 1.75,-0.575 1.75,-1.354 0,-0.948 -0.719,-1.32 -1.773,-1.32 -0.48,0 -0.756,0.036 -0.924,0.072 z m 0,3.874 c 0.203,0.036 0.504,0.048 0.875,0.048 1.08,0 2.074,-0.396 2.074,-1.571 0,-1.104 -0.947,-1.559 -2.086,-1.559 h -0.863 z"
   id="path178"
   inkscape:connector-curvature="0"
   style="fill:#0000ff" />
	<path
   d="m 182.665,134.343 c 0,0.6 0.012,1.127 0.049,1.582 h -0.936 l -0.061,-0.947 h -0.023 c -0.277,0.468 -0.889,1.08 -1.92,1.08 -0.912,0 -2.002,-0.504 -2.002,-2.543 v -3.395 h 1.055 v 3.215 c 0,1.104 0.336,1.847 1.295,1.847 0.707,0 1.199,-0.491 1.391,-0.96 0.061,-0.155 0.098,-0.348 0.098,-0.539 v -3.563 h 1.055 v 4.223 z"
   id="path180"
   inkscape:connector-curvature="0"
   style="fill:#0000ff" />
	<path
   d="m 188.007,135.925 v -5.001 h -2.436 v 5.001 h -1.043 v -5.001 h -0.816 v -0.804 h 0.816 v -0.191 c 0,-0.815 0.191,-1.523 0.646,-1.979 0.336,-0.336 0.816,-0.54 1.465,-0.54 0.334,0 0.646,0.108 0.826,0.204 l -0.215,0.779 c -0.156,-0.072 -0.385,-0.145 -0.625,-0.145 -0.826,0 -1.055,0.708 -1.055,1.619 v 0.252 h 2.436 v -0.275 c 0,-0.815 0.191,-1.559 0.684,-2.027 0.395,-0.383 0.922,-0.539 1.402,-0.539 0.385,0 0.695,0.084 0.9,0.168 l -0.133,0.815 c -0.168,-0.072 -0.371,-0.132 -0.684,-0.132 -0.887,0 -1.127,0.791 -1.127,1.679 v 0.312 h 1.402 v 0.804 h -1.391 v 5.001 z"
   id="path182"
   inkscape:connector-curvature="0"
   style="fill:#0000ff" />
	<path
   d="m 191.847,133.215 c 0.025,1.427 0.936,2.015 1.992,2.015 0.756,0 1.211,-0.132 1.607,-0.3 l 0.18,0.756 c -0.373,0.168 -1.008,0.36 -1.932,0.36 -1.787,0 -2.854,-1.176 -2.854,-2.928 0,-1.75 1.031,-3.129 2.723,-3.129 1.895,0 2.398,1.666 2.398,2.734 0,0.215 -0.025,0.383 -0.037,0.491 h -4.077 z m 3.096,-0.756 c 0.012,-0.671 -0.277,-1.715 -1.463,-1.715 -1.068,0 -1.535,0.983 -1.619,1.715 z"
   id="path184"
   inkscape:connector-curvature="0"
   style="fill:#0000ff" />
	<path
   d="m 197.273,131.932 c 0,-0.684 -0.014,-1.271 -0.049,-1.812 h 0.924 l 0.035,1.14 h 0.049 c 0.264,-0.779 0.898,-1.271 1.607,-1.271 0.119,0 0.203,0.012 0.299,0.035 v 0.996 c -0.107,-0.024 -0.215,-0.037 -0.359,-0.037 -0.744,0 -1.271,0.564 -1.416,1.355 -0.023,0.145 -0.047,0.313 -0.047,0.492 v 3.094 h -1.043 z"
   id="path186"
   inkscape:connector-curvature="0"
   style="fill:#0000ff" />
	<path
   d="m 201.663,133.215 c 0.023,1.427 0.936,2.015 1.99,2.015 0.756,0 1.211,-0.132 1.607,-0.3 l 0.18,0.756 c -0.371,0.168 -1.008,0.36 -1.93,0.36 -1.787,0 -2.855,-1.176 -2.855,-2.928 0,-1.75 1.031,-3.129 2.723,-3.129 1.895,0 2.398,1.666 2.398,2.734 0,0.215 -0.023,0.383 -0.035,0.491 h -4.078 z m 3.094,-0.756 c 0.012,-0.671 -0.275,-1.715 -1.463,-1.715 -1.066,0 -1.535,0.983 -1.619,1.715 z"
   id="path188"
   inkscape:connector-curvature="0"
   style="fill:#0000ff" />
	<path
   d="m 212.101,127.41 v 7.017 c 0,0.516 0.012,1.103 0.049,1.498 h -0.947 l -0.049,-1.007 h -0.023 c -0.324,0.647 -1.031,1.14 -1.979,1.14 -1.404,0 -2.482,-1.188 -2.482,-2.951 -0.014,-1.931 1.188,-3.117 2.602,-3.117 0.889,0 1.488,0.419 1.752,0.887 h 0.023 v -3.466 h 1.054 z m -1.055,5.074 c 0,-0.133 -0.012,-0.313 -0.049,-0.443 -0.154,-0.672 -0.73,-1.225 -1.521,-1.225 -1.092,0 -1.74,0.96 -1.74,2.244 0,1.175 0.576,2.146 1.715,2.146 0.709,0 1.355,-0.469 1.547,-1.26 0.037,-0.145 0.049,-0.287 0.049,-0.455 v -1.007 z"
   id="path190"
   inkscape:connector-curvature="0"
   style="fill:#0000ff" />
	<path
   d="m 214.935,127.842 v 8.083 h -1.043 v -8.083 z"
   id="path192"
   inkscape:connector-curvature="0"
   style="fill:#0000ff" />
	<path
   d="m 216.845,131.692 c 0,-0.6 -0.014,-1.091 -0.049,-1.571 h 0.936 l 0.061,0.96 h 0.023 c 0.287,-0.552 0.959,-1.091 1.918,-1.091 0.805,0 2.051,0.479 2.051,2.47 v 3.466 h -1.055 v -3.346 c 0,-0.936 -0.348,-1.715 -1.344,-1.715 -0.695,0 -1.234,0.492 -1.414,1.079 -0.049,0.132 -0.072,0.312 -0.072,0.491 v 3.49 h -1.055 z"
   id="path194"
   inkscape:connector-curvature="0"
   style="fill:#0000ff" />
	<path
   d="m 223.503,132.016 c 0,-0.743 -0.023,-1.343 -0.049,-1.896 h 0.949 l 0.047,0.996 h 0.023 c 0.432,-0.708 1.115,-1.127 2.064,-1.127 1.402,0 2.457,1.187 2.457,2.949 0,2.088 -1.27,3.119 -2.639,3.119 -0.768,0 -1.438,-0.336 -1.785,-0.912 h -0.025 v 3.154 h -1.043 v -6.283 z m 1.043,1.547 c 0,0.156 0.025,0.3 0.049,0.432 0.191,0.731 0.828,1.235 1.582,1.235 1.115,0 1.764,-0.911 1.764,-2.242 0,-1.164 -0.611,-2.159 -1.727,-2.159 -0.721,0 -1.393,0.516 -1.596,1.308 -0.035,0.131 -0.072,0.287 -0.072,0.432 z"
   id="path196"
   inkscape:connector-curvature="0"
   style="fill:#0000ff" />
	<path
   d="m 235.189,134.343 c 0,0.6 0.012,1.127 0.049,1.582 h -0.936 l -0.061,-0.947 h -0.023 c -0.277,0.468 -0.889,1.08 -1.92,1.08 -0.912,0 -2.002,-0.504 -2.002,-2.543 v -3.395 h 1.055 v 3.215 c 0,1.104 0.336,1.847 1.295,1.847 0.707,0 1.199,-0.491 1.391,-0.96 0.061,-0.155 0.098,-0.348 0.098,-0.539 v -3.563 h 1.055 v 4.223 z"
   id="path198"
   inkscape:connector-curvature="0"
   style="fill:#0000ff" />
	<path
   d="m 238.214,128.454 v 1.666 h 1.512 v 0.804 h -1.512 v 3.13 c 0,0.721 0.205,1.128 0.793,1.128 0.275,0 0.479,-0.036 0.611,-0.071 l 0.047,0.791 c -0.203,0.084 -0.527,0.145 -0.936,0.145 -0.49,0 -0.887,-0.156 -1.139,-0.444 -0.299,-0.312 -0.408,-0.827 -0.408,-1.511 v -3.167 h -0.898 v -0.804 h 0.898 v -1.391 z"
   id="path200"
   inkscape:connector-curvature="0"
   style="fill:#0000ff" />
	<path
   d="m 240.808,134.654 c 0.467,0.289 1.15,0.528 1.871,0.528 1.066,0 1.691,-0.563 1.691,-1.38 0,-0.755 -0.434,-1.187 -1.523,-1.606 -1.32,-0.468 -2.135,-1.151 -2.135,-2.29 0,-1.26 1.043,-2.195 2.613,-2.195 0.828,0 1.428,0.191 1.787,0.396 l -0.287,0.852 c -0.264,-0.144 -0.805,-0.384 -1.535,-0.384 -1.104,0 -1.523,0.66 -1.523,1.211 0,0.756 0.492,1.128 1.607,1.56 1.367,0.528 2.063,1.188 2.063,2.375 0,1.247 -0.924,2.327 -2.83,2.327 -0.779,0 -1.631,-0.229 -2.063,-0.517 z"
   id="path202"
   inkscape:connector-curvature="0"
   style="fill:#0000ff" />
	<path
   d="m 248.066,128.454 v 1.666 h 1.512 v 0.804 h -1.512 v 3.13 c 0,0.721 0.205,1.128 0.793,1.128 0.275,0 0.479,-0.036 0.611,-0.071 l 0.047,0.791 c -0.203,0.084 -0.527,0.145 -0.936,0.145 -0.49,0 -0.887,-0.156 -1.139,-0.444 -0.299,-0.312 -0.408,-0.827 -0.408,-1.511 v -3.167 h -0.898 v -0.804 h 0.898 v -1.391 z"
   id="path204"
   inkscape:connector-curvature="0"
   style="fill:#0000ff" />
	<path
   d="m 250.767,131.932 c 0,-0.684 -0.012,-1.271 -0.049,-1.812 h 0.924 l 0.037,1.14 h 0.047 c 0.264,-0.779 0.9,-1.271 1.607,-1.271 0.121,0 0.205,0.012 0.301,0.035 v 0.996 c -0.109,-0.024 -0.217,-0.037 -0.361,-0.037 -0.742,0 -1.27,0.564 -1.414,1.355 -0.023,0.145 -0.049,0.313 -0.049,0.492 v 3.094 h -1.043 z"
   id="path206"
   inkscape:connector-curvature="0"
   style="fill:#0000ff" />
	<path
   d="m 255.159,133.215 c 0.023,1.427 0.936,2.015 1.99,2.015 0.756,0 1.211,-0.132 1.607,-0.3 l 0.18,0.756 c -0.371,0.168 -1.008,0.36 -1.93,0.36 -1.787,0 -2.855,-1.176 -2.855,-2.928 0,-1.75 1.031,-3.129 2.723,-3.129 1.895,0 2.398,1.666 2.398,2.734 0,0.215 -0.023,0.383 -0.035,0.491 h -4.078 z m 3.094,-0.756 c 0.012,-0.671 -0.275,-1.715 -1.463,-1.715 -1.066,0 -1.535,0.983 -1.619,1.715 z"
   id="path208"
   inkscape:connector-curvature="0"
   style="fill:#0000ff" />
	<path
   d="m 263.798,135.925 -0.084,-0.73 h -0.037 c -0.322,0.455 -0.947,0.863 -1.775,0.863 -1.174,0 -1.773,-0.828 -1.773,-1.668 0,-1.402 1.246,-2.17 3.49,-2.158 v -0.12 c 0,-0.479 -0.133,-1.343 -1.32,-1.343 -0.539,0 -1.104,0.168 -1.512,0.432 l -0.238,-0.695 c 0.479,-0.313 1.174,-0.516 1.906,-0.516 1.775,0 2.207,1.211 2.207,2.374 v 2.171 c 0,0.504 0.023,0.995 0.096,1.391 h -0.96 z m -0.156,-2.962 c -1.152,-0.024 -2.459,0.18 -2.459,1.308 0,0.684 0.455,1.008 0.996,1.008 0.756,0 1.234,-0.48 1.402,-0.973 0.037,-0.107 0.061,-0.228 0.061,-0.336 z"
   id="path210"
   inkscape:connector-curvature="0"
   style="fill:#0000ff" />
	<path
   d="m 266.368,131.692 c 0,-0.6 -0.014,-1.091 -0.049,-1.571 h 0.924 l 0.047,0.936 h 0.037 c 0.324,-0.551 0.863,-1.066 1.822,-1.066 0.791,0 1.391,0.479 1.643,1.162 h 0.025 c 0.18,-0.323 0.406,-0.575 0.646,-0.755 0.348,-0.265 0.732,-0.407 1.283,-0.407 0.768,0 1.908,0.503 1.908,2.518 v 3.418 h -1.031 v -3.285 c 0,-1.115 -0.408,-1.787 -1.26,-1.787 -0.6,0 -1.068,0.443 -1.248,0.959 -0.047,0.145 -0.084,0.336 -0.084,0.527 v 3.586 H 270 v -3.478 c 0,-0.923 -0.408,-1.595 -1.211,-1.595 -0.66,0 -1.139,0.527 -1.307,1.055 -0.061,0.156 -0.084,0.336 -0.084,0.516 v 3.502 h -1.031 v -4.235 z"
   id="path212"
   inkscape:connector-curvature="0"
   style="fill:#0000ff" />
</g>
<rect
   x="160.603"
   y="158.603"
   fill="none"
   stroke="#000000"
   stroke-miterlimit="10"
   width="124.724"
   height="22.678"
   id="rect216" />
<line
   fill="none"
   stroke="#000000"
   stroke-miterlimit="10"
   x1="160.603"
   y1="175.612"
   x2="285.326"
   y2="175.612"
   id="line218" />
<line
   fill="none"
   stroke="#000000"
   stroke-miterlimit="10"
   x1="160.603"
   y1="178.447"
   x2="285.326"
   y2="178.447"
   id="line220" />
<g
   id="g252"
   style="fill:#0000ff">
	<path
   d="m 180.872,161.966 c 0.637,-0.096 1.393,-0.168 2.219,-0.168 1.5,0 2.568,0.348 3.275,1.008 0.719,0.66 1.139,1.596 1.139,2.902 0,1.319 -0.408,2.398 -1.162,3.143 -0.756,0.756 -2.004,1.163 -3.574,1.163 -0.744,0 -1.367,-0.036 -1.896,-0.096 v -7.952 z m 1.045,7.149 c 0.264,0.048 0.646,0.061 1.055,0.061 2.23,0 3.441,-1.248 3.441,-3.431 0.014,-1.907 -1.066,-3.118 -3.273,-3.118 -0.539,0 -0.947,0.048 -1.223,0.107 z"
   id="path222"
   inkscape:connector-curvature="0"
   style="fill:#0000ff" />
	<path
   d="m 192.044,169.943 -0.084,-0.732 h -0.037 c -0.322,0.456 -0.947,0.863 -1.775,0.863 -1.174,0 -1.773,-0.827 -1.773,-1.666 0,-1.404 1.246,-2.172 3.49,-2.159 v -0.12 c 0,-0.479 -0.133,-1.344 -1.32,-1.344 -0.539,0 -1.104,0.168 -1.512,0.432 l -0.238,-0.695 c 0.479,-0.312 1.174,-0.516 1.906,-0.516 1.775,0 2.207,1.211 2.207,2.375 v 2.171 c 0,0.503 0.023,0.995 0.096,1.392 h -0.96 z m -0.156,-2.963 c -1.152,-0.023 -2.459,0.18 -2.459,1.307 0,0.684 0.455,1.008 0.996,1.008 0.756,0 1.234,-0.479 1.402,-0.971 0.037,-0.108 0.061,-0.229 0.061,-0.336 z"
   id="path224"
   inkscape:connector-curvature="0"
   style="fill:#0000ff" />
	<path
   d="m 195.835,162.47 v 1.668 h 1.512 v 0.803 h -1.512 v 3.131 c 0,0.719 0.205,1.127 0.793,1.127 0.275,0 0.479,-0.036 0.611,-0.072 l 0.047,0.792 c -0.203,0.084 -0.527,0.144 -0.936,0.144 -0.49,0 -0.887,-0.156 -1.139,-0.443 -0.299,-0.313 -0.408,-0.828 -0.408,-1.512 v -3.166 h -0.898 v -0.803 h 0.898 v -1.392 z"
   id="path226"
   inkscape:connector-curvature="0"
   style="fill:#0000ff" />
	<path
   d="m 201.751,169.943 -0.084,-0.732 h -0.037 c -0.322,0.456 -0.947,0.863 -1.775,0.863 -1.174,0 -1.773,-0.827 -1.773,-1.666 0,-1.404 1.246,-2.172 3.49,-2.159 v -0.12 c 0,-0.479 -0.133,-1.344 -1.32,-1.344 -0.539,0 -1.104,0.168 -1.512,0.432 l -0.238,-0.695 c 0.479,-0.312 1.174,-0.516 1.906,-0.516 1.775,0 2.207,1.211 2.207,2.375 v 2.171 c 0,0.503 0.023,0.995 0.096,1.392 h -0.96 z m -0.156,-2.963 c -1.152,-0.023 -2.459,0.18 -2.459,1.307 0,0.684 0.455,1.008 0.996,1.008 0.756,0 1.234,-0.479 1.402,-0.971 0.037,-0.108 0.061,-0.229 0.061,-0.336 z"
   id="path228"
   inkscape:connector-curvature="0"
   style="fill:#0000ff" />
	<path
   d="m 205.4,161.859 v 8.084 h -1.043 v -8.084 z"
   id="path230"
   inkscape:connector-curvature="0"
   style="fill:#0000ff" />
	<path
   d="m 207.31,165.708 c 0,-0.6 -0.014,-1.092 -0.049,-1.57 h 0.936 l 0.061,0.959 h 0.023 c 0.287,-0.552 0.959,-1.092 1.918,-1.092 0.805,0 2.051,0.48 2.051,2.471 v 3.467 h -1.055 v -3.347 c 0,-0.936 -0.348,-1.715 -1.344,-1.715 -0.695,0 -1.234,0.491 -1.414,1.079 -0.049,0.132 -0.072,0.313 -0.072,0.492 v 3.49 h -1.055 z"
   id="path232"
   inkscape:connector-curvature="0"
   style="fill:#0000ff" />
	<path
   d="m 213.97,166.032 c 0,-0.744 -0.025,-1.344 -0.049,-1.895 h 0.947 l 0.049,0.994 h 0.023 c 0.432,-0.707 1.115,-1.127 2.063,-1.127 1.404,0 2.459,1.188 2.459,2.951 0,2.086 -1.271,3.117 -2.639,3.117 -0.768,0 -1.439,-0.336 -1.787,-0.911 h -0.023 v 3.154 h -1.043 z m 1.043,1.547 c 0,0.156 0.023,0.3 0.047,0.432 0.193,0.732 0.828,1.235 1.584,1.235 1.115,0 1.764,-0.911 1.764,-2.243 0,-1.162 -0.613,-2.158 -1.729,-2.158 -0.719,0 -1.391,0.516 -1.594,1.307 -0.037,0.133 -0.072,0.289 -0.072,0.433 z"
   id="path234"
   inkscape:connector-curvature="0"
   style="fill:#0000ff" />
	<path
   d="m 225.654,168.359 c 0,0.6 0.012,1.128 0.049,1.584 h -0.936 l -0.061,-0.947 h -0.023 c -0.277,0.467 -0.889,1.078 -1.92,1.078 -0.912,0 -2.002,-0.503 -2.002,-2.542 v -3.394 h 1.055 v 3.214 c 0,1.103 0.336,1.847 1.295,1.847 0.707,0 1.199,-0.492 1.391,-0.959 0.061,-0.156 0.098,-0.348 0.098,-0.54 v -3.562 h 1.055 v 4.221 z"
   id="path236"
   inkscape:connector-curvature="0"
   style="fill:#0000ff" />
	<path
   d="m 228.679,162.47 v 1.668 h 1.512 v 0.803 h -1.512 v 3.131 c 0,0.719 0.205,1.127 0.793,1.127 0.275,0 0.479,-0.036 0.611,-0.072 l 0.047,0.792 c -0.203,0.084 -0.527,0.144 -0.936,0.144 -0.49,0 -0.887,-0.156 -1.139,-0.443 -0.299,-0.313 -0.408,-0.828 -0.408,-1.512 v -3.166 h -0.898 v -0.803 h 0.898 v -1.392 z"
   id="path238"
   inkscape:connector-curvature="0"
   style="fill:#0000ff" />
	<path
   d="m 231.273,168.671 c 0.467,0.287 1.15,0.527 1.871,0.527 1.066,0 1.691,-0.563 1.691,-1.379 0,-0.756 -0.434,-1.188 -1.523,-1.607 -1.32,-0.468 -2.135,-1.151 -2.135,-2.291 0,-1.259 1.043,-2.194 2.613,-2.194 0.828,0 1.428,0.192 1.787,0.396 l -0.287,0.852 c -0.264,-0.145 -0.805,-0.384 -1.535,-0.384 -1.104,0 -1.523,0.659 -1.523,1.212 0,0.755 0.492,1.127 1.607,1.559 1.367,0.527 2.063,1.188 2.063,2.375 0,1.247 -0.924,2.326 -2.83,2.326 -0.779,0 -1.631,-0.228 -2.063,-0.516 z"
   id="path240"
   inkscape:connector-curvature="0"
   style="fill:#0000ff" />
	<path
   d="m 238.531,162.47 v 1.668 h 1.512 v 0.803 h -1.512 v 3.131 c 0,0.719 0.205,1.127 0.793,1.127 0.275,0 0.479,-0.036 0.611,-0.072 l 0.047,0.792 c -0.203,0.084 -0.527,0.144 -0.936,0.144 -0.49,0 -0.887,-0.156 -1.139,-0.443 -0.299,-0.313 -0.408,-0.828 -0.408,-1.512 v -3.166 h -0.898 v -0.803 h 0.898 v -1.392 z"
   id="path242"
   inkscape:connector-curvature="0"
   style="fill:#0000ff" />
	<path
   d="m 241.234,165.948 c 0,-0.684 -0.014,-1.271 -0.049,-1.811 h 0.924 l 0.035,1.139 h 0.049 c 0.264,-0.779 0.898,-1.271 1.607,-1.271 0.119,0 0.203,0.012 0.299,0.036 v 0.995 c -0.107,-0.023 -0.215,-0.035 -0.359,-0.035 -0.744,0 -1.271,0.563 -1.416,1.355 -0.023,0.144 -0.047,0.311 -0.047,0.491 v 3.095 h -1.043 z"
   id="path244"
   inkscape:connector-curvature="0"
   style="fill:#0000ff" />
	<path
   d="m 245.624,167.232 c 0.023,1.428 0.936,2.015 1.99,2.015 0.756,0 1.211,-0.132 1.607,-0.3 l 0.18,0.756 c -0.371,0.168 -1.008,0.359 -1.93,0.359 -1.787,0 -2.855,-1.175 -2.855,-2.926 0,-1.752 1.031,-3.131 2.723,-3.131 1.895,0 2.398,1.668 2.398,2.734 0,0.217 -0.023,0.385 -0.035,0.492 h -4.078 z m 3.094,-0.756 c 0.012,-0.672 -0.275,-1.715 -1.463,-1.715 -1.066,0 -1.535,0.983 -1.619,1.715 z"
   id="path246"
   inkscape:connector-curvature="0"
   style="fill:#0000ff" />
	<path
   d="m 254.263,169.943 -0.084,-0.732 h -0.037 c -0.322,0.456 -0.947,0.863 -1.775,0.863 -1.174,0 -1.773,-0.827 -1.773,-1.666 0,-1.404 1.246,-2.172 3.49,-2.159 v -0.12 c 0,-0.479 -0.133,-1.344 -1.32,-1.344 -0.539,0 -1.104,0.168 -1.512,0.432 l -0.238,-0.695 c 0.479,-0.312 1.174,-0.516 1.906,-0.516 1.775,0 2.207,1.211 2.207,2.375 v 2.171 c 0,0.503 0.023,0.995 0.096,1.392 h -0.96 z m -0.156,-2.963 c -1.152,-0.023 -2.459,0.18 -2.459,1.307 0,0.684 0.455,1.008 0.996,1.008 0.756,0 1.234,-0.479 1.402,-0.971 0.037,-0.108 0.061,-0.229 0.061,-0.336 z"
   id="path248"
   inkscape:connector-curvature="0"
   style="fill:#0000ff" />
	<path
   d="m 256.833,165.708 c 0,-0.6 -0.014,-1.092 -0.049,-1.57 h 0.924 l 0.047,0.936 h 0.037 c 0.324,-0.553 0.863,-1.068 1.822,-1.068 0.791,0 1.391,0.48 1.643,1.164 h 0.025 c 0.18,-0.324 0.406,-0.576 0.646,-0.756 0.348,-0.264 0.732,-0.408 1.283,-0.408 0.768,0 1.908,0.504 1.908,2.52 v 3.418 h -1.031 v -3.287 c 0,-1.115 -0.408,-1.787 -1.26,-1.787 -0.6,0 -1.068,0.444 -1.248,0.96 -0.047,0.144 -0.084,0.336 -0.084,0.528 v 3.586 h -1.031 v -3.479 c 0,-0.924 -0.408,-1.596 -1.211,-1.596 -0.66,0 -1.139,0.528 -1.307,1.057 -0.061,0.155 -0.084,0.335 -0.084,0.516 v 3.502 h -1.031 v -4.236 z"
   id="path250"
   inkscape:connector-curvature="0"
   style="fill:#0000ff" />
</g>
<line
   fill="none"
   stroke="#000000"
   stroke-miterlimit="10"
   x1="160.603"
   y1="133.091"
   x2="146.43"
   y2="133.091"
   id="line254" />
<rect
   x="137.925"
   y="82.067"
   fill="none"
   stroke="#000000"
   stroke-miterlimit="10"
   width="124.725"
   height="22.678"
   id="rect256" />
<line
   fill="none"
   stroke="#000000"
   stroke-miterlimit="10"
   x1="137.925"
   y1="99.075"
   x2="262.65"
   y2="99.075"
   id="line258" />
<line
   fill="none"
   stroke="#000000"
   stroke-miterlimit="10"
   x1="137.925"
   y1="101.911"
   x2="262.65"
   y2="101.911"
   id="line260" />
<g
   id="g296">
	<path
   d="m 157.433,85.323 h 4.354 v 0.875 h -3.309 v 2.687 h 3.059 v 0.863 h -3.059 v 3.658 h -1.045 z"
   id="path262"
   inkscape:connector-curvature="0" />
	<path
   d="m 164.105,85.97 c 0.012,0.36 -0.252,0.648 -0.672,0.648 -0.371,0 -0.635,-0.288 -0.635,-0.648 0,-0.372 0.275,-0.66 0.66,-0.66 0.395,0.001 0.647,0.289 0.647,0.66 z m -1.174,7.436 v -5.805 h 1.055 v 5.805 z"
   id="path264"
   inkscape:connector-curvature="0" />
	<path
   d="m 165.738,84.891 h 1.055 v 8.515 h -1.055 z"
   id="path266"
   inkscape:connector-curvature="0" />
	<path
   d="m 169.841,85.935 v 1.667 h 1.512 v 0.803 h -1.512 v 3.13 c 0,0.72 0.203,1.127 0.791,1.127 0.275,0 0.48,-0.036 0.611,-0.072 l 0.049,0.792 c -0.203,0.084 -0.527,0.144 -0.936,0.144 -0.492,0 -0.887,-0.156 -1.139,-0.444 -0.301,-0.312 -0.408,-0.828 -0.408,-1.511 v -3.167 h -0.9 v -0.803 h 0.9 V 86.21 Z"
   id="path268"
   inkscape:connector-curvature="0" />
	<path
   d="m 173.058,90.696 c 0.023,1.427 0.936,2.015 1.99,2.015 0.756,0 1.211,-0.132 1.607,-0.3 l 0.18,0.756 c -0.371,0.168 -1.008,0.36 -1.93,0.36 -1.787,0 -2.855,-1.175 -2.855,-2.927 0,-1.751 1.031,-3.13 2.723,-3.13 1.895,0 2.398,1.667 2.398,2.734 0,0.216 -0.023,0.384 -0.035,0.492 z m 3.094,-0.756 c 0.012,-0.671 -0.275,-1.715 -1.463,-1.715 -1.066,0 -1.535,0.983 -1.619,1.715 z"
   id="path270"
   inkscape:connector-curvature="0" />
	<path
   d="m 178.482,89.413 c 0,-0.684 -0.012,-1.271 -0.049,-1.811 h 0.924 l 0.037,1.139 h 0.047 c 0.264,-0.779 0.9,-1.271 1.607,-1.271 0.121,0 0.205,0.012 0.301,0.036 v 0.996 c -0.109,-0.024 -0.217,-0.036 -0.361,-0.036 -0.742,0 -1.27,0.564 -1.414,1.355 -0.023,0.144 -0.049,0.312 -0.049,0.492 v 3.094 h -1.043 z"
   id="path272"
   inkscape:connector-curvature="0" />
	<path
   d="m 183.486,85.323 v 8.083 h -1.045 v -8.083 z"
   id="path274"
   inkscape:connector-curvature="0" />
	<path
   d="m 185.394,89.173 c 0,-0.6 -0.012,-1.091 -0.049,-1.571 h 0.936 l 0.061,0.959 h 0.023 c 0.289,-0.552 0.961,-1.091 1.92,-1.091 0.803,0 2.051,0.479 2.051,2.47 v 3.466 h -1.055 V 90.06 c 0,-0.936 -0.348,-1.715 -1.344,-1.715 -0.695,0 -1.236,0.492 -1.416,1.079 -0.047,0.132 -0.072,0.312 -0.072,0.492 v 3.49 h -1.055 z"
   id="path276"
   inkscape:connector-curvature="0" />
	<path
   d="m 192.054,89.497 c 0,-0.744 -0.025,-1.343 -0.049,-1.895 h 0.947 l 0.049,0.995 h 0.023 c 0.432,-0.708 1.115,-1.127 2.063,-1.127 1.404,0 2.459,1.187 2.459,2.95 0,2.087 -1.271,3.118 -2.639,3.118 -0.768,0 -1.439,-0.336 -1.787,-0.912 h -0.023 v 3.154 h -1.043 z m 1.043,1.547 c 0,0.156 0.023,0.3 0.047,0.432 0.193,0.732 0.828,1.235 1.584,1.235 1.115,0 1.764,-0.911 1.764,-2.243 0,-1.163 -0.613,-2.159 -1.729,-2.159 -0.719,0 -1.391,0.516 -1.594,1.307 -0.037,0.132 -0.072,0.288 -0.072,0.432 z"
   id="path278"
   inkscape:connector-curvature="0" />
	<path
   d="m 203.738,91.823 c 0,0.6 0.014,1.127 0.049,1.583 h -0.936 l -0.061,-0.947 h -0.023 c -0.275,0.467 -0.887,1.079 -1.918,1.079 -0.912,0 -2.004,-0.503 -2.004,-2.542 v -3.394 h 1.055 v 3.214 c 0,1.103 0.336,1.847 1.297,1.847 0.707,0 1.199,-0.492 1.391,-0.959 0.061,-0.156 0.096,-0.348 0.096,-0.54 v -3.562 h 1.055 v 4.221 z"
   id="path280"
   inkscape:connector-curvature="0" />
	<path
   d="m 206.765,85.935 v 1.667 h 1.512 v 0.803 h -1.512 v 3.13 c 0,0.72 0.203,1.127 0.791,1.127 0.275,0 0.48,-0.036 0.611,-0.072 l 0.049,0.792 c -0.203,0.084 -0.527,0.144 -0.936,0.144 -0.492,0 -0.887,-0.156 -1.139,-0.444 -0.301,-0.312 -0.408,-0.828 -0.408,-1.511 v -3.167 h -0.9 v -0.803 h 0.9 V 86.21 Z"
   id="path282"
   inkscape:connector-curvature="0" />
	<path
   d="m 209.357,92.135 c 0.469,0.288 1.152,0.528 1.871,0.528 1.068,0 1.691,-0.563 1.691,-1.379 0,-0.755 -0.432,-1.187 -1.523,-1.607 -1.318,-0.468 -2.135,-1.151 -2.135,-2.291 0,-1.259 1.043,-2.195 2.615,-2.195 0.826,0 1.428,0.192 1.787,0.396 l -0.289,0.852 c -0.264,-0.144 -0.803,-0.384 -1.535,-0.384 -1.104,0 -1.521,0.66 -1.521,1.211 0,0.755 0.49,1.127 1.605,1.559 1.367,0.528 2.064,1.188 2.064,2.375 0,1.247 -0.924,2.327 -2.832,2.327 -0.779,0 -1.631,-0.228 -2.063,-0.516 z"
   id="path284"
   inkscape:connector-curvature="0" />
	<path
   d="m 216.616,85.935 v 1.667 h 1.512 v 0.803 h -1.512 v 3.13 c 0,0.72 0.203,1.127 0.791,1.127 0.275,0 0.48,-0.036 0.611,-0.072 l 0.049,0.792 c -0.203,0.084 -0.527,0.144 -0.936,0.144 -0.492,0 -0.887,-0.156 -1.139,-0.444 -0.301,-0.312 -0.408,-0.828 -0.408,-1.511 v -3.167 h -0.9 v -0.803 h 0.9 V 86.21 Z"
   id="path286"
   inkscape:connector-curvature="0" />
	<path
   d="m 219.318,89.413 c 0,-0.684 -0.014,-1.271 -0.049,-1.811 h 0.924 l 0.035,1.139 h 0.049 c 0.264,-0.779 0.898,-1.271 1.607,-1.271 0.119,0 0.203,0.012 0.299,0.036 v 0.996 c -0.107,-0.024 -0.215,-0.036 -0.359,-0.036 -0.744,0 -1.271,0.564 -1.416,1.355 -0.023,0.144 -0.047,0.312 -0.047,0.492 v 3.094 h -1.043 z"
   id="path288"
   inkscape:connector-curvature="0" />
	<path
   d="m 223.708,90.696 c 0.025,1.427 0.936,2.015 1.992,2.015 0.756,0 1.211,-0.132 1.607,-0.3 l 0.18,0.756 c -0.373,0.168 -1.008,0.36 -1.932,0.36 -1.787,0 -2.854,-1.175 -2.854,-2.927 0,-1.751 1.031,-3.13 2.723,-3.13 1.895,0 2.398,1.667 2.398,2.734 0,0.216 -0.025,0.384 -0.037,0.492 z m 3.096,-0.756 c 0.012,-0.671 -0.277,-1.715 -1.463,-1.715 -1.068,0 -1.535,0.983 -1.619,1.715 z"
   id="path290"
   inkscape:connector-curvature="0" />
	<path
   d="m 232.347,93.406 -0.084,-0.731 h -0.035 c -0.324,0.456 -0.947,0.863 -1.775,0.863 -1.176,0 -1.775,-0.828 -1.775,-1.667 0,-1.403 1.248,-2.171 3.49,-2.159 v -0.12 c 0,-0.479 -0.131,-1.343 -1.318,-1.343 -0.541,0 -1.104,0.168 -1.512,0.432 l -0.24,-0.695 c 0.48,-0.312 1.176,-0.516 1.906,-0.516 1.775,0 2.207,1.211 2.207,2.375 v 2.171 c 0,0.503 0.025,0.995 0.096,1.391 h -0.96 z m -0.156,-2.962 c -1.15,-0.024 -2.457,0.18 -2.457,1.307 0,0.684 0.455,1.008 0.994,1.008 0.756,0 1.236,-0.48 1.404,-0.972 0.035,-0.108 0.059,-0.228 0.059,-0.336 z"
   id="path292"
   inkscape:connector-curvature="0" />
	<path
   d="m 234.917,89.173 c 0,-0.6 -0.012,-1.091 -0.049,-1.571 h 0.924 l 0.049,0.936 h 0.035 c 0.324,-0.552 0.863,-1.067 1.824,-1.067 0.791,0 1.391,0.479 1.643,1.163 h 0.023 c 0.18,-0.324 0.408,-0.576 0.648,-0.755 0.348,-0.264 0.73,-0.408 1.283,-0.408 0.768,0 1.906,0.503 1.906,2.519 v 3.418 h -1.031 V 90.12 c 0,-1.115 -0.408,-1.787 -1.26,-1.787 -0.6,0 -1.066,0.444 -1.246,0.959 -0.049,0.144 -0.084,0.336 -0.084,0.528 v 3.586 h -1.031 v -3.478 c 0,-0.923 -0.408,-1.595 -1.213,-1.595 -0.658,0 -1.139,0.528 -1.307,1.056 -0.061,0.156 -0.084,0.335 -0.084,0.516 v 3.502 h -1.031 v -4.234 z"
   id="path294"
   inkscape:connector-curvature="0" />
</g>
<line
   fill="none"
   stroke="#000000"
   stroke-miterlimit="10"
   x1="137.926"
   y1="90.572"
   x2="123.752"
   y2="90.572"
   id="line298" />
</svg>