<?xml version="1.0" encoding="utf-8"?>
<!-- Generator: Adobe Illustrator 16.0.3, SVG Export Plug-In . SVG Version: 6.00 Build 0)  -->
<!DOCTYPE svg PUBLIC "-//W3C//DTD SVG 1.1//EN" "http://www.w3.org/Graphics/SVG/1.1/DTD/svg11.dtd">
<svg version="1.1" id="Layer_1" xmlns="http://www.w3.org/2000/svg" xmlns:xlink="http://www.w3.org/1999/xlink" x="0px" y="0px"
	 width="334.488px" height="220.965px" viewBox="-43.492 0 334.488 220.965" enable-background="new -43.492 0 334.488 220.965"
	 xml:space="preserve">
<polygon fill="none" stroke="#000000" stroke-miterlimit="10" points="132.256,45.45 123.752,30.722 115.248,45.45 "/>
<polygon fill="none" stroke="#000000" stroke-miterlimit="10" points="154.935,121.752 146.431,107.023 137.925,121.752 "/>
<polyline fill="none" stroke="#000000" stroke-miterlimit="10" points="109.579,104.744 123.752,104.744 123.752,45.45 "/>
<polyline fill="none" stroke="#000000" stroke-miterlimit="10" points="146.431,121.752 146.431,201.122 160.603,201.122 "/>
<g>
	<path d="M95.692,12.745c0,2.782-1.69,4.257-3.754,4.257c-2.135,0-3.634-1.655-3.634-4.102c0-2.567,1.596-4.246,3.754-4.246
		C94.265,8.655,95.692,10.346,95.692,12.745z M89.419,12.877c0,1.727,0.936,3.274,2.579,3.274c1.655,0,2.59-1.523,2.59-3.358
		c0-1.607-0.839-3.286-2.578-3.286C90.283,9.507,89.419,11.101,89.419,12.877z"/>
	<path d="M101.908,15.287c0,0.6,0.013,1.127,0.049,1.583h-0.936l-0.061-0.947h-0.023c-0.276,0.467-0.888,1.079-1.919,1.079
		c-0.912,0-2.003-0.503-2.003-2.542v-3.394h1.055v3.214c0,1.103,0.336,1.847,1.296,1.847c0.707,0,1.199-0.492,1.391-0.959
		c0.061-0.156,0.097-0.348,0.097-0.54v-3.562h1.055V15.287z"/>
	<path d="M104.935,9.399v1.667h1.512v0.803h-1.512v3.13c0,0.72,0.204,1.127,0.792,1.127c0.275,0,0.479-0.036,0.611-0.072
		l0.048,0.792c-0.203,0.084-0.527,0.144-0.936,0.144c-0.491,0-0.887-0.156-1.139-0.444c-0.3-0.312-0.408-0.828-0.408-1.511v-3.167
		h-0.899v-0.803h0.899V9.675L104.935,9.399z"/>
	<path d="M107.636,12.961c0-0.744-0.024-1.343-0.049-1.895h0.948l0.048,0.995h0.023c0.432-0.708,1.115-1.127,2.063-1.127
		c1.403,0,2.458,1.187,2.458,2.95c0,2.087-1.271,3.118-2.639,3.118c-0.768,0-1.438-0.336-1.786-0.912h-0.024v3.154h-1.043V12.961z
		 M108.679,14.508c0,0.156,0.024,0.3,0.048,0.432c0.192,0.732,0.828,1.235,1.583,1.235c1.115,0,1.764-0.911,1.764-2.243
		c0-1.163-0.612-2.159-1.728-2.159c-0.72,0-1.392,0.516-1.595,1.307c-0.036,0.132-0.072,0.288-0.072,0.432V14.508z"/>
	<path d="M119.321,15.287c0,0.6,0.013,1.127,0.049,1.583h-0.936l-0.061-0.947h-0.023c-0.276,0.467-0.888,1.079-1.919,1.079
		c-0.912,0-2.003-0.503-2.003-2.542v-3.394h1.055v3.214c0,1.103,0.336,1.847,1.296,1.847c0.707,0,1.199-0.492,1.391-0.959
		c0.061-0.156,0.097-0.348,0.097-0.54v-3.562h1.055V15.287z"/>
	<path d="M122.346,9.399v1.667h1.512v0.803h-1.512v3.13c0,0.72,0.204,1.127,0.792,1.127c0.275,0,0.479-0.036,0.611-0.072
		l0.048,0.792c-0.203,0.084-0.527,0.144-0.936,0.144c-0.491,0-0.887-0.156-1.139-0.444c-0.3-0.312-0.408-0.828-0.408-1.511v-3.167
		h-0.899v-0.803h0.899V9.675L122.346,9.399z"/>
	<path d="M124.94,15.599c0.468,0.288,1.151,0.528,1.871,0.528c1.067,0,1.691-0.563,1.691-1.379c0-0.755-0.433-1.187-1.523-1.607
		c-1.319-0.468-2.135-1.151-2.135-2.291c0-1.259,1.043-2.195,2.614-2.195c0.827,0,1.428,0.192,1.787,0.396l-0.288,0.852
		c-0.264-0.144-0.804-0.384-1.535-0.384c-1.104,0-1.523,0.66-1.523,1.211c0,0.755,0.492,1.127,1.607,1.559
		c1.367,0.528,2.063,1.188,2.063,2.375c0,1.247-0.924,2.327-2.831,2.327c-0.779,0-1.631-0.228-2.063-0.516L124.94,15.599z"/>
	<path d="M132.198,9.399v1.667h1.512v0.803h-1.512v3.13c0,0.72,0.204,1.127,0.792,1.127c0.275,0,0.479-0.036,0.611-0.072
		l0.048,0.792c-0.203,0.084-0.527,0.144-0.936,0.144c-0.491,0-0.887-0.156-1.139-0.444c-0.3-0.312-0.408-0.828-0.408-1.511v-3.167
		h-0.899v-0.803h0.899V9.675L132.198,9.399z"/>
	<path d="M134.9,12.877c0-0.684-0.013-1.271-0.049-1.811h0.924l0.036,1.139h0.048c0.264-0.779,0.899-1.271,1.607-1.271
		c0.12,0,0.204,0.012,0.3,0.036v0.996c-0.108-0.024-0.216-0.036-0.36-0.036c-0.743,0-1.271,0.564-1.415,1.355
		c-0.023,0.144-0.048,0.312-0.048,0.492v3.094H134.9V12.877z"/>
	<path d="M139.29,14.16c0.024,1.427,0.936,2.015,1.991,2.015c0.756,0,1.211-0.132,1.607-0.3l0.18,0.756
		c-0.372,0.168-1.008,0.36-1.931,0.36c-1.787,0-2.854-1.175-2.854-2.927c0-1.751,1.031-3.13,2.723-3.13
		c1.895,0,2.398,1.667,2.398,2.734c0,0.216-0.024,0.384-0.036,0.492H139.29z M142.385,13.404c0.012-0.671-0.276-1.715-1.463-1.715
		c-1.067,0-1.535,0.983-1.619,1.715H142.385z"/>
	<path d="M147.93,16.87l-0.084-0.731h-0.036c-0.323,0.456-0.947,0.863-1.775,0.863c-1.175,0-1.774-0.828-1.774-1.667
		c0-1.403,1.247-2.171,3.49-2.159v-0.12c0-0.479-0.132-1.343-1.319-1.343c-0.54,0-1.104,0.168-1.512,0.432l-0.239-0.695
		c0.479-0.312,1.175-0.516,1.906-0.516c1.775,0,2.207,1.211,2.207,2.375v2.171c0,0.503,0.024,0.995,0.096,1.391H147.93z
		 M147.774,13.908c-1.151-0.024-2.458,0.18-2.458,1.307c0,0.684,0.455,1.008,0.995,1.008c0.756,0,1.235-0.48,1.403-0.972
		c0.036-0.108,0.06-0.228,0.06-0.336V13.908z"/>
	<path d="M150.499,12.636c0-0.6-0.013-1.091-0.049-1.571h0.924l0.048,0.936h0.036c0.324-0.552,0.863-1.067,1.823-1.067
		c0.791,0,1.391,0.479,1.643,1.163h0.024c0.18-0.324,0.407-0.576,0.647-0.755c0.348-0.264,0.731-0.408,1.283-0.408
		c0.768,0,1.907,0.503,1.907,2.519v3.418h-1.031v-3.286c0-1.115-0.408-1.787-1.26-1.787c-0.6,0-1.067,0.444-1.247,0.959
		c-0.048,0.144-0.084,0.336-0.084,0.528v3.586h-1.031v-3.478c0-0.923-0.408-1.595-1.212-1.595c-0.659,0-1.139,0.528-1.307,1.056
		c-0.061,0.156-0.084,0.335-0.084,0.516v3.502h-1.031V12.636z"/>
</g>
<g>
	<path d="M0.822,65.48h4.354v0.875h-3.31v2.687h3.059v0.863H1.865v3.658H0.822V65.48z"/>
	<path d="M7.493,66.127c0.012,0.36-0.252,0.648-0.672,0.648c-0.371,0-0.636-0.288-0.636-0.648c0-0.372,0.276-0.66,0.66-0.66
		C7.241,65.468,7.493,65.756,7.493,66.127z M6.319,73.563v-5.805h1.055v5.805H6.319z"/>
	<path d="M9.126,65.048h1.055v8.515H9.126V65.048z"/>
	<path d="M12.545,70.853c0.024,1.427,0.936,2.015,1.991,2.015c0.756,0,1.211-0.132,1.607-0.3l0.18,0.756
		c-0.372,0.168-1.008,0.36-1.931,0.36c-1.787,0-2.854-1.175-2.854-2.927c0-1.751,1.031-3.13,2.723-3.13
		c1.895,0,2.398,1.667,2.398,2.734c0,0.216-0.024,0.384-0.036,0.492H12.545z M15.64,70.097c0.012-0.671-0.276-1.715-1.463-1.715
		c-1.067,0-1.535,0.983-1.619,1.715H15.64z"/>
	<path d="M24.913,69.438c0,2.782-1.69,4.257-3.754,4.257c-2.135,0-3.634-1.655-3.634-4.102c0-2.567,1.596-4.246,3.754-4.246
		C23.487,65.348,24.913,67.039,24.913,69.438z M18.641,69.57c0,1.727,0.936,3.274,2.579,3.274c1.655,0,2.59-1.523,2.59-3.358
		c0-1.607-0.839-3.286-2.578-3.286C19.505,66.199,18.641,67.794,18.641,69.57z"/>
	<path d="M31.13,71.98c0,0.6,0.013,1.127,0.049,1.583h-0.936l-0.061-0.947h-0.023c-0.276,0.467-0.888,1.079-1.919,1.079
		c-0.912,0-2.003-0.503-2.003-2.542v-3.394h1.055v3.214c0,1.103,0.336,1.847,1.296,1.847c0.707,0,1.199-0.492,1.391-0.959
		c0.061-0.156,0.097-0.348,0.097-0.54v-3.562h1.055V71.98z"/>
	<path d="M34.156,66.092v1.667h1.512v0.803h-1.512v3.13c0,0.72,0.204,1.127,0.792,1.127c0.275,0,0.479-0.036,0.611-0.072
		l0.048,0.792c-0.203,0.084-0.527,0.144-0.936,0.144c-0.491,0-0.887-0.156-1.139-0.444c-0.3-0.312-0.408-0.828-0.408-1.511v-3.167
		h-0.899v-0.803h0.899v-1.391L34.156,66.092z"/>
	<path d="M36.858,69.654c0-0.744-0.024-1.343-0.049-1.895h0.948l0.048,0.995h0.023c0.432-0.708,1.115-1.127,2.063-1.127
		c1.403,0,2.458,1.187,2.458,2.95c0,2.087-1.271,3.118-2.639,3.118c-0.768,0-1.438-0.336-1.786-0.912h-0.024v3.154h-1.043V69.654z
		 M37.901,71.2c0,0.156,0.024,0.3,0.048,0.432c0.192,0.732,0.828,1.235,1.583,1.235c1.115,0,1.764-0.911,1.764-2.243
		c0-1.163-0.612-2.159-1.728-2.159c-0.72,0-1.392,0.516-1.595,1.307c-0.036,0.132-0.072,0.288-0.072,0.432V71.2z"/>
	<path d="M48.542,71.98c0,0.6,0.013,1.127,0.049,1.583h-0.936l-0.061-0.947h-0.023c-0.276,0.467-0.888,1.079-1.919,1.079
		c-0.912,0-2.003-0.503-2.003-2.542v-3.394h1.055v3.214c0,1.103,0.336,1.847,1.296,1.847c0.707,0,1.199-0.492,1.391-0.959
		c0.061-0.156,0.097-0.348,0.097-0.54v-3.562h1.055V71.98z"/>
	<path d="M51.569,66.092v1.667h1.512v0.803h-1.512v3.13c0,0.72,0.204,1.127,0.792,1.127c0.275,0,0.479-0.036,0.611-0.072
		l0.048,0.792c-0.203,0.084-0.527,0.144-0.936,0.144c-0.491,0-0.887-0.156-1.139-0.444c-0.3-0.312-0.408-0.828-0.408-1.511v-3.167
		h-0.899v-0.803h0.899v-1.391L51.569,66.092z"/>
	<path d="M54.161,72.292c0.468,0.288,1.151,0.528,1.871,0.528c1.067,0,1.691-0.563,1.691-1.379c0-0.755-0.433-1.187-1.523-1.607
		c-1.319-0.468-2.135-1.151-2.135-2.291c0-1.259,1.043-2.195,2.614-2.195c0.827,0,1.428,0.192,1.787,0.396l-0.288,0.852
		c-0.264-0.144-0.804-0.384-1.535-0.384c-1.104,0-1.523,0.66-1.523,1.211c0,0.755,0.492,1.127,1.607,1.559
		c1.367,0.528,2.063,1.188,2.063,2.375c0,1.247-0.924,2.327-2.831,2.327c-0.779,0-1.631-0.228-2.063-0.516L54.161,72.292z"/>
	<path d="M61.42,66.092v1.667h1.512v0.803H61.42v3.13c0,0.72,0.204,1.127,0.792,1.127c0.275,0,0.479-0.036,0.611-0.072l0.048,0.792
		c-0.203,0.084-0.527,0.144-0.936,0.144c-0.491,0-0.887-0.156-1.139-0.444c-0.3-0.312-0.408-0.828-0.408-1.511v-3.167H59.49v-0.803
		h0.899v-1.391L61.42,66.092z"/>
	<path d="M64.121,69.57c0-0.684-0.013-1.271-0.049-1.811h0.924l0.036,1.139h0.048c0.264-0.779,0.899-1.271,1.607-1.271
		c0.12,0,0.204,0.012,0.3,0.036v0.996c-0.108-0.024-0.216-0.036-0.36-0.036c-0.743,0-1.271,0.564-1.415,1.355
		c-0.023,0.144-0.048,0.312-0.048,0.492v3.094h-1.043V69.57z"/>
	<path d="M68.513,70.853c0.024,1.427,0.936,2.015,1.991,2.015c0.756,0,1.211-0.132,1.607-0.3l0.18,0.756
		c-0.372,0.168-1.008,0.36-1.931,0.36c-1.787,0-2.854-1.175-2.854-2.927c0-1.751,1.031-3.13,2.723-3.13
		c1.895,0,2.398,1.667,2.398,2.734c0,0.216-0.024,0.384-0.036,0.492H68.513z M71.608,70.097c0.012-0.671-0.276-1.715-1.463-1.715
		c-1.067,0-1.535,0.983-1.619,1.715H71.608z"/>
	<path d="M77.152,73.563l-0.084-0.731h-0.036c-0.323,0.456-0.947,0.863-1.775,0.863c-1.175,0-1.774-0.828-1.774-1.667
		c0-1.403,1.247-2.171,3.49-2.159v-0.12c0-0.479-0.132-1.343-1.319-1.343c-0.54,0-1.104,0.168-1.512,0.432l-0.239-0.695
		c0.479-0.312,1.175-0.516,1.906-0.516c1.775,0,2.207,1.211,2.207,2.375v2.171c0,0.503,0.024,0.995,0.096,1.391H77.152z
		 M76.995,70.601c-1.151-0.024-2.458,0.18-2.458,1.307c0,0.684,0.455,1.008,0.995,1.008c0.756,0,1.235-0.48,1.403-0.972
		c0.036-0.108,0.06-0.228,0.06-0.336V70.601z"/>
	<path d="M79.722,69.329c0-0.6-0.013-1.091-0.049-1.571h0.924l0.048,0.936h0.036c0.324-0.552,0.863-1.067,1.823-1.067
		c0.791,0,1.391,0.479,1.643,1.163h0.024c0.18-0.324,0.407-0.576,0.647-0.755c0.348-0.264,0.731-0.408,1.283-0.408
		c0.768,0,1.907,0.503,1.907,2.519v3.418h-1.031v-3.286c0-1.115-0.408-1.787-1.26-1.787c-0.6,0-1.067,0.444-1.247,0.959
		c-0.048,0.144-0.084,0.336-0.084,0.528v3.586h-1.031v-3.478c0-0.923-0.408-1.595-1.212-1.595c-0.659,0-1.139,0.528-1.307,1.056
		c-0.061,0.156-0.084,0.335-0.084,0.516v3.502h-1.031V69.329z"/>
</g>
<rect x="-15.146" y="96.24" fill="none" stroke="#000000" stroke-miterlimit="10" width="124.725" height="22.678"/>
<line fill="none" stroke="#000000" stroke-miterlimit="10" x1="-15.146" y1="113.248" x2="109.579" y2="113.248"/>
<line fill="none" stroke="#000000" stroke-miterlimit="10" x1="-15.146" y1="116.083" x2="109.579" y2="116.083"/>
<rect x="61.39" y="5.531" fill="none" stroke="#000000" stroke-miterlimit="10" width="124.725" height="22.678"/>
<line fill="none" stroke="#000000" stroke-miterlimit="10" x1="61.39" y1="22.54" x2="186.115" y2="22.54"/>
<line fill="none" stroke="#000000" stroke-miterlimit="10" x1="61.39" y1="25.375" x2="186.115" y2="25.375"/>
<rect x="-15.146" y="62.224" fill="none" stroke="#000000" stroke-miterlimit="10" width="124.725" height="22.678"/>
<line fill="none" stroke="#000000" stroke-miterlimit="10" x1="-15.146" y1="79.233" x2="109.579" y2="79.233"/>
<line fill="none" stroke="#000000" stroke-miterlimit="10" x1="-15.146" y1="82.068" x2="109.579" y2="82.068"/>
<g>
	<path d="M-12.052,99.603c0.456-0.096,1.176-0.168,1.907-0.168c1.044,0,1.715,0.18,2.219,0.588c0.42,0.312,0.672,0.792,0.672,1.427
		c0,0.779-0.516,1.463-1.367,1.775v0.024c0.768,0.192,1.667,0.828,1.667,2.027c0,0.696-0.276,1.223-0.684,1.62
		c-0.563,0.516-1.476,0.755-2.795,0.755c-0.72,0-1.271-0.048-1.619-0.096V99.603z M-11.008,102.913h0.947
		c1.104,0,1.751-0.576,1.751-1.355c0-0.948-0.72-1.319-1.774-1.319c-0.48,0-0.756,0.036-0.924,0.072V102.913z M-11.008,106.787
		c0.204,0.036,0.504,0.048,0.875,0.048c1.08,0,2.075-0.396,2.075-1.571c0-1.103-0.947-1.559-2.087-1.559h-0.863V106.787z"/>
	<path d="M-5.152,101.774l1.271,3.43c0.132,0.384,0.276,0.84,0.372,1.188h0.024c0.107-0.348,0.228-0.792,0.371-1.212l1.151-3.406
		h1.116l-1.584,4.137c-0.755,1.991-1.271,3.011-1.99,3.635c-0.516,0.455-1.031,0.635-1.296,0.684l-0.264-0.888
		c0.264-0.084,0.611-0.252,0.924-0.516c0.288-0.228,0.647-0.636,0.888-1.176c0.048-0.108,0.084-0.192,0.084-0.251
		c0-0.061-0.024-0.145-0.072-0.276l-2.146-5.349H-5.152z"/>
	<path d="M1.387,100.107v1.667h1.512v0.803H1.387v3.131c0,0.719,0.204,1.127,0.792,1.127c0.275,0,0.479-0.036,0.611-0.072
		l0.048,0.792c-0.203,0.084-0.527,0.144-0.936,0.144c-0.491,0-0.887-0.156-1.139-0.443c-0.3-0.313-0.408-0.828-0.408-1.512v-3.166
		h-0.899v-0.803h0.899v-1.391L1.387,100.107z"/>
	<path d="M4.603,104.868c0.024,1.428,0.936,2.015,1.991,2.015c0.756,0,1.211-0.132,1.607-0.3l0.18,0.756
		c-0.372,0.168-1.008,0.359-1.931,0.359c-1.787,0-2.854-1.175-2.854-2.926c0-1.751,1.031-3.13,2.723-3.13
		c1.895,0,2.398,1.667,2.398,2.734c0,0.216-0.024,0.384-0.036,0.492H4.603z M7.698,104.113c0.012-0.671-0.276-1.715-1.463-1.715
		c-1.067,0-1.535,0.983-1.619,1.715H7.698z"/>
	<path d="M11.371,105.036l-0.84,2.543H9.452l2.746-8.084h1.26l2.759,8.084h-1.115l-0.864-2.543H11.371z M14.021,104.221
		l-0.791-2.327c-0.181-0.527-0.3-1.007-0.42-1.475h-0.024c-0.12,0.48-0.252,0.972-0.407,1.463l-0.792,2.339H14.021z"/>
	<path d="M17.337,103.585c0-0.684-0.013-1.271-0.049-1.811h0.924l0.036,1.139h0.048c0.264-0.779,0.899-1.271,1.607-1.271
		c0.12,0,0.204,0.012,0.3,0.036v0.996c-0.108-0.024-0.216-0.036-0.36-0.036c-0.743,0-1.271,0.564-1.415,1.355
		c-0.023,0.144-0.048,0.312-0.048,0.492v3.095h-1.043V103.585z"/>
	<path d="M21.308,103.585c0-0.684-0.013-1.271-0.049-1.811h0.924l0.036,1.139h0.048c0.264-0.779,0.899-1.271,1.607-1.271
		c0.12,0,0.203,0.012,0.3,0.036v0.996c-0.108-0.024-0.216-0.036-0.36-0.036c-0.743,0-1.271,0.564-1.415,1.355
		c-0.023,0.144-0.048,0.312-0.048,0.492v3.095h-1.043V103.585z"/>
	<path d="M28.386,107.579l-0.084-0.732h-0.036c-0.323,0.456-0.947,0.863-1.775,0.863c-1.175,0-1.774-0.827-1.774-1.666
		c0-1.404,1.247-2.171,3.49-2.159v-0.12c0-0.479-0.132-1.343-1.319-1.343c-0.54,0-1.104,0.168-1.512,0.432l-0.239-0.695
		c0.479-0.312,1.175-0.516,1.906-0.516c1.775,0,2.207,1.211,2.207,2.375v2.171c0,0.503,0.024,0.995,0.096,1.392H28.386z
		 M28.23,104.616c-1.151-0.024-2.458,0.18-2.458,1.307c0,0.684,0.455,1.008,0.995,1.008c0.756,0,1.235-0.479,1.403-0.971
		c0.036-0.108,0.06-0.229,0.06-0.336V104.616z"/>
	<path d="M31.244,101.774l1.271,3.43c0.132,0.384,0.276,0.84,0.372,1.188h0.024c0.107-0.348,0.228-0.792,0.371-1.212l1.151-3.406
		h1.115l-1.583,4.137c-0.755,1.991-1.271,3.011-1.99,3.635c-0.516,0.455-1.032,0.635-1.296,0.684l-0.264-0.888
		c0.264-0.084,0.611-0.252,0.924-0.516c0.288-0.228,0.647-0.636,0.888-1.176c0.048-0.108,0.084-0.192,0.084-0.251
		c0-0.061-0.024-0.145-0.072-0.276l-2.146-5.349H31.244z"/>
	<path d="M43.456,103.453c0,2.782-1.69,4.257-3.754,4.257c-2.135,0-3.634-1.654-3.634-4.101c0-2.567,1.596-4.246,3.754-4.246
		C42.029,99.364,43.456,101.054,43.456,103.453z M37.183,103.585c0,1.727,0.936,3.273,2.579,3.273c1.655,0,2.591-1.522,2.591-3.357
		c0-1.607-0.84-3.286-2.579-3.286C38.048,100.215,37.183,101.81,37.183,103.585z"/>
	<path d="M49.673,105.995c0,0.6,0.013,1.128,0.049,1.584h-0.936l-0.061-0.947h-0.023c-0.276,0.467-0.888,1.078-1.919,1.078
		c-0.912,0-2.003-0.503-2.003-2.542v-3.394h1.055v3.214c0,1.103,0.336,1.847,1.296,1.847c0.707,0,1.199-0.492,1.391-0.959
		c0.061-0.156,0.097-0.348,0.097-0.54v-3.562h1.055V105.995z"/>
	<path d="M52.699,100.107v1.667h1.512v0.803h-1.512v3.131c0,0.719,0.204,1.127,0.792,1.127c0.275,0,0.479-0.036,0.611-0.072
		l0.048,0.792c-0.203,0.084-0.527,0.144-0.936,0.144c-0.491,0-0.887-0.156-1.139-0.443c-0.3-0.313-0.408-0.828-0.408-1.512v-3.166
		h-0.899v-0.803h0.899v-1.391L52.699,100.107z"/>
	<path d="M55.4,103.669c0-0.744-0.024-1.343-0.049-1.895H56.3l0.048,0.995h0.023c0.432-0.708,1.115-1.127,2.063-1.127
		c1.403,0,2.458,1.187,2.458,2.95c0,2.086-1.271,3.118-2.639,3.118c-0.768,0-1.438-0.336-1.786-0.911h-0.024v3.154H55.4V103.669z
		 M56.443,105.216c0,0.156,0.024,0.3,0.048,0.432c0.192,0.732,0.828,1.235,1.583,1.235c1.115,0,1.764-0.911,1.764-2.243
		c0-1.163-0.612-2.159-1.728-2.159c-0.72,0-1.392,0.516-1.595,1.307c-0.036,0.132-0.072,0.288-0.072,0.432V105.216z"/>
	<path d="M67.085,105.995c0,0.6,0.013,1.128,0.049,1.584h-0.936l-0.061-0.947h-0.023c-0.276,0.467-0.888,1.078-1.919,1.078
		c-0.912,0-2.003-0.503-2.003-2.542v-3.394h1.055v3.214c0,1.103,0.336,1.847,1.296,1.847c0.707,0,1.199-0.492,1.391-0.959
		c0.061-0.156,0.097-0.348,0.097-0.54v-3.562h1.055V105.995z"/>
	<path d="M70.11,100.107v1.667h1.512v0.803H70.11v3.131c0,0.719,0.204,1.127,0.792,1.127c0.275,0,0.479-0.036,0.611-0.072
		l0.048,0.792c-0.203,0.084-0.527,0.144-0.936,0.144c-0.491,0-0.887-0.156-1.139-0.443c-0.3-0.313-0.408-0.828-0.408-1.512v-3.166
		h-0.899v-0.803h0.899v-1.391L70.11,100.107z"/>
	<path d="M72.704,106.308c0.468,0.287,1.151,0.527,1.871,0.527c1.067,0,1.691-0.563,1.691-1.379c0-0.756-0.433-1.188-1.523-1.607
		c-1.319-0.468-2.135-1.151-2.135-2.291c0-1.259,1.043-2.195,2.614-2.195c0.827,0,1.428,0.192,1.787,0.396l-0.288,0.852
		c-0.264-0.144-0.804-0.384-1.535-0.384c-1.104,0-1.522,0.66-1.522,1.211c0,0.755,0.491,1.127,1.606,1.559
		c1.367,0.528,2.063,1.188,2.063,2.375c0,1.247-0.924,2.326-2.831,2.326c-0.779,0-1.631-0.228-2.063-0.516L72.704,106.308z"/>
	<path d="M79.963,100.107v1.667h1.512v0.803h-1.512v3.131c0,0.719,0.204,1.127,0.792,1.127c0.275,0,0.479-0.036,0.611-0.072
		l0.048,0.792c-0.203,0.084-0.527,0.144-0.936,0.144c-0.491,0-0.887-0.156-1.139-0.443c-0.3-0.313-0.408-0.828-0.408-1.512v-3.166
		h-0.899v-0.803h0.899v-1.391L79.963,100.107z"/>
	<path d="M82.664,103.585c0-0.684-0.013-1.271-0.049-1.811h0.924l0.036,1.139h0.048c0.264-0.779,0.899-1.271,1.607-1.271
		c0.12,0,0.203,0.012,0.3,0.036v0.996c-0.108-0.024-0.216-0.036-0.36-0.036c-0.743,0-1.271,0.564-1.415,1.355
		c-0.023,0.144-0.048,0.312-0.048,0.492v3.095h-1.043V103.585z"/>
	<path d="M87.054,104.868c0.024,1.428,0.936,2.015,1.991,2.015c0.756,0,1.211-0.132,1.607-0.3l0.18,0.756
		c-0.372,0.168-1.008,0.359-1.931,0.359c-1.787,0-2.854-1.175-2.854-2.926c0-1.751,1.031-3.13,2.723-3.13
		c1.895,0,2.398,1.667,2.398,2.734c0,0.216-0.024,0.384-0.036,0.492H87.054z M90.149,104.113c0.012-0.671-0.276-1.715-1.463-1.715
		c-1.067,0-1.535,0.983-1.619,1.715H90.149z"/>
	<path d="M95.694,107.579l-0.084-0.732h-0.036c-0.324,0.456-0.947,0.863-1.775,0.863c-1.175,0-1.774-0.827-1.774-1.666
		c0-1.404,1.247-2.171,3.49-2.159v-0.12c0-0.479-0.132-1.343-1.319-1.343c-0.54,0-1.104,0.168-1.512,0.432l-0.239-0.695
		c0.479-0.312,1.175-0.516,1.906-0.516c1.775,0,2.207,1.211,2.207,2.375v2.171c0,0.503,0.024,0.995,0.096,1.392H95.694z
		 M95.538,104.616c-1.151-0.024-2.458,0.18-2.458,1.307c0,0.684,0.455,1.008,0.995,1.008c0.756,0,1.235-0.479,1.403-0.971
		c0.036-0.108,0.06-0.229,0.06-0.336V104.616z"/>
	<path d="M98.263,103.345c0-0.6-0.013-1.091-0.049-1.571h0.924l0.048,0.936h0.036c0.324-0.552,0.863-1.067,1.823-1.067
		c0.791,0,1.391,0.479,1.643,1.163h0.024c0.18-0.324,0.407-0.576,0.647-0.755c0.348-0.264,0.731-0.408,1.283-0.408
		c0.768,0,1.907,0.503,1.907,2.519v3.418h-1.031v-3.287c0-1.115-0.408-1.787-1.26-1.787c-0.6,0-1.067,0.444-1.247,0.959
		c-0.048,0.144-0.084,0.336-0.084,0.528v3.586h-1.031v-3.479c0-0.923-0.408-1.595-1.212-1.595c-0.659,0-1.139,0.528-1.307,1.056
		c-0.061,0.156-0.084,0.335-0.084,0.516v3.502h-1.031V103.345z"/>
</g>
<rect x="137.925" y="48.052" fill="none" stroke="#000000" stroke-miterlimit="10" width="124.725" height="22.678"/>
<line fill="none" stroke="#000000" stroke-miterlimit="10" x1="137.925" y1="65.06" x2="262.65" y2="65.06"/>
<line fill="none" stroke="#000000" stroke-miterlimit="10" x1="137.925" y1="67.895" x2="262.65" y2="67.895"/>
<g>
	<path d="M155.462,55.265c0,2.782-1.69,4.257-3.754,4.257c-2.135,0-3.634-1.655-3.634-4.102c0-2.567,1.596-4.246,3.754-4.246
		C154.035,51.176,155.462,52.866,155.462,55.265z M149.189,55.397c0,1.727,0.936,3.274,2.579,3.274c1.655,0,2.59-1.523,2.59-3.358
		c0-1.607-0.839-3.286-2.578-3.286C150.053,52.027,149.189,53.622,149.189,55.397z"/>
	<path d="M156.738,59.391c0.023-0.396,0.049-0.983,0.049-1.499v-7.016h1.043v3.646h0.023c0.371-0.648,1.043-1.067,1.979-1.067
		c1.439,0,2.459,1.199,2.447,2.962c0,2.075-1.307,3.106-2.604,3.106c-0.838,0-1.51-0.324-1.941-1.091h-0.037l-0.047,0.959H156.738z
		 M157.829,57.064c0,0.132,0.023,0.264,0.047,0.384c0.205,0.731,0.816,1.235,1.584,1.235c1.104,0,1.764-0.899,1.764-2.231
		c0-1.163-0.6-2.159-1.729-2.159c-0.719,0-1.391,0.492-1.607,1.295c-0.023,0.12-0.059,0.264-0.059,0.432V57.064z"/>
	<path d="M162.198,61.07c0.48-0.036,0.898-0.168,1.15-0.444c0.289-0.336,0.396-0.792,0.396-2.183v-4.857h1.055v5.265
		c0,1.127-0.18,1.859-0.695,2.387c-0.467,0.468-1.234,0.66-1.799,0.66L162.198,61.07z M164.921,51.955
		c0.012,0.348-0.24,0.648-0.66,0.648c-0.396,0-0.646-0.3-0.646-0.648c0-0.372,0.275-0.66,0.67-0.66
		C164.669,51.295,164.921,51.583,164.921,51.955z"/>
	<path d="M167.116,56.68c0.025,1.427,0.936,2.015,1.992,2.015c0.756,0,1.211-0.132,1.607-0.3l0.18,0.756
		c-0.373,0.168-1.008,0.36-1.932,0.36c-1.787,0-2.854-1.175-2.854-2.927c0-1.751,1.031-3.13,2.723-3.13
		c1.895,0,2.398,1.667,2.398,2.734c0,0.216-0.025,0.384-0.037,0.492H167.116z M170.212,55.925c0.012-0.671-0.277-1.715-1.463-1.715
		c-1.068,0-1.535,0.983-1.619,1.715H170.212z"/>
	<path d="M176.679,59.175c-0.275,0.144-0.887,0.336-1.668,0.336c-1.75,0-2.889-1.188-2.889-2.962c0-1.787,1.223-3.083,3.117-3.083
		c0.623,0,1.176,0.156,1.463,0.3l-0.238,0.815c-0.252-0.144-0.648-0.276-1.225-0.276c-1.33,0-2.051,0.984-2.051,2.195
		c0,1.343,0.863,2.171,2.016,2.171c0.6,0,0.994-0.156,1.295-0.288L176.679,59.175z"/>
	<path d="M179.345,51.919v1.667h1.512v0.803h-1.512v3.13c0,0.72,0.203,1.127,0.791,1.127c0.275,0,0.48-0.036,0.611-0.072
		l0.049,0.792c-0.203,0.084-0.527,0.144-0.936,0.144c-0.492,0-0.887-0.156-1.139-0.444c-0.301-0.312-0.408-0.828-0.408-1.511v-3.167
		h-0.9v-0.803h0.9v-1.391L179.345,51.919z"/>
	<path d="M188.99,55.265c0,2.782-1.691,4.257-3.754,4.257c-2.135,0-3.635-1.655-3.635-4.102c0-2.567,1.596-4.246,3.754-4.246
		C187.562,51.176,188.99,52.866,188.99,55.265z M182.716,55.397c0,1.727,0.936,3.274,2.58,3.274c1.654,0,2.59-1.523,2.59-3.358
		c0-1.607-0.84-3.286-2.578-3.286C183.581,52.027,182.716,53.622,182.716,55.397z"/>
	<path d="M195.206,57.808c0,0.6,0.012,1.127,0.049,1.583h-0.936l-0.061-0.947h-0.023c-0.277,0.467-0.889,1.079-1.92,1.079
		c-0.912,0-2.002-0.503-2.002-2.542v-3.394h1.055v3.214c0,1.103,0.336,1.847,1.295,1.847c0.707,0,1.199-0.492,1.391-0.959
		c0.061-0.156,0.098-0.348,0.098-0.54v-3.562h1.055V57.808z"/>
	<path d="M198.232,51.919v1.667h1.512v0.803h-1.512v3.13c0,0.72,0.205,1.127,0.793,1.127c0.275,0,0.479-0.036,0.611-0.072
		l0.047,0.792c-0.203,0.084-0.527,0.144-0.936,0.144c-0.49,0-0.887-0.156-1.139-0.444c-0.299-0.312-0.408-0.828-0.408-1.511v-3.167
		h-0.898v-0.803h0.898v-1.391L198.232,51.919z"/>
	<path d="M200.933,55.481c0-0.744-0.023-1.343-0.049-1.895h0.949l0.047,0.995h0.023c0.432-0.708,1.115-1.127,2.064-1.127
		c1.402,0,2.457,1.187,2.457,2.95c0,2.087-1.27,3.118-2.639,3.118c-0.768,0-1.438-0.336-1.785-0.912h-0.025v3.154h-1.043V55.481z
		 M201.976,57.028c0,0.156,0.025,0.3,0.049,0.432c0.191,0.732,0.828,1.235,1.582,1.235c1.115,0,1.764-0.911,1.764-2.243
		c0-1.163-0.611-2.159-1.727-2.159c-0.721,0-1.393,0.516-1.596,1.307c-0.035,0.132-0.072,0.288-0.072,0.432V57.028z"/>
	<path d="M212.618,57.808c0,0.6,0.012,1.127,0.049,1.583h-0.936l-0.061-0.947h-0.023c-0.277,0.467-0.889,1.079-1.92,1.079
		c-0.912,0-2.002-0.503-2.002-2.542v-3.394h1.055v3.214c0,1.103,0.336,1.847,1.295,1.847c0.707,0,1.199-0.492,1.391-0.959
		c0.061-0.156,0.098-0.348,0.098-0.54v-3.562h1.055V57.808z"/>
	<path d="M215.644,51.919v1.667h1.512v0.803h-1.512v3.13c0,0.72,0.203,1.127,0.791,1.127c0.275,0,0.48-0.036,0.611-0.072
		l0.049,0.792c-0.203,0.084-0.527,0.144-0.936,0.144c-0.492,0-0.887-0.156-1.139-0.444c-0.301-0.312-0.408-0.828-0.408-1.511v-3.167
		h-0.9v-0.803h0.9v-1.391L215.644,51.919z"/>
	<path d="M218.238,58.119c0.467,0.288,1.15,0.528,1.871,0.528c1.066,0,1.691-0.563,1.691-1.379c0-0.755-0.434-1.187-1.523-1.607
		c-1.32-0.468-2.135-1.151-2.135-2.291c0-1.259,1.043-2.195,2.613-2.195c0.828,0,1.428,0.192,1.787,0.396l-0.287,0.852
		c-0.264-0.144-0.805-0.384-1.535-0.384c-1.104,0-1.523,0.66-1.523,1.211c0,0.755,0.492,1.127,1.607,1.559
		c1.367,0.528,2.063,1.188,2.063,2.375c0,1.247-0.924,2.327-2.83,2.327c-0.779,0-1.631-0.228-2.063-0.516L218.238,58.119z"/>
	<path d="M225.495,51.919v1.667h1.512v0.803h-1.512v3.13c0,0.72,0.205,1.127,0.793,1.127c0.275,0,0.479-0.036,0.611-0.072
		l0.047,0.792c-0.203,0.084-0.527,0.144-0.936,0.144c-0.49,0-0.887-0.156-1.139-0.444c-0.299-0.312-0.408-0.828-0.408-1.511v-3.167
		h-0.898v-0.803h0.898v-1.391L225.495,51.919z"/>
	<path d="M228.197,55.397c0-0.684-0.012-1.271-0.049-1.811h0.924l0.037,1.139h0.047c0.264-0.779,0.9-1.271,1.607-1.271
		c0.121,0,0.205,0.012,0.301,0.036v0.996c-0.109-0.024-0.217-0.036-0.361-0.036c-0.742,0-1.27,0.564-1.414,1.355
		c-0.023,0.144-0.049,0.312-0.049,0.492v3.094h-1.043V55.397z"/>
	<path d="M232.587,56.68c0.025,1.427,0.936,2.015,1.992,2.015c0.756,0,1.211-0.132,1.607-0.3l0.18,0.756
		c-0.373,0.168-1.008,0.36-1.932,0.36c-1.787,0-2.854-1.175-2.854-2.927c0-1.751,1.031-3.13,2.723-3.13
		c1.895,0,2.398,1.667,2.398,2.734c0,0.216-0.025,0.384-0.037,0.492H232.587z M235.683,55.925c0.012-0.671-0.277-1.715-1.463-1.715
		c-1.068,0-1.535,0.983-1.619,1.715H235.683z"/>
	<path d="M241.228,59.391l-0.084-0.731h-0.037c-0.322,0.456-0.947,0.863-1.775,0.863c-1.174,0-1.773-0.828-1.773-1.667
		c0-1.403,1.246-2.171,3.49-2.159v-0.12c0-0.479-0.133-1.343-1.32-1.343c-0.539,0-1.104,0.168-1.512,0.432l-0.238-0.695
		c0.479-0.312,1.174-0.516,1.906-0.516c1.775,0,2.207,1.211,2.207,2.375V58c0,0.503,0.023,0.995,0.096,1.391H241.228z
		 M241.072,56.428c-1.152-0.024-2.459,0.18-2.459,1.307c0,0.684,0.455,1.008,0.996,1.008c0.756,0,1.234-0.48,1.402-0.972
		c0.037-0.108,0.061-0.228,0.061-0.336V56.428z"/>
	<path d="M243.796,55.157c0-0.6-0.012-1.091-0.049-1.571h0.924l0.049,0.936h0.035c0.324-0.552,0.863-1.067,1.824-1.067
		c0.791,0,1.391,0.479,1.643,1.163h0.023c0.18-0.324,0.408-0.576,0.648-0.755c0.348-0.264,0.73-0.408,1.283-0.408
		c0.768,0,1.906,0.503,1.906,2.519v3.418h-1.031v-3.286c0-1.115-0.408-1.787-1.26-1.787c-0.6,0-1.066,0.444-1.246,0.959
		c-0.049,0.144-0.084,0.336-0.084,0.528v3.586h-1.031v-3.478c0-0.923-0.408-1.595-1.213-1.595c-0.658,0-1.139,0.528-1.307,1.056
		c-0.061,0.156-0.084,0.335-0.084,0.516v3.502h-1.031V55.157z"/>
</g>
<line fill="none" stroke="#000000" stroke-miterlimit="10" x1="123.752" y1="70.729" x2="109.579" y2="70.729"/>
<line fill="none" stroke="#000000" stroke-miterlimit="10" x1="137.926" y1="56.556" x2="123.752" y2="56.556"/>
<rect x="160.603" y="124.586" fill="none" stroke="#000000" stroke-miterlimit="10" width="124.724" height="22.678"/>
<line fill="none" stroke="#000000" stroke-miterlimit="10" x1="160.603" y1="141.595" x2="285.326" y2="141.595"/>
<line fill="none" stroke="#000000" stroke-miterlimit="10" x1="160.603" y1="144.43" x2="285.326" y2="144.43"/>
<g>
	<path d="M166.72,127.95c0.455-0.097,1.176-0.168,1.906-0.168c1.045,0,1.715,0.18,2.219,0.588c0.42,0.311,0.672,0.791,0.672,1.427
		c0,0.779-0.516,1.463-1.367,1.774v0.024c0.768,0.192,1.668,0.827,1.668,2.026c0,0.696-0.277,1.224-0.684,1.619
		c-0.564,0.516-1.477,0.756-2.795,0.756c-0.721,0-1.271-0.048-1.619-0.096V127.95z M167.763,131.26h0.947
		c1.104,0,1.752-0.575,1.752-1.354c0-0.948-0.721-1.32-1.775-1.32c-0.48,0-0.756,0.036-0.924,0.072V131.26z M167.763,135.134
		c0.205,0.036,0.504,0.048,0.875,0.048c1.08,0,2.076-0.396,2.076-1.571c0-1.104-0.947-1.559-2.088-1.559h-0.863V135.134z"/>
	<path d="M178.044,134.343c0,0.6,0.014,1.127,0.049,1.582h-0.936l-0.061-0.947h-0.023c-0.275,0.468-0.887,1.08-1.918,1.08
		c-0.912,0-2.004-0.504-2.004-2.543v-3.395h1.055v3.215c0,1.104,0.336,1.847,1.297,1.847c0.707,0,1.199-0.491,1.391-0.96
		c0.061-0.155,0.096-0.348,0.096-0.539v-3.563h1.055V134.343z"/>
	<path d="M183.386,135.925v-5.001h-2.434v5.001h-1.045v-5.001h-0.814v-0.804h0.814v-0.191c0-0.815,0.193-1.523,0.648-1.979
		c0.336-0.336,0.814-0.54,1.463-0.54c0.336,0,0.648,0.108,0.828,0.204l-0.217,0.779c-0.156-0.072-0.383-0.145-0.623-0.145
		c-0.828,0-1.055,0.708-1.055,1.619v0.252h2.434v-0.275c0-0.815,0.191-1.559,0.684-2.027c0.396-0.383,0.924-0.539,1.404-0.539
		c0.383,0,0.695,0.084,0.898,0.168l-0.131,0.815c-0.168-0.072-0.373-0.132-0.684-0.132c-0.889,0-1.129,0.791-1.129,1.679v0.312
		h1.404v0.804h-1.393v5.001H183.386z"/>
	<path d="M187.228,133.215c0.023,1.427,0.936,2.015,1.99,2.015c0.756,0,1.211-0.132,1.607-0.3l0.18,0.756
		c-0.371,0.168-1.008,0.36-1.93,0.36c-1.787,0-2.855-1.176-2.855-2.928c0-1.75,1.031-3.129,2.723-3.129
		c1.895,0,2.398,1.666,2.398,2.734c0,0.215-0.023,0.383-0.035,0.491H187.228z M190.322,132.459c0.012-0.671-0.275-1.715-1.463-1.715
		c-1.066,0-1.535,0.983-1.619,1.715H190.322z"/>
	<path d="M192.652,131.932c0-0.684-0.012-1.271-0.049-1.812h0.924l0.037,1.14h0.047c0.264-0.779,0.9-1.271,1.607-1.271
		c0.121,0,0.205,0.012,0.301,0.035v0.996c-0.109-0.024-0.217-0.037-0.361-0.037c-0.742,0-1.27,0.564-1.414,1.355
		c-0.023,0.145-0.049,0.313-0.049,0.492v3.094h-1.043V131.932z"/>
	<path d="M197.042,133.215c0.025,1.427,0.936,2.015,1.992,2.015c0.756,0,1.211-0.132,1.607-0.3l0.18,0.756
		c-0.373,0.168-1.008,0.36-1.932,0.36c-1.787,0-2.854-1.176-2.854-2.928c0-1.75,1.031-3.129,2.723-3.129
		c1.895,0,2.398,1.666,2.398,2.734c0,0.215-0.025,0.383-0.037,0.491H197.042z M200.138,132.459c0.012-0.671-0.277-1.715-1.463-1.715
		c-1.068,0-1.535,0.983-1.619,1.715H200.138z"/>
	<path d="M207.482,127.41v7.017c0,0.516,0.012,1.103,0.047,1.498h-0.947l-0.047-1.007h-0.025c-0.322,0.647-1.031,1.14-1.979,1.14
		c-1.402,0-2.482-1.188-2.482-2.951c-0.012-1.931,1.188-3.117,2.604-3.117c0.887,0,1.486,0.419,1.75,0.887h0.023v-3.466H207.482z
		 M206.425,132.484c0-0.133-0.012-0.313-0.047-0.443c-0.156-0.672-0.732-1.225-1.523-1.225c-1.092,0-1.738,0.96-1.738,2.244
		c0,1.175,0.574,2.146,1.715,2.146c0.707,0,1.355-0.469,1.547-1.26c0.035-0.145,0.047-0.287,0.047-0.455V132.484z"/>
	<path d="M216.179,131.8c0,2.782-1.689,4.258-3.754,4.258c-2.135,0-3.633-1.655-3.633-4.102c0-2.567,1.596-4.246,3.754-4.246
		C214.753,127.71,216.179,129.402,216.179,131.8z M209.907,131.932c0,1.728,0.936,3.274,2.578,3.274
		c1.656,0,2.592-1.523,2.592-3.358c0-1.607-0.84-3.286-2.58-3.286C210.771,128.562,209.907,130.156,209.907,131.932z"/>
	<path d="M222.396,134.343c0,0.6,0.014,1.127,0.049,1.582h-0.936l-0.061-0.947h-0.023c-0.275,0.468-0.887,1.08-1.918,1.08
		c-0.912,0-2.004-0.504-2.004-2.543v-3.395h1.055v3.215c0,1.104,0.336,1.847,1.297,1.847c0.707,0,1.199-0.491,1.391-0.96
		c0.061-0.155,0.096-0.348,0.096-0.539v-3.563h1.055V134.343z"/>
	<path d="M225.423,128.454v1.666h1.512v0.804h-1.512v3.13c0,0.721,0.203,1.128,0.791,1.128c0.275,0,0.48-0.036,0.611-0.071
		l0.049,0.791c-0.203,0.084-0.527,0.145-0.936,0.145c-0.492,0-0.887-0.156-1.139-0.444c-0.301-0.312-0.408-0.827-0.408-1.511v-3.167
		h-0.9v-0.804h0.9v-1.391L225.423,128.454z"/>
	<path d="M228.124,132.016c0-0.743-0.025-1.343-0.049-1.896h0.947l0.049,0.996h0.023c0.432-0.708,1.115-1.127,2.063-1.127
		c1.404,0,2.459,1.187,2.459,2.949c0,2.088-1.271,3.119-2.639,3.119c-0.768,0-1.439-0.336-1.787-0.912h-0.023v3.154h-1.043V132.016z
		 M229.167,133.563c0,0.156,0.023,0.3,0.047,0.432c0.193,0.731,0.828,1.235,1.584,1.235c1.115,0,1.764-0.911,1.764-2.242
		c0-1.164-0.613-2.159-1.729-2.159c-0.719,0-1.391,0.516-1.594,1.308c-0.037,0.131-0.072,0.287-0.072,0.432V133.563z"/>
	<path d="M239.808,134.343c0,0.6,0.014,1.127,0.049,1.582h-0.936l-0.061-0.947h-0.023c-0.275,0.468-0.887,1.08-1.918,1.08
		c-0.912,0-2.004-0.504-2.004-2.543v-3.395h1.055v3.215c0,1.104,0.336,1.847,1.297,1.847c0.707,0,1.199-0.491,1.391-0.96
		c0.061-0.155,0.096-0.348,0.096-0.539v-3.563h1.055V134.343z"/>
	<path d="M242.833,128.454v1.666h1.512v0.804h-1.512v3.13c0,0.721,0.205,1.128,0.793,1.128c0.275,0,0.479-0.036,0.611-0.071
		l0.047,0.791c-0.203,0.084-0.527,0.145-0.936,0.145c-0.49,0-0.887-0.156-1.139-0.444c-0.299-0.312-0.408-0.827-0.408-1.511v-3.167
		h-0.898v-0.804h0.898v-1.391L242.833,128.454z"/>
	<path d="M245.427,134.654c0.467,0.289,1.15,0.528,1.871,0.528c1.066,0,1.691-0.563,1.691-1.38c0-0.755-0.434-1.187-1.523-1.606
		c-1.32-0.468-2.135-1.151-2.135-2.29c0-1.26,1.043-2.195,2.613-2.195c0.828,0,1.428,0.191,1.787,0.396l-0.287,0.852
		c-0.264-0.144-0.805-0.384-1.535-0.384c-1.104,0-1.523,0.66-1.523,1.211c0,0.756,0.492,1.128,1.607,1.56
		c1.367,0.528,2.063,1.188,2.063,2.375c0,1.247-0.924,2.327-2.83,2.327c-0.779,0-1.631-0.229-2.063-0.517L245.427,134.654z"/>
	<path d="M252.687,128.454v1.666h1.512v0.804h-1.512v3.13c0,0.721,0.203,1.128,0.791,1.128c0.275,0,0.48-0.036,0.611-0.071
		l0.049,0.791c-0.203,0.084-0.527,0.145-0.936,0.145c-0.492,0-0.887-0.156-1.139-0.444c-0.301-0.312-0.408-0.827-0.408-1.511v-3.167
		h-0.9v-0.804h0.9v-1.391L252.687,128.454z"/>
	<path d="M255.388,131.932c0-0.684-0.014-1.271-0.049-1.812h0.924l0.035,1.14h0.049c0.264-0.779,0.898-1.271,1.607-1.271
		c0.119,0,0.203,0.012,0.299,0.035v0.996c-0.107-0.024-0.215-0.037-0.359-0.037c-0.744,0-1.271,0.564-1.416,1.355
		c-0.023,0.145-0.047,0.313-0.047,0.492v3.094h-1.043V131.932z"/>
	<path d="M259.779,133.215c0.023,1.427,0.936,2.015,1.99,2.015c0.756,0,1.211-0.132,1.607-0.3l0.18,0.756
		c-0.371,0.168-1.008,0.36-1.93,0.36c-1.787,0-2.855-1.176-2.855-2.928c0-1.75,1.031-3.129,2.723-3.129
		c1.895,0,2.398,1.666,2.398,2.734c0,0.215-0.023,0.383-0.035,0.491H259.779z M262.872,132.459c0.012-0.671-0.275-1.715-1.463-1.715
		c-1.066,0-1.535,0.983-1.619,1.715H262.872z"/>
	<path d="M268.417,135.925l-0.084-0.73h-0.037c-0.322,0.455-0.947,0.863-1.775,0.863c-1.174,0-1.773-0.828-1.773-1.668
		c0-1.402,1.246-2.17,3.49-2.158v-0.12c0-0.479-0.133-1.343-1.32-1.343c-0.539,0-1.104,0.168-1.512,0.432l-0.238-0.695
		c0.479-0.313,1.174-0.516,1.906-0.516c1.775,0,2.207,1.211,2.207,2.374v2.171c0,0.504,0.023,0.995,0.096,1.391H268.417z
		 M268.261,132.963c-1.152-0.024-2.459,0.18-2.459,1.308c0,0.684,0.455,1.008,0.996,1.008c0.756,0,1.234-0.48,1.402-0.973
		c0.037-0.107,0.061-0.228,0.061-0.336V132.963z"/>
	<path d="M270.988,131.692c0-0.6-0.014-1.091-0.049-1.571h0.924l0.047,0.936h0.037c0.324-0.551,0.863-1.066,1.822-1.066
		c0.791,0,1.391,0.479,1.643,1.162h0.025c0.18-0.323,0.406-0.575,0.646-0.755c0.348-0.265,0.732-0.407,1.283-0.407
		c0.768,0,1.908,0.503,1.908,2.518v3.418h-1.031v-3.285c0-1.115-0.408-1.787-1.26-1.787c-0.6,0-1.068,0.443-1.248,0.959
		c-0.047,0.145-0.084,0.336-0.084,0.527v3.586h-1.031v-3.478c0-0.923-0.408-1.595-1.211-1.595c-0.66,0-1.139,0.527-1.307,1.055
		c-0.061,0.156-0.084,0.336-0.084,0.516v3.502h-1.031V131.692z"/>
</g>
<rect x="160.603" y="158.603" fill="none" stroke="#000000" stroke-miterlimit="10" width="124.724" height="22.678"/>
<line fill="none" stroke="#000000" stroke-miterlimit="10" x1="160.603" y1="175.612" x2="285.326" y2="175.612"/>
<line fill="none" stroke="#000000" stroke-miterlimit="10" x1="160.603" y1="178.447" x2="285.326" y2="178.447"/>
<g>
	<path d="M176.253,161.966c0.637-0.096,1.393-0.168,2.219-0.168c1.5,0,2.568,0.348,3.275,1.008c0.719,0.66,1.139,1.596,1.139,2.902
		c0,1.319-0.408,2.398-1.162,3.143c-0.756,0.756-2.004,1.163-3.574,1.163c-0.744,0-1.367-0.036-1.896-0.096V161.966z
		 M177.298,169.115c0.264,0.048,0.646,0.061,1.055,0.061c2.23,0,3.441-1.248,3.441-3.431c0.014-1.907-1.066-3.118-3.273-3.118
		c-0.539,0-0.947,0.048-1.223,0.107V169.115z"/>
	<path d="M187.425,169.943l-0.084-0.732h-0.037c-0.322,0.456-0.947,0.863-1.775,0.863c-1.174,0-1.773-0.827-1.773-1.666
		c0-1.404,1.246-2.172,3.49-2.159v-0.12c0-0.479-0.133-1.344-1.32-1.344c-0.539,0-1.104,0.168-1.512,0.432l-0.238-0.695
		c0.479-0.312,1.174-0.516,1.906-0.516c1.775,0,2.207,1.211,2.207,2.375v2.171c0,0.503,0.023,0.995,0.096,1.392H187.425z
		 M187.269,166.98c-1.152-0.023-2.459,0.18-2.459,1.307c0,0.684,0.455,1.008,0.996,1.008c0.756,0,1.234-0.479,1.402-0.971
		c0.037-0.108,0.061-0.229,0.061-0.336V166.98z"/>
	<path d="M191.216,162.47v1.668h1.512v0.803h-1.512v3.131c0,0.719,0.205,1.127,0.793,1.127c0.275,0,0.479-0.036,0.611-0.072
		l0.047,0.792c-0.203,0.084-0.527,0.144-0.936,0.144c-0.49,0-0.887-0.156-1.139-0.443c-0.299-0.313-0.408-0.828-0.408-1.512v-3.166
		h-0.898v-0.803h0.898v-1.392L191.216,162.47z"/>
	<path d="M197.132,169.943l-0.084-0.732h-0.037c-0.322,0.456-0.947,0.863-1.775,0.863c-1.174,0-1.773-0.827-1.773-1.666
		c0-1.404,1.246-2.172,3.49-2.159v-0.12c0-0.479-0.133-1.344-1.32-1.344c-0.539,0-1.104,0.168-1.512,0.432l-0.238-0.695
		c0.479-0.312,1.174-0.516,1.906-0.516c1.775,0,2.207,1.211,2.207,2.375v2.171c0,0.503,0.023,0.995,0.096,1.392H197.132z
		 M196.976,166.98c-1.152-0.023-2.459,0.18-2.459,1.307c0,0.684,0.455,1.008,0.996,1.008c0.756,0,1.234-0.479,1.402-0.971
		c0.037-0.108,0.061-0.229,0.061-0.336V166.98z"/>
	<path d="M206.646,165.817c0,2.782-1.691,4.257-3.754,4.257c-2.135,0-3.635-1.654-3.635-4.102c0-2.566,1.596-4.245,3.754-4.245
		C205.218,161.727,206.646,163.417,206.646,165.817z M200.372,165.948c0,1.727,0.936,3.273,2.58,3.273
		c1.654,0,2.59-1.522,2.59-3.357c0-1.607-0.84-3.286-2.578-3.286C201.238,162.578,200.372,164.173,200.372,165.948z"/>
	<path d="M212.863,168.359c0,0.6,0.012,1.128,0.049,1.584h-0.936l-0.061-0.947h-0.023c-0.277,0.467-0.889,1.078-1.92,1.078
		c-0.912,0-2.002-0.503-2.002-2.542v-3.394h1.055v3.214c0,1.103,0.336,1.847,1.295,1.847c0.707,0,1.199-0.492,1.391-0.959
		c0.061-0.156,0.098-0.348,0.098-0.54v-3.562h1.055V168.359z"/>
	<path d="M215.888,162.47v1.668h1.512v0.803h-1.512v3.131c0,0.719,0.205,1.127,0.793,1.127c0.275,0,0.479-0.036,0.611-0.072
		l0.047,0.792c-0.203,0.084-0.527,0.144-0.936,0.144c-0.49,0-0.887-0.156-1.139-0.443c-0.299-0.313-0.408-0.828-0.408-1.512v-3.166
		h-0.898v-0.803h0.898v-1.392L215.888,162.47z"/>
	<path d="M218.589,166.032c0-0.744-0.023-1.344-0.049-1.895h0.949l0.047,0.994h0.023c0.432-0.707,1.115-1.127,2.064-1.127
		c1.402,0,2.457,1.188,2.457,2.951c0,2.086-1.27,3.117-2.639,3.117c-0.768,0-1.438-0.336-1.785-0.911h-0.025v3.154h-1.043V166.032z
		 M219.632,167.579c0,0.156,0.025,0.3,0.049,0.432c0.191,0.732,0.828,1.235,1.582,1.235c1.115,0,1.764-0.911,1.764-2.243
		c0-1.162-0.611-2.158-1.727-2.158c-0.721,0-1.393,0.516-1.596,1.307c-0.035,0.133-0.072,0.289-0.072,0.433V167.579z"/>
	<path d="M230.275,168.359c0,0.6,0.012,1.128,0.049,1.584h-0.936l-0.061-0.947h-0.023c-0.277,0.467-0.889,1.078-1.92,1.078
		c-0.912,0-2.002-0.503-2.002-2.542v-3.394h1.055v3.214c0,1.103,0.336,1.847,1.295,1.847c0.707,0,1.199-0.492,1.391-0.959
		c0.061-0.156,0.098-0.348,0.098-0.54v-3.562h1.055V168.359z"/>
	<path d="M233.3,162.47v1.668h1.512v0.803H233.3v3.131c0,0.719,0.205,1.127,0.793,1.127c0.275,0,0.479-0.036,0.611-0.072
		l0.047,0.792c-0.203,0.084-0.527,0.144-0.936,0.144c-0.49,0-0.887-0.156-1.139-0.443c-0.299-0.313-0.408-0.828-0.408-1.512v-3.166
		h-0.898v-0.803h0.898v-1.392L233.3,162.47z"/>
	<path d="M235.894,168.671c0.467,0.287,1.15,0.527,1.871,0.527c1.066,0,1.691-0.563,1.691-1.379c0-0.756-0.434-1.188-1.523-1.607
		c-1.32-0.468-2.135-1.151-2.135-2.291c0-1.259,1.043-2.194,2.613-2.194c0.828,0,1.428,0.192,1.787,0.396l-0.287,0.852
		c-0.264-0.145-0.805-0.384-1.535-0.384c-1.104,0-1.523,0.659-1.523,1.212c0,0.755,0.492,1.127,1.607,1.559
		c1.367,0.527,2.063,1.188,2.063,2.375c0,1.247-0.924,2.326-2.83,2.326c-0.779,0-1.631-0.228-2.063-0.516L235.894,168.671z"/>
	<path d="M243.152,162.47v1.668h1.512v0.803h-1.512v3.131c0,0.719,0.205,1.127,0.793,1.127c0.275,0,0.479-0.036,0.611-0.072
		l0.047,0.792c-0.203,0.084-0.527,0.144-0.936,0.144c-0.49,0-0.887-0.156-1.139-0.443c-0.299-0.313-0.408-0.828-0.408-1.512v-3.166
		h-0.898v-0.803h0.898v-1.392L243.152,162.47z"/>
	<path d="M245.853,165.948c0-0.684-0.012-1.271-0.049-1.811h0.924l0.037,1.139h0.047c0.264-0.779,0.9-1.271,1.607-1.271
		c0.121,0,0.205,0.012,0.301,0.036v0.995c-0.109-0.023-0.217-0.035-0.361-0.035c-0.742,0-1.27,0.563-1.414,1.355
		c-0.023,0.144-0.049,0.311-0.049,0.491v3.095h-1.043V165.948z"/>
	<path d="M250.245,167.232c0.023,1.428,0.936,2.015,1.99,2.015c0.756,0,1.211-0.132,1.607-0.3l0.18,0.756
		c-0.371,0.168-1.008,0.359-1.93,0.359c-1.787,0-2.855-1.175-2.855-2.926c0-1.752,1.031-3.131,2.723-3.131
		c1.895,0,2.398,1.668,2.398,2.734c0,0.217-0.023,0.385-0.035,0.492H250.245z M253.339,166.476c0.012-0.672-0.275-1.715-1.463-1.715
		c-1.066,0-1.535,0.983-1.619,1.715H253.339z"/>
	<path d="M258.884,169.943l-0.084-0.732h-0.037c-0.322,0.456-0.947,0.863-1.775,0.863c-1.174,0-1.773-0.827-1.773-1.666
		c0-1.404,1.246-2.172,3.49-2.159v-0.12c0-0.479-0.133-1.344-1.32-1.344c-0.539,0-1.104,0.168-1.512,0.432l-0.238-0.695
		c0.479-0.312,1.174-0.516,1.906-0.516c1.775,0,2.207,1.211,2.207,2.375v2.171c0,0.503,0.023,0.995,0.096,1.392H258.884z
		 M258.728,166.98c-1.152-0.023-2.459,0.18-2.459,1.307c0,0.684,0.455,1.008,0.996,1.008c0.756,0,1.234-0.479,1.402-0.971
		c0.037-0.108,0.061-0.229,0.061-0.336V166.98z"/>
	<path d="M261.452,165.708c0-0.6-0.012-1.092-0.049-1.57h0.924l0.049,0.936h0.035c0.324-0.553,0.863-1.068,1.824-1.068
		c0.791,0,1.391,0.48,1.643,1.164h0.023c0.18-0.324,0.408-0.576,0.648-0.756c0.348-0.264,0.73-0.408,1.283-0.408
		c0.768,0,1.906,0.504,1.906,2.52v3.418h-1.031v-3.287c0-1.115-0.408-1.787-1.26-1.787c-0.6,0-1.066,0.444-1.246,0.96
		c-0.049,0.144-0.084,0.336-0.084,0.528v3.586h-1.031v-3.479c0-0.924-0.408-1.596-1.213-1.596c-0.658,0-1.139,0.528-1.307,1.057
		c-0.061,0.155-0.084,0.335-0.084,0.516v3.502h-1.031V165.708z"/>
</g>
<rect x="160.603" y="192.618" fill="none" stroke="#000000" stroke-miterlimit="10" width="124.724" height="22.678"/>
<line fill="none" stroke="#000000" stroke-miterlimit="10" x1="160.603" y1="209.627" x2="285.326" y2="209.627"/>
<line fill="none" stroke="#000000" stroke-miterlimit="10" x1="160.603" y1="212.462" x2="285.326" y2="212.462"/>
<g>
	<path d="M194.366,195.97c0.504-0.084,1.164-0.156,2.004-0.156c1.031,0,1.787,0.24,2.268,0.672c0.443,0.385,0.707,0.972,0.707,1.691
		c0,0.731-0.217,1.307-0.625,1.727c-0.551,0.588-1.451,0.888-2.469,0.888c-0.313,0-0.602-0.012-0.84-0.071v3.238h-1.045V195.97z
		 M195.411,199.868c0.227,0.06,0.516,0.084,0.863,0.084c1.26,0,2.027-0.612,2.027-1.728c0-1.067-0.756-1.583-1.908-1.583
		c-0.455,0-0.803,0.036-0.982,0.084V199.868z"/>
	<path d="M200.525,199.964c0-0.684-0.014-1.271-0.049-1.811h0.924l0.035,1.139h0.049c0.264-0.779,0.898-1.271,1.607-1.271
		c0.119,0,0.203,0.012,0.299,0.036v0.995c-0.107-0.023-0.215-0.035-0.359-0.035c-0.744,0-1.271,0.563-1.416,1.355
		c-0.023,0.144-0.047,0.311-0.047,0.491v3.095h-1.043V199.964z"/>
	<path d="M205.671,196.522c0.012,0.36-0.252,0.647-0.672,0.647c-0.371,0-0.637-0.287-0.637-0.647c0-0.372,0.277-0.659,0.66-0.659
		C205.419,195.863,205.671,196.15,205.671,196.522z M204.495,203.958v-5.805h1.055v5.805H204.495z"/>
	<path d="M207.304,199.724c0-0.6-0.014-1.092-0.049-1.57h0.936l0.061,0.959h0.023c0.287-0.552,0.959-1.092,1.918-1.092
		c0.805,0,2.051,0.48,2.051,2.471v3.467h-1.055v-3.347c0-0.936-0.348-1.715-1.344-1.715c-0.695,0-1.234,0.491-1.414,1.079
		c-0.049,0.132-0.072,0.313-0.072,0.492v3.49h-1.055V199.724z"/>
	<path d="M215.187,196.486v1.668h1.512v0.803h-1.512v3.131c0,0.719,0.203,1.127,0.791,1.127c0.275,0,0.48-0.036,0.611-0.072
		l0.049,0.792c-0.203,0.084-0.527,0.144-0.936,0.144c-0.492,0-0.887-0.156-1.139-0.443c-0.301-0.313-0.408-0.828-0.408-1.512v-3.166
		h-0.9v-0.803h0.9v-1.392L215.187,196.486z"/>
	<path d="M217.779,202.687c0.469,0.287,1.152,0.527,1.871,0.527c1.068,0,1.691-0.563,1.691-1.379c0-0.756-0.432-1.188-1.523-1.607
		c-1.318-0.468-2.135-1.151-2.135-2.291c0-1.259,1.043-2.194,2.615-2.194c0.826,0,1.428,0.192,1.787,0.396l-0.289,0.852
		c-0.264-0.145-0.803-0.384-1.535-0.384c-1.104,0-1.521,0.659-1.521,1.212c0,0.755,0.49,1.127,1.605,1.559
		c1.367,0.527,2.064,1.188,2.064,2.375c0,1.247-0.924,2.326-2.832,2.326c-0.779,0-1.631-0.228-2.063-0.516L217.779,202.687z"/>
	<path d="M225.038,196.486v1.668h1.512v0.803h-1.512v3.131c0,0.719,0.203,1.127,0.791,1.127c0.275,0,0.48-0.036,0.611-0.072
		l0.049,0.792c-0.203,0.084-0.527,0.144-0.936,0.144c-0.492,0-0.887-0.156-1.139-0.443c-0.301-0.313-0.408-0.828-0.408-1.512v-3.166
		h-0.9v-0.803h0.9v-1.392L225.038,196.486z"/>
	<path d="M227.74,199.964c0-0.684-0.012-1.271-0.049-1.811h0.924l0.037,1.139h0.047c0.264-0.779,0.9-1.271,1.607-1.271
		c0.121,0,0.205,0.012,0.301,0.036v0.995c-0.109-0.023-0.217-0.035-0.361-0.035c-0.742,0-1.27,0.563-1.414,1.355
		c-0.023,0.144-0.049,0.311-0.049,0.491v3.095h-1.043V199.964z"/>
	<path d="M232.13,201.247c0.025,1.428,0.936,2.015,1.992,2.015c0.756,0,1.211-0.132,1.607-0.3l0.18,0.756
		c-0.373,0.168-1.008,0.359-1.932,0.359c-1.787,0-2.854-1.175-2.854-2.926c0-1.752,1.031-3.131,2.723-3.131
		c1.895,0,2.398,1.668,2.398,2.734c0,0.217-0.025,0.385-0.037,0.492H232.13z M235.226,200.491c0.012-0.672-0.277-1.715-1.463-1.715
		c-1.068,0-1.535,0.983-1.619,1.715H235.226z"/>
	<path d="M240.769,203.958l-0.084-0.732h-0.035c-0.324,0.456-0.947,0.863-1.775,0.863c-1.176,0-1.775-0.827-1.775-1.666
		c0-1.404,1.248-2.172,3.49-2.159v-0.12c0-0.479-0.131-1.344-1.318-1.344c-0.541,0-1.104,0.168-1.512,0.432l-0.24-0.695
		c0.48-0.312,1.176-0.516,1.906-0.516c1.775,0,2.207,1.211,2.207,2.375v2.171c0,0.503,0.025,0.995,0.096,1.392H240.769z
		 M240.613,200.995c-1.15-0.023-2.457,0.18-2.457,1.307c0,0.684,0.455,1.008,0.994,1.008c0.756,0,1.236-0.479,1.404-0.971
		c0.035-0.108,0.059-0.229,0.059-0.336V200.995z"/>
	<path d="M243.339,199.724c0-0.6-0.012-1.092-0.049-1.57h0.924l0.049,0.936h0.035c0.324-0.553,0.863-1.068,1.824-1.068
		c0.791,0,1.391,0.48,1.643,1.164h0.023c0.18-0.324,0.408-0.576,0.648-0.756c0.348-0.264,0.73-0.408,1.283-0.408
		c0.768,0,1.906,0.504,1.906,2.52v3.418h-1.031v-3.287c0-1.115-0.408-1.787-1.26-1.787c-0.6,0-1.066,0.444-1.246,0.96
		c-0.049,0.144-0.084,0.336-0.084,0.528v3.586h-1.031v-3.479c0-0.924-0.408-1.596-1.213-1.596c-0.658,0-1.139,0.528-1.307,1.057
		c-0.061,0.155-0.084,0.335-0.084,0.516v3.502h-1.031V199.724z"/>
</g>
<line fill="none" stroke="#000000" stroke-miterlimit="10" x1="160.603" y1="133.091" x2="146.43" y2="133.091"/>
<line fill="none" stroke="#000000" stroke-miterlimit="10" x1="160.603" y1="164.272" x2="146.43" y2="164.272"/>
<rect x="137.925" y="82.067" fill="none" stroke="#000000" stroke-miterlimit="10" width="124.725" height="22.678"/>
<line fill="none" stroke="#000000" stroke-miterlimit="10" x1="137.925" y1="99.075" x2="262.65" y2="99.075"/>
<line fill="none" stroke="#000000" stroke-miterlimit="10" x1="137.925" y1="101.911" x2="262.65" y2="101.911"/>
<g>
	<path d="M152.813,85.323h4.354v0.875h-3.31v2.687h3.058v0.863h-3.058v3.658h-1.044V85.323z"/>
	<path d="M159.486,85.97c0.012,0.36-0.252,0.648-0.672,0.648c-0.371,0-0.637-0.288-0.637-0.648c0-0.372,0.277-0.66,0.66-0.66
		C159.234,85.311,159.486,85.599,159.486,85.97z M158.31,93.406v-5.805h1.055v5.805H158.31z"/>
	<path d="M161.118,84.891h1.055v8.515h-1.055V84.891z"/>
	<path d="M165.22,85.935v1.667h1.512v0.803h-1.512v3.13c0,0.72,0.205,1.127,0.793,1.127c0.275,0,0.479-0.036,0.611-0.072
		l0.047,0.792c-0.203,0.084-0.527,0.144-0.936,0.144c-0.49,0-0.887-0.156-1.139-0.444c-0.299-0.312-0.408-0.828-0.408-1.511v-3.167
		h-0.898v-0.803h0.898v-1.391L165.22,85.935z"/>
	<path d="M168.437,90.696c0.025,1.427,0.936,2.015,1.992,2.015c0.756,0,1.211-0.132,1.607-0.3l0.18,0.756
		c-0.373,0.168-1.008,0.36-1.932,0.36c-1.787,0-2.854-1.175-2.854-2.927c0-1.751,1.031-3.13,2.723-3.13
		c1.895,0,2.398,1.667,2.398,2.734c0,0.216-0.025,0.384-0.037,0.492H168.437z M171.532,89.94c0.012-0.671-0.277-1.715-1.463-1.715
		c-1.068,0-1.535,0.983-1.619,1.715H171.532z"/>
	<path d="M173.863,89.413c0-0.684-0.014-1.271-0.049-1.811h0.924l0.035,1.139h0.049c0.264-0.779,0.898-1.271,1.607-1.271
		c0.119,0,0.203,0.012,0.299,0.036v0.996c-0.107-0.024-0.215-0.036-0.359-0.036c-0.744,0-1.271,0.564-1.416,1.355
		c-0.023,0.144-0.047,0.312-0.047,0.492v3.094h-1.043V89.413z"/>
	<path d="M184.73,89.281c0,2.782-1.691,4.257-3.754,4.257c-2.135,0-3.635-1.655-3.635-4.102c0-2.567,1.596-4.246,3.754-4.246
		C183.302,85.191,184.73,86.882,184.73,89.281z M178.456,89.413c0,1.727,0.936,3.274,2.58,3.274c1.654,0,2.59-1.523,2.59-3.358
		c0-1.607-0.84-3.286-2.578-3.286C179.322,86.043,178.456,87.637,178.456,89.413z"/>
	<path d="M190.947,91.823c0,0.6,0.012,1.127,0.049,1.583h-0.936l-0.061-0.947h-0.023c-0.277,0.467-0.889,1.079-1.92,1.079
		c-0.912,0-2.002-0.503-2.002-2.542v-3.394h1.055v3.214c0,1.103,0.336,1.847,1.295,1.847c0.707,0,1.199-0.492,1.391-0.959
		c0.061-0.156,0.098-0.348,0.098-0.54v-3.562h1.055V91.823z"/>
	<path d="M193.972,85.935v1.667h1.512v0.803h-1.512v3.13c0,0.72,0.205,1.127,0.793,1.127c0.275,0,0.479-0.036,0.611-0.072
		l0.047,0.792c-0.203,0.084-0.527,0.144-0.936,0.144c-0.49,0-0.887-0.156-1.139-0.444c-0.299-0.312-0.408-0.828-0.408-1.511v-3.167
		h-0.898v-0.803h0.898v-1.391L193.972,85.935z"/>
	<path d="M196.673,89.497c0-0.744-0.023-1.343-0.049-1.895h0.949l0.047,0.995h0.023c0.432-0.708,1.115-1.127,2.064-1.127
		c1.402,0,2.457,1.187,2.457,2.95c0,2.087-1.27,3.118-2.639,3.118c-0.768,0-1.438-0.336-1.785-0.912h-0.025v3.154h-1.043V89.497z
		 M197.716,91.044c0,0.156,0.025,0.3,0.049,0.432c0.191,0.732,0.828,1.235,1.582,1.235c1.115,0,1.764-0.911,1.764-2.243
		c0-1.163-0.611-2.159-1.727-2.159c-0.721,0-1.393,0.516-1.596,1.307c-0.035,0.132-0.072,0.288-0.072,0.432V91.044z"/>
	<path d="M208.359,91.823c0,0.6,0.012,1.127,0.049,1.583h-0.936l-0.061-0.947h-0.023c-0.277,0.467-0.889,1.079-1.92,1.079
		c-0.912,0-2.002-0.503-2.002-2.542v-3.394h1.055v3.214c0,1.103,0.336,1.847,1.295,1.847c0.707,0,1.199-0.492,1.391-0.959
		c0.061-0.156,0.098-0.348,0.098-0.54v-3.562h1.055V91.823z"/>
	<path d="M211.384,85.935v1.667h1.512v0.803h-1.512v3.13c0,0.72,0.203,1.127,0.791,1.127c0.275,0,0.48-0.036,0.611-0.072
		l0.049,0.792c-0.203,0.084-0.527,0.144-0.936,0.144c-0.492,0-0.887-0.156-1.139-0.444c-0.301-0.312-0.408-0.828-0.408-1.511v-3.167
		h-0.9v-0.803h0.9v-1.391L211.384,85.935z"/>
	<path d="M213.978,92.135c0.467,0.288,1.15,0.528,1.871,0.528c1.066,0,1.691-0.563,1.691-1.379c0-0.755-0.434-1.187-1.523-1.607
		c-1.32-0.468-2.135-1.151-2.135-2.291c0-1.259,1.043-2.195,2.613-2.195c0.828,0,1.428,0.192,1.787,0.396l-0.287,0.852
		c-0.264-0.144-0.805-0.384-1.535-0.384c-1.104,0-1.523,0.66-1.523,1.211c0,0.755,0.492,1.127,1.607,1.559
		c1.367,0.528,2.063,1.188,2.063,2.375c0,1.247-0.924,2.327-2.83,2.327c-0.779,0-1.631-0.228-2.063-0.516L213.978,92.135z"/>
	<path d="M221.236,85.935v1.667h1.512v0.803h-1.512v3.13c0,0.72,0.205,1.127,0.793,1.127c0.275,0,0.479-0.036,0.611-0.072
		l0.047,0.792c-0.203,0.084-0.527,0.144-0.936,0.144c-0.49,0-0.887-0.156-1.139-0.444c-0.299-0.312-0.408-0.828-0.408-1.511v-3.167
		h-0.898v-0.803h0.898v-1.391L221.236,85.935z"/>
	<path d="M223.937,89.413c0-0.684-0.012-1.271-0.049-1.811h0.924l0.037,1.139h0.047c0.264-0.779,0.9-1.271,1.607-1.271
		c0.121,0,0.205,0.012,0.301,0.036v0.996c-0.109-0.024-0.217-0.036-0.361-0.036c-0.742,0-1.27,0.564-1.414,1.355
		c-0.023,0.144-0.049,0.312-0.049,0.492v3.094h-1.043V89.413z"/>
	<path d="M228.327,90.696c0.025,1.427,0.936,2.015,1.992,2.015c0.756,0,1.211-0.132,1.607-0.3l0.18,0.756
		c-0.373,0.168-1.008,0.36-1.932,0.36c-1.787,0-2.854-1.175-2.854-2.927c0-1.751,1.031-3.13,2.723-3.13
		c1.895,0,2.398,1.667,2.398,2.734c0,0.216-0.025,0.384-0.037,0.492H228.327z M231.423,89.94c0.012-0.671-0.277-1.715-1.463-1.715
		c-1.068,0-1.535,0.983-1.619,1.715H231.423z"/>
	<path d="M236.968,93.406l-0.084-0.731h-0.037c-0.322,0.456-0.947,0.863-1.775,0.863c-1.174,0-1.773-0.828-1.773-1.667
		c0-1.403,1.246-2.171,3.49-2.159v-0.12c0-0.479-0.133-1.343-1.32-1.343c-0.539,0-1.104,0.168-1.512,0.432l-0.238-0.695
		c0.479-0.312,1.174-0.516,1.906-0.516c1.775,0,2.207,1.211,2.207,2.375v2.171c0,0.503,0.023,0.995,0.096,1.391H236.968z
		 M236.812,90.444c-1.152-0.024-2.459,0.18-2.459,1.307c0,0.684,0.455,1.008,0.996,1.008c0.756,0,1.234-0.48,1.402-0.972
		c0.037-0.108,0.061-0.228,0.061-0.336V90.444z"/>
	<path d="M239.536,89.173c0-0.6-0.012-1.091-0.049-1.571h0.924l0.049,0.936h0.035c0.324-0.552,0.863-1.067,1.824-1.067
		c0.791,0,1.391,0.479,1.643,1.163h0.023c0.18-0.324,0.408-0.576,0.648-0.755c0.348-0.264,0.73-0.408,1.283-0.408
		c0.768,0,1.906,0.503,1.906,2.519v3.418h-1.031V90.12c0-1.115-0.408-1.787-1.26-1.787c-0.6,0-1.066,0.444-1.246,0.959
		c-0.049,0.144-0.084,0.336-0.084,0.528v3.586h-1.031v-3.478c0-0.923-0.408-1.595-1.213-1.595c-0.658,0-1.139,0.528-1.307,1.056
		c-0.061,0.156-0.084,0.335-0.084,0.516v3.502h-1.031V89.173z"/>
</g>
<line fill="none" stroke="#000000" stroke-miterlimit="10" x1="137.926" y1="90.572" x2="123.752" y2="90.572"/>
</svg>
