<?xml version="1.0" encoding="UTF-8" standalone="no"?>
<!-- Generator: Adobe Illustrator 16.0.3, SVG Export Plug-In . SVG Version: 6.00 Build 0)  -->

<svg
   xmlns:dc="http://purl.org/dc/elements/1.1/"
   xmlns:cc="http://creativecommons.org/ns#"
   xmlns:rdf="http://www.w3.org/1999/02/22-rdf-syntax-ns#"
   xmlns:svg="http://www.w3.org/2000/svg"
   xmlns="http://www.w3.org/2000/svg"
   xmlns:sodipodi="http://sodipodi.sourceforge.net/DTD/sodipodi-0.dtd"
   xmlns:inkscape="http://www.inkscape.org/namespaces/inkscape"
   version="1.1"
   id="Layer_1"
   x="0px"
   y="0px"
   width="334.488px"
   height="220.965px"
   viewBox="-43.492 0 334.488 220.965"
   enable-background="new -43.492 0 334.488 220.965"
   xml:space="preserve"
   sodipodi:docname="OutputStream.svg"
   inkscape:version="0.92.3 (unknown)"><metadata
   id="metadata351"><rdf:RDF><cc:Work
       rdf:about=""><dc:format>image/svg+xml</dc:format><dc:type
         rdf:resource="http://purl.org/dc/dcmitype/StillImage" /><dc:title></dc:title></cc:Work></rdf:RDF></metadata><defs
   id="defs349" /><sodipodi:namedview
   pagecolor="#ffffff"
   bordercolor="#666666"
   borderopacity="1"
   objecttolerance="10"
   gridtolerance="10"
   guidetolerance="10"
   inkscape:pageopacity="0"
   inkscape:pageshadow="2"
   inkscape:window-width="1867"
   inkscape:window-height="1056"
   id="namedview347"
   showgrid="false"
   inkscape:zoom="2.6129008"
   inkscape:cx="167.244"
   inkscape:cy="110.4825"
   inkscape:window-x="53"
   inkscape:window-y="24"
   inkscape:window-maximized="1"
   inkscape:current-layer="Layer_1" />
<polygon
   fill="none"
   stroke="#000000"
   stroke-miterlimit="10"
   points="132.256,45.45 123.752,30.722 115.248,45.45 "
   id="polygon2" />
<polygon
   fill="none"
   stroke="#000000"
   stroke-miterlimit="10"
   points="154.935,121.752 146.431,107.023 137.925,121.752 "
   id="polygon4" />
<polyline
   fill="none"
   stroke="#000000"
   stroke-miterlimit="10"
   points="109.579,104.744 123.752,104.744 123.752,45.45 "
   id="polyline6" />
<polyline
   fill="none"
   stroke="#000000"
   stroke-miterlimit="10"
   points="146.431,121.752 146.431,201.122 160.603,201.122 "
   id="polyline8" />
<g
   id="g34"
   style="fill:#000080">
	<path
   d="m 95.692,12.745 c 0,2.782 -1.69,4.257 -3.754,4.257 -2.135,0 -3.634,-1.655 -3.634,-4.102 0,-2.567 1.596,-4.246 3.754,-4.246 2.207,10e-4 3.634,1.692 3.634,4.091 z m -6.273,0.132 c 0,1.727 0.936,3.274 2.579,3.274 1.655,0 2.59,-1.523 2.59,-3.358 0,-1.607 -0.839,-3.286 -2.578,-3.286 -1.727,0 -2.591,1.594 -2.591,3.37 z"
   id="path10"
   inkscape:connector-curvature="0"
   style="fill:#000080" />
	<path
   d="m 101.908,15.287 c 0,0.6 0.013,1.127 0.049,1.583 h -0.936 l -0.061,-0.947 h -0.023 c -0.276,0.467 -0.888,1.079 -1.919,1.079 -0.912,0 -2.003,-0.503 -2.003,-2.542 v -3.394 h 1.055 v 3.214 c 0,1.103 0.336,1.847 1.296,1.847 0.707,0 1.199,-0.492 1.391,-0.959 0.061,-0.156 0.097,-0.348 0.097,-0.54 v -3.562 h 1.055 v 4.221 z"
   id="path12"
   inkscape:connector-curvature="0"
   style="fill:#000080" />
	<path
   d="m 104.935,9.399 v 1.667 h 1.512 v 0.803 h -1.512 v 3.13 c 0,0.72 0.204,1.127 0.792,1.127 0.275,0 0.479,-0.036 0.611,-0.072 l 0.048,0.792 c -0.203,0.084 -0.527,0.144 -0.936,0.144 -0.491,0 -0.887,-0.156 -1.139,-0.444 -0.3,-0.312 -0.408,-0.828 -0.408,-1.511 v -3.167 h -0.899 v -0.803 h 0.899 v -1.39 z"
   id="path14"
   inkscape:connector-curvature="0"
   style="fill:#000080" />
	<path
   d="m 107.636,12.961 c 0,-0.744 -0.024,-1.343 -0.049,-1.895 h 0.948 l 0.048,0.995 h 0.023 c 0.432,-0.708 1.115,-1.127 2.063,-1.127 1.403,0 2.458,1.187 2.458,2.95 0,2.087 -1.271,3.118 -2.639,3.118 -0.768,0 -1.438,-0.336 -1.786,-0.912 h -0.024 v 3.154 h -1.043 v -6.283 z m 1.043,1.547 c 0,0.156 0.024,0.3 0.048,0.432 0.192,0.732 0.828,1.235 1.583,1.235 1.115,0 1.764,-0.911 1.764,-2.243 0,-1.163 -0.612,-2.159 -1.728,-2.159 -0.72,0 -1.392,0.516 -1.595,1.307 -0.036,0.132 -0.072,0.288 -0.072,0.432 z"
   id="path16"
   inkscape:connector-curvature="0"
   style="fill:#000080" />
	<path
   d="m 119.321,15.287 c 0,0.6 0.013,1.127 0.049,1.583 h -0.936 l -0.061,-0.947 h -0.023 c -0.276,0.467 -0.888,1.079 -1.919,1.079 -0.912,0 -2.003,-0.503 -2.003,-2.542 v -3.394 h 1.055 v 3.214 c 0,1.103 0.336,1.847 1.296,1.847 0.707,0 1.199,-0.492 1.391,-0.959 0.061,-0.156 0.097,-0.348 0.097,-0.54 v -3.562 h 1.055 v 4.221 z"
   id="path18"
   inkscape:connector-curvature="0"
   style="fill:#000080" />
	<path
   d="m 122.346,9.399 v 1.667 h 1.512 v 0.803 h -1.512 v 3.13 c 0,0.72 0.204,1.127 0.792,1.127 0.275,0 0.479,-0.036 0.611,-0.072 l 0.048,0.792 c -0.203,0.084 -0.527,0.144 -0.936,0.144 -0.491,0 -0.887,-0.156 -1.139,-0.444 -0.3,-0.312 -0.408,-0.828 -0.408,-1.511 v -3.167 h -0.899 v -0.803 h 0.899 v -1.39 z"
   id="path20"
   inkscape:connector-curvature="0"
   style="fill:#000080" />
	<path
   d="m 124.94,15.599 c 0.468,0.288 1.151,0.528 1.871,0.528 1.067,0 1.691,-0.563 1.691,-1.379 0,-0.755 -0.433,-1.187 -1.523,-1.607 -1.319,-0.468 -2.135,-1.151 -2.135,-2.291 0,-1.259 1.043,-2.195 2.614,-2.195 0.827,0 1.428,0.192 1.787,0.396 l -0.288,0.852 c -0.264,-0.144 -0.804,-0.384 -1.535,-0.384 -1.104,0 -1.523,0.66 -1.523,1.211 0,0.755 0.492,1.127 1.607,1.559 1.367,0.528 2.063,1.188 2.063,2.375 0,1.247 -0.924,2.327 -2.831,2.327 -0.779,0 -1.631,-0.228 -2.063,-0.516 z"
   id="path22"
   inkscape:connector-curvature="0"
   style="fill:#000080" />
	<path
   d="m 132.198,9.399 v 1.667 h 1.512 v 0.803 h -1.512 v 3.13 c 0,0.72 0.204,1.127 0.792,1.127 0.275,0 0.479,-0.036 0.611,-0.072 l 0.048,0.792 c -0.203,0.084 -0.527,0.144 -0.936,0.144 -0.491,0 -0.887,-0.156 -1.139,-0.444 -0.3,-0.312 -0.408,-0.828 -0.408,-1.511 v -3.167 h -0.899 v -0.803 h 0.899 v -1.39 z"
   id="path24"
   inkscape:connector-curvature="0"
   style="fill:#000080" />
	<path
   d="m 134.9,12.877 c 0,-0.684 -0.013,-1.271 -0.049,-1.811 h 0.924 l 0.036,1.139 h 0.048 c 0.264,-0.779 0.899,-1.271 1.607,-1.271 0.12,0 0.204,0.012 0.3,0.036 v 0.996 c -0.108,-0.024 -0.216,-0.036 -0.36,-0.036 -0.743,0 -1.271,0.564 -1.415,1.355 -0.023,0.144 -0.048,0.312 -0.048,0.492 v 3.094 H 134.9 Z"
   id="path26"
   inkscape:connector-curvature="0"
   style="fill:#000080" />
	<path
   d="m 139.29,14.16 c 0.024,1.427 0.936,2.015 1.991,2.015 0.756,0 1.211,-0.132 1.607,-0.3 l 0.18,0.756 c -0.372,0.168 -1.008,0.36 -1.931,0.36 -1.787,0 -2.854,-1.175 -2.854,-2.927 0,-1.751 1.031,-3.13 2.723,-3.13 1.895,0 2.398,1.667 2.398,2.734 0,0.216 -0.024,0.384 -0.036,0.492 z m 3.095,-0.756 c 0.012,-0.671 -0.276,-1.715 -1.463,-1.715 -1.067,0 -1.535,0.983 -1.619,1.715 z"
   id="path28"
   inkscape:connector-curvature="0"
   style="fill:#000080" />
	<path
   d="m 147.93,16.87 -0.084,-0.731 h -0.036 c -0.323,0.456 -0.947,0.863 -1.775,0.863 -1.175,0 -1.774,-0.828 -1.774,-1.667 0,-1.403 1.247,-2.171 3.49,-2.159 v -0.12 c 0,-0.479 -0.132,-1.343 -1.319,-1.343 -0.54,0 -1.104,0.168 -1.512,0.432 l -0.239,-0.695 c 0.479,-0.312 1.175,-0.516 1.906,-0.516 1.775,0 2.207,1.211 2.207,2.375 v 2.171 c 0,0.503 0.024,0.995 0.096,1.391 h -0.96 z m -0.156,-2.962 c -1.151,-0.024 -2.458,0.18 -2.458,1.307 0,0.684 0.455,1.008 0.995,1.008 0.756,0 1.235,-0.48 1.403,-0.972 0.036,-0.108 0.06,-0.228 0.06,-0.336 z"
   id="path30"
   inkscape:connector-curvature="0"
   style="fill:#000080" />
	<path
   d="m 150.499,12.636 c 0,-0.6 -0.013,-1.091 -0.049,-1.571 h 0.924 l 0.048,0.936 h 0.036 c 0.324,-0.552 0.863,-1.067 1.823,-1.067 0.791,0 1.391,0.479 1.643,1.163 h 0.024 c 0.18,-0.324 0.407,-0.576 0.647,-0.755 0.348,-0.264 0.731,-0.408 1.283,-0.408 0.768,0 1.907,0.503 1.907,2.519 v 3.418 h -1.031 v -3.286 c 0,-1.115 -0.408,-1.787 -1.26,-1.787 -0.6,0 -1.067,0.444 -1.247,0.959 -0.048,0.144 -0.084,0.336 -0.084,0.528 v 3.586 h -1.031 v -3.478 c 0,-0.923 -0.408,-1.595 -1.212,-1.595 -0.659,0 -1.139,0.528 -1.307,1.056 -0.061,0.156 -0.084,0.335 -0.084,0.516 v 3.502 h -1.031 v -4.236 z"
   id="path32"
   inkscape:connector-curvature="0"
   style="fill:#000080" />
</g>
<g
   id="g68"
   style="fill:#000080">
	<path
   d="m 0.822,65.48 h 4.354 v 0.875 h -3.31 v 2.687 h 3.059 v 0.863 h -3.06 v 3.658 H 0.822 Z"
   id="path36"
   inkscape:connector-curvature="0"
   style="fill:#000080" />
	<path
   d="m 7.493,66.127 c 0.012,0.36 -0.252,0.648 -0.672,0.648 -0.371,0 -0.636,-0.288 -0.636,-0.648 0,-0.372 0.276,-0.66 0.66,-0.66 0.396,0.001 0.648,0.289 0.648,0.66 z m -1.174,7.436 v -5.805 h 1.055 v 5.805 z"
   id="path38"
   inkscape:connector-curvature="0"
   style="fill:#000080" />
	<path
   d="m 9.126,65.048 h 1.055 v 8.515 H 9.126 Z"
   id="path40"
   inkscape:connector-curvature="0"
   style="fill:#000080" />
	<path
   d="m 12.545,70.853 c 0.024,1.427 0.936,2.015 1.991,2.015 0.756,0 1.211,-0.132 1.607,-0.3 l 0.18,0.756 c -0.372,0.168 -1.008,0.36 -1.931,0.36 -1.787,0 -2.854,-1.175 -2.854,-2.927 0,-1.751 1.031,-3.13 2.723,-3.13 1.895,0 2.398,1.667 2.398,2.734 0,0.216 -0.024,0.384 -0.036,0.492 z m 3.095,-0.756 c 0.012,-0.671 -0.276,-1.715 -1.463,-1.715 -1.067,0 -1.535,0.983 -1.619,1.715 z"
   id="path42"
   inkscape:connector-curvature="0"
   style="fill:#000080" />
	<path
   d="m 24.913,69.438 c 0,2.782 -1.69,4.257 -3.754,4.257 -2.135,0 -3.634,-1.655 -3.634,-4.102 0,-2.567 1.596,-4.246 3.754,-4.246 2.208,0.001 3.634,1.692 3.634,4.091 z m -6.272,0.132 c 0,1.727 0.936,3.274 2.579,3.274 1.655,0 2.59,-1.523 2.59,-3.358 0,-1.607 -0.839,-3.286 -2.578,-3.286 -1.727,-0.001 -2.591,1.594 -2.591,3.37 z"
   id="path44"
   inkscape:connector-curvature="0"
   style="fill:#000080" />
	<path
   d="m 31.13,71.98 c 0,0.6 0.013,1.127 0.049,1.583 h -0.936 l -0.061,-0.947 h -0.023 c -0.276,0.467 -0.888,1.079 -1.919,1.079 -0.912,0 -2.003,-0.503 -2.003,-2.542 v -3.394 h 1.055 v 3.214 c 0,1.103 0.336,1.847 1.296,1.847 0.707,0 1.199,-0.492 1.391,-0.959 0.061,-0.156 0.097,-0.348 0.097,-0.54 v -3.562 h 1.055 v 4.221 z"
   id="path46"
   inkscape:connector-curvature="0"
   style="fill:#000080" />
	<path
   d="m 34.156,66.092 v 1.667 h 1.512 v 0.803 h -1.512 v 3.13 c 0,0.72 0.204,1.127 0.792,1.127 0.275,0 0.479,-0.036 0.611,-0.072 l 0.048,0.792 c -0.203,0.084 -0.527,0.144 -0.936,0.144 -0.491,0 -0.887,-0.156 -1.139,-0.444 -0.3,-0.312 -0.408,-0.828 -0.408,-1.511 v -3.167 h -0.899 v -0.803 h 0.899 v -1.391 z"
   id="path48"
   inkscape:connector-curvature="0"
   style="fill:#000080" />
	<path
   d="m 36.858,69.654 c 0,-0.744 -0.024,-1.343 -0.049,-1.895 h 0.948 l 0.048,0.995 h 0.023 c 0.432,-0.708 1.115,-1.127 2.063,-1.127 1.403,0 2.458,1.187 2.458,2.95 0,2.087 -1.271,3.118 -2.639,3.118 -0.768,0 -1.438,-0.336 -1.786,-0.912 H 37.9 v 3.154 h -1.043 v -6.283 z m 1.043,1.546 c 0,0.156 0.024,0.3 0.048,0.432 0.192,0.732 0.828,1.235 1.583,1.235 1.115,0 1.764,-0.911 1.764,-2.243 0,-1.163 -0.612,-2.159 -1.728,-2.159 -0.72,0 -1.392,0.516 -1.595,1.307 -0.036,0.132 -0.072,0.288 -0.072,0.432 z"
   id="path50"
   inkscape:connector-curvature="0"
   style="fill:#000080" />
	<path
   d="m 48.542,71.98 c 0,0.6 0.013,1.127 0.049,1.583 h -0.936 l -0.061,-0.947 h -0.023 c -0.276,0.467 -0.888,1.079 -1.919,1.079 -0.912,0 -2.003,-0.503 -2.003,-2.542 v -3.394 h 1.055 v 3.214 c 0,1.103 0.336,1.847 1.296,1.847 0.707,0 1.199,-0.492 1.391,-0.959 0.061,-0.156 0.097,-0.348 0.097,-0.54 v -3.562 h 1.055 v 4.221 z"
   id="path52"
   inkscape:connector-curvature="0"
   style="fill:#000080" />
	<path
   d="m 51.569,66.092 v 1.667 h 1.512 v 0.803 h -1.512 v 3.13 c 0,0.72 0.204,1.127 0.792,1.127 0.275,0 0.479,-0.036 0.611,-0.072 l 0.048,0.792 c -0.203,0.084 -0.527,0.144 -0.936,0.144 -0.491,0 -0.887,-0.156 -1.139,-0.444 -0.3,-0.312 -0.408,-0.828 -0.408,-1.511 v -3.167 h -0.899 v -0.803 h 0.899 v -1.391 z"
   id="path54"
   inkscape:connector-curvature="0"
   style="fill:#000080" />
	<path
   d="m 54.161,72.292 c 0.468,0.288 1.151,0.528 1.871,0.528 1.067,0 1.691,-0.563 1.691,-1.379 0,-0.755 -0.433,-1.187 -1.523,-1.607 -1.319,-0.468 -2.135,-1.151 -2.135,-2.291 0,-1.259 1.043,-2.195 2.614,-2.195 0.827,0 1.428,0.192 1.787,0.396 l -0.288,0.852 c -0.264,-0.144 -0.804,-0.384 -1.535,-0.384 -1.104,0 -1.523,0.66 -1.523,1.211 0,0.755 0.492,1.127 1.607,1.559 1.367,0.528 2.063,1.188 2.063,2.375 0,1.247 -0.924,2.327 -2.831,2.327 -0.779,0 -1.631,-0.228 -2.063,-0.516 z"
   id="path56"
   inkscape:connector-curvature="0"
   style="fill:#000080" />
	<path
   d="m 61.42,66.092 v 1.667 h 1.512 v 0.803 H 61.42 v 3.13 c 0,0.72 0.204,1.127 0.792,1.127 0.275,0 0.479,-0.036 0.611,-0.072 l 0.048,0.792 c -0.203,0.084 -0.527,0.144 -0.936,0.144 -0.491,0 -0.887,-0.156 -1.139,-0.444 -0.3,-0.312 -0.408,-0.828 -0.408,-1.511 V 68.561 H 59.49 v -0.803 h 0.899 v -1.391 z"
   id="path58"
   inkscape:connector-curvature="0"
   style="fill:#000080" />
	<path
   d="m 64.121,69.57 c 0,-0.684 -0.013,-1.271 -0.049,-1.811 h 0.924 l 0.036,1.139 h 0.048 c 0.264,-0.779 0.899,-1.271 1.607,-1.271 0.12,0 0.204,0.012 0.3,0.036 v 0.996 c -0.108,-0.024 -0.216,-0.036 -0.36,-0.036 -0.743,0 -1.271,0.564 -1.415,1.355 -0.023,0.144 -0.048,0.312 -0.048,0.492 v 3.094 h -1.043 z"
   id="path60"
   inkscape:connector-curvature="0"
   style="fill:#000080" />
	<path
   d="m 68.513,70.853 c 0.024,1.427 0.936,2.015 1.991,2.015 0.756,0 1.211,-0.132 1.607,-0.3 l 0.18,0.756 c -0.372,0.168 -1.008,0.36 -1.931,0.36 -1.787,0 -2.854,-1.175 -2.854,-2.927 0,-1.751 1.031,-3.13 2.723,-3.13 1.895,0 2.398,1.667 2.398,2.734 0,0.216 -0.024,0.384 -0.036,0.492 z m 3.095,-0.756 c 0.012,-0.671 -0.276,-1.715 -1.463,-1.715 -1.067,0 -1.535,0.983 -1.619,1.715 z"
   id="path62"
   inkscape:connector-curvature="0"
   style="fill:#000080" />
	<path
   d="m 77.152,73.563 -0.084,-0.731 h -0.036 c -0.323,0.456 -0.947,0.863 -1.775,0.863 -1.175,0 -1.774,-0.828 -1.774,-1.667 0,-1.403 1.247,-2.171 3.49,-2.159 v -0.12 c 0,-0.479 -0.132,-1.343 -1.319,-1.343 -0.54,0 -1.104,0.168 -1.512,0.432 l -0.239,-0.695 c 0.479,-0.312 1.175,-0.516 1.906,-0.516 1.775,0 2.207,1.211 2.207,2.375 v 2.171 c 0,0.503 0.024,0.995 0.096,1.391 h -0.96 z m -0.157,-2.962 c -1.151,-0.024 -2.458,0.18 -2.458,1.307 0,0.684 0.455,1.008 0.995,1.008 0.756,0 1.235,-0.48 1.403,-0.972 0.036,-0.108 0.06,-0.228 0.06,-0.336 z"
   id="path64"
   inkscape:connector-curvature="0"
   style="fill:#000080" />
	<path
   d="m 79.722,69.329 c 0,-0.6 -0.013,-1.091 -0.049,-1.571 h 0.924 l 0.048,0.936 h 0.036 c 0.324,-0.552 0.863,-1.067 1.823,-1.067 0.791,0 1.391,0.479 1.643,1.163 h 0.024 c 0.18,-0.324 0.407,-0.576 0.647,-0.755 0.348,-0.264 0.731,-0.408 1.283,-0.408 0.768,0 1.907,0.503 1.907,2.519 v 3.418 h -1.031 v -3.286 c 0,-1.115 -0.408,-1.787 -1.26,-1.787 -0.6,0 -1.067,0.444 -1.247,0.959 -0.048,0.144 -0.084,0.336 -0.084,0.528 v 3.586 h -1.031 v -3.478 c 0,-0.923 -0.408,-1.595 -1.212,-1.595 -0.659,0 -1.139,0.528 -1.307,1.056 -0.061,0.156 -0.084,0.335 -0.084,0.516 v 3.502 h -1.031 v -4.236 z"
   id="path66"
   inkscape:connector-curvature="0"
   style="fill:#000080" />
</g>
<rect
   x="-15.146"
   y="96.24"
   fill="none"
   stroke="#000000"
   stroke-miterlimit="10"
   width="124.725"
   height="22.678"
   id="rect70" />
<line
   fill="none"
   stroke="#000000"
   stroke-miterlimit="10"
   x1="-15.146"
   y1="113.248"
   x2="109.579"
   y2="113.248"
   id="line72" />
<line
   fill="none"
   stroke="#000000"
   stroke-miterlimit="10"
   x1="-15.146"
   y1="116.083"
   x2="109.579"
   y2="116.083"
   id="line74" />
<rect
   x="61.39"
   y="5.531"
   fill="none"
   stroke="#000000"
   stroke-miterlimit="10"
   width="124.725"
   height="22.678"
   id="rect76" />
<line
   fill="none"
   stroke="#000000"
   stroke-miterlimit="10"
   x1="61.39"
   y1="22.54"
   x2="186.115"
   y2="22.54"
   id="line78" />
<line
   fill="none"
   stroke="#000000"
   stroke-miterlimit="10"
   x1="61.39"
   y1="25.375"
   x2="186.115"
   y2="25.375"
   id="line80" />
<rect
   x="-15.146"
   y="62.224"
   fill="none"
   stroke="#000000"
   stroke-miterlimit="10"
   width="124.725"
   height="22.678"
   id="rect82" />
<line
   fill="none"
   stroke="#000000"
   stroke-miterlimit="10"
   x1="-15.146"
   y1="79.233"
   x2="109.579"
   y2="79.233"
   id="line84" />
<line
   fill="none"
   stroke="#000000"
   stroke-miterlimit="10"
   x1="-15.146"
   y1="82.068"
   x2="109.579"
   y2="82.068"
   id="line86" />
<g
   id="g130">
	<path
   d="M-12.052,99.603c0.456-0.096,1.176-0.168,1.907-0.168c1.044,0,1.715,0.18,2.219,0.588c0.42,0.312,0.672,0.792,0.672,1.427   c0,0.779-0.516,1.463-1.367,1.775v0.024c0.768,0.192,1.667,0.828,1.667,2.027c0,0.696-0.276,1.223-0.684,1.62   c-0.563,0.516-1.476,0.755-2.795,0.755c-0.72,0-1.271-0.048-1.619-0.096V99.603z M-11.008,102.913h0.947   c1.104,0,1.751-0.576,1.751-1.355c0-0.948-0.72-1.319-1.774-1.319c-0.48,0-0.756,0.036-0.924,0.072V102.913z M-11.008,106.787   c0.204,0.036,0.504,0.048,0.875,0.048c1.08,0,2.075-0.396,2.075-1.571c0-1.103-0.947-1.559-2.087-1.559h-0.863V106.787z"
   id="path88" />
	<path
   d="M-5.152,101.774l1.271,3.43c0.132,0.384,0.276,0.84,0.372,1.188h0.024c0.107-0.348,0.228-0.792,0.371-1.212l1.151-3.406   h1.116l-1.584,4.137c-0.755,1.991-1.271,3.011-1.99,3.635c-0.516,0.455-1.031,0.635-1.296,0.684l-0.264-0.888   c0.264-0.084,0.611-0.252,0.924-0.516c0.288-0.228,0.647-0.636,0.888-1.176c0.048-0.108,0.084-0.192,0.084-0.251   c0-0.061-0.024-0.145-0.072-0.276l-2.146-5.349H-5.152z"
   id="path90" />
	<path
   d="M1.387,100.107v1.667h1.512v0.803H1.387v3.131c0,0.719,0.204,1.127,0.792,1.127c0.275,0,0.479-0.036,0.611-0.072   l0.048,0.792c-0.203,0.084-0.527,0.144-0.936,0.144c-0.491,0-0.887-0.156-1.139-0.443c-0.3-0.313-0.408-0.828-0.408-1.512v-3.166   h-0.899v-0.803h0.899v-1.391L1.387,100.107z"
   id="path92" />
	<path
   d="M4.603,104.868c0.024,1.428,0.936,2.015,1.991,2.015c0.756,0,1.211-0.132,1.607-0.3l0.18,0.756   c-0.372,0.168-1.008,0.359-1.931,0.359c-1.787,0-2.854-1.175-2.854-2.926c0-1.751,1.031-3.13,2.723-3.13   c1.895,0,2.398,1.667,2.398,2.734c0,0.216-0.024,0.384-0.036,0.492H4.603z M7.698,104.113c0.012-0.671-0.276-1.715-1.463-1.715   c-1.067,0-1.535,0.983-1.619,1.715H7.698z"
   id="path94" />
	<path
   d="M11.371,105.036l-0.84,2.543H9.452l2.746-8.084h1.26l2.759,8.084h-1.115l-0.864-2.543H11.371z M14.021,104.221   l-0.791-2.327c-0.181-0.527-0.3-1.007-0.42-1.475h-0.024c-0.12,0.48-0.252,0.972-0.407,1.463l-0.792,2.339H14.021z"
   id="path96" />
	<path
   d="M17.337,103.585c0-0.684-0.013-1.271-0.049-1.811h0.924l0.036,1.139h0.048c0.264-0.779,0.899-1.271,1.607-1.271   c0.12,0,0.204,0.012,0.3,0.036v0.996c-0.108-0.024-0.216-0.036-0.36-0.036c-0.743,0-1.271,0.564-1.415,1.355   c-0.023,0.144-0.048,0.312-0.048,0.492v3.095h-1.043V103.585z"
   id="path98" />
	<path
   d="M21.308,103.585c0-0.684-0.013-1.271-0.049-1.811h0.924l0.036,1.139h0.048c0.264-0.779,0.899-1.271,1.607-1.271   c0.12,0,0.203,0.012,0.3,0.036v0.996c-0.108-0.024-0.216-0.036-0.36-0.036c-0.743,0-1.271,0.564-1.415,1.355   c-0.023,0.144-0.048,0.312-0.048,0.492v3.095h-1.043V103.585z"
   id="path100" />
	<path
   d="M28.386,107.579l-0.084-0.732h-0.036c-0.323,0.456-0.947,0.863-1.775,0.863c-1.175,0-1.774-0.827-1.774-1.666   c0-1.404,1.247-2.171,3.49-2.159v-0.12c0-0.479-0.132-1.343-1.319-1.343c-0.54,0-1.104,0.168-1.512,0.432l-0.239-0.695   c0.479-0.312,1.175-0.516,1.906-0.516c1.775,0,2.207,1.211,2.207,2.375v2.171c0,0.503,0.024,0.995,0.096,1.392H28.386z    M28.23,104.616c-1.151-0.024-2.458,0.18-2.458,1.307c0,0.684,0.455,1.008,0.995,1.008c0.756,0,1.235-0.479,1.403-0.971   c0.036-0.108,0.06-0.229,0.06-0.336V104.616z"
   id="path102" />
	<path
   d="M31.244,101.774l1.271,3.43c0.132,0.384,0.276,0.84,0.372,1.188h0.024c0.107-0.348,0.228-0.792,0.371-1.212l1.151-3.406   h1.115l-1.583,4.137c-0.755,1.991-1.271,3.011-1.99,3.635c-0.516,0.455-1.032,0.635-1.296,0.684l-0.264-0.888   c0.264-0.084,0.611-0.252,0.924-0.516c0.288-0.228,0.647-0.636,0.888-1.176c0.048-0.108,0.084-0.192,0.084-0.251   c0-0.061-0.024-0.145-0.072-0.276l-2.146-5.349H31.244z"
   id="path104" />
	<path
   d="M43.456,103.453c0,2.782-1.69,4.257-3.754,4.257c-2.135,0-3.634-1.654-3.634-4.101c0-2.567,1.596-4.246,3.754-4.246   C42.029,99.364,43.456,101.054,43.456,103.453z M37.183,103.585c0,1.727,0.936,3.273,2.579,3.273c1.655,0,2.591-1.522,2.591-3.357   c0-1.607-0.84-3.286-2.579-3.286C38.048,100.215,37.183,101.81,37.183,103.585z"
   id="path106" />
	<path
   d="M49.673,105.995c0,0.6,0.013,1.128,0.049,1.584h-0.936l-0.061-0.947h-0.023c-0.276,0.467-0.888,1.078-1.919,1.078   c-0.912,0-2.003-0.503-2.003-2.542v-3.394h1.055v3.214c0,1.103,0.336,1.847,1.296,1.847c0.707,0,1.199-0.492,1.391-0.959   c0.061-0.156,0.097-0.348,0.097-0.54v-3.562h1.055V105.995z"
   id="path108" />
	<path
   d="M52.699,100.107v1.667h1.512v0.803h-1.512v3.131c0,0.719,0.204,1.127,0.792,1.127c0.275,0,0.479-0.036,0.611-0.072   l0.048,0.792c-0.203,0.084-0.527,0.144-0.936,0.144c-0.491,0-0.887-0.156-1.139-0.443c-0.3-0.313-0.408-0.828-0.408-1.512v-3.166   h-0.899v-0.803h0.899v-1.391L52.699,100.107z"
   id="path110" />
	<path
   d="M55.4,103.669c0-0.744-0.024-1.343-0.049-1.895H56.3l0.048,0.995h0.023c0.432-0.708,1.115-1.127,2.063-1.127   c1.403,0,2.458,1.187,2.458,2.95c0,2.086-1.271,3.118-2.639,3.118c-0.768,0-1.438-0.336-1.786-0.911h-0.024v3.154H55.4V103.669z    M56.443,105.216c0,0.156,0.024,0.3,0.048,0.432c0.192,0.732,0.828,1.235,1.583,1.235c1.115,0,1.764-0.911,1.764-2.243   c0-1.163-0.612-2.159-1.728-2.159c-0.72,0-1.392,0.516-1.595,1.307c-0.036,0.132-0.072,0.288-0.072,0.432V105.216z"
   id="path112" />
	<path
   d="M67.085,105.995c0,0.6,0.013,1.128,0.049,1.584h-0.936l-0.061-0.947h-0.023c-0.276,0.467-0.888,1.078-1.919,1.078   c-0.912,0-2.003-0.503-2.003-2.542v-3.394h1.055v3.214c0,1.103,0.336,1.847,1.296,1.847c0.707,0,1.199-0.492,1.391-0.959   c0.061-0.156,0.097-0.348,0.097-0.54v-3.562h1.055V105.995z"
   id="path114" />
	<path
   d="M70.11,100.107v1.667h1.512v0.803H70.11v3.131c0,0.719,0.204,1.127,0.792,1.127c0.275,0,0.479-0.036,0.611-0.072   l0.048,0.792c-0.203,0.084-0.527,0.144-0.936,0.144c-0.491,0-0.887-0.156-1.139-0.443c-0.3-0.313-0.408-0.828-0.408-1.512v-3.166   h-0.899v-0.803h0.899v-1.391L70.11,100.107z"
   id="path116" />
	<path
   d="M72.704,106.308c0.468,0.287,1.151,0.527,1.871,0.527c1.067,0,1.691-0.563,1.691-1.379c0-0.756-0.433-1.188-1.523-1.607   c-1.319-0.468-2.135-1.151-2.135-2.291c0-1.259,1.043-2.195,2.614-2.195c0.827,0,1.428,0.192,1.787,0.396l-0.288,0.852   c-0.264-0.144-0.804-0.384-1.535-0.384c-1.104,0-1.522,0.66-1.522,1.211c0,0.755,0.491,1.127,1.606,1.559   c1.367,0.528,2.063,1.188,2.063,2.375c0,1.247-0.924,2.326-2.831,2.326c-0.779,0-1.631-0.228-2.063-0.516L72.704,106.308z"
   id="path118" />
	<path
   d="M79.963,100.107v1.667h1.512v0.803h-1.512v3.131c0,0.719,0.204,1.127,0.792,1.127c0.275,0,0.479-0.036,0.611-0.072   l0.048,0.792c-0.203,0.084-0.527,0.144-0.936,0.144c-0.491,0-0.887-0.156-1.139-0.443c-0.3-0.313-0.408-0.828-0.408-1.512v-3.166   h-0.899v-0.803h0.899v-1.391L79.963,100.107z"
   id="path120" />
	<path
   d="M82.664,103.585c0-0.684-0.013-1.271-0.049-1.811h0.924l0.036,1.139h0.048c0.264-0.779,0.899-1.271,1.607-1.271   c0.12,0,0.203,0.012,0.3,0.036v0.996c-0.108-0.024-0.216-0.036-0.36-0.036c-0.743,0-1.271,0.564-1.415,1.355   c-0.023,0.144-0.048,0.312-0.048,0.492v3.095h-1.043V103.585z"
   id="path122" />
	<path
   d="M87.054,104.868c0.024,1.428,0.936,2.015,1.991,2.015c0.756,0,1.211-0.132,1.607-0.3l0.18,0.756   c-0.372,0.168-1.008,0.359-1.931,0.359c-1.787,0-2.854-1.175-2.854-2.926c0-1.751,1.031-3.13,2.723-3.13   c1.895,0,2.398,1.667,2.398,2.734c0,0.216-0.024,0.384-0.036,0.492H87.054z M90.149,104.113c0.012-0.671-0.276-1.715-1.463-1.715   c-1.067,0-1.535,0.983-1.619,1.715H90.149z"
   id="path124" />
	<path
   d="M95.694,107.579l-0.084-0.732h-0.036c-0.324,0.456-0.947,0.863-1.775,0.863c-1.175,0-1.774-0.827-1.774-1.666   c0-1.404,1.247-2.171,3.49-2.159v-0.12c0-0.479-0.132-1.343-1.319-1.343c-0.54,0-1.104,0.168-1.512,0.432l-0.239-0.695   c0.479-0.312,1.175-0.516,1.906-0.516c1.775,0,2.207,1.211,2.207,2.375v2.171c0,0.503,0.024,0.995,0.096,1.392H95.694z    M95.538,104.616c-1.151-0.024-2.458,0.18-2.458,1.307c0,0.684,0.455,1.008,0.995,1.008c0.756,0,1.235-0.479,1.403-0.971   c0.036-0.108,0.06-0.229,0.06-0.336V104.616z"
   id="path126" />
	<path
   d="M98.263,103.345c0-0.6-0.013-1.091-0.049-1.571h0.924l0.048,0.936h0.036c0.324-0.552,0.863-1.067,1.823-1.067   c0.791,0,1.391,0.479,1.643,1.163h0.024c0.18-0.324,0.407-0.576,0.647-0.755c0.348-0.264,0.731-0.408,1.283-0.408   c0.768,0,1.907,0.503,1.907,2.519v3.418h-1.031v-3.287c0-1.115-0.408-1.787-1.26-1.787c-0.6,0-1.067,0.444-1.247,0.959   c-0.048,0.144-0.084,0.336-0.084,0.528v3.586h-1.031v-3.479c0-0.923-0.408-1.595-1.212-1.595c-0.659,0-1.139,0.528-1.307,1.056   c-0.061,0.156-0.084,0.335-0.084,0.516v3.502h-1.031V103.345z"
   id="path128" />
</g>
<rect
   x="137.925"
   y="48.052"
   fill="none"
   stroke="#000000"
   stroke-miterlimit="10"
   width="124.725"
   height="22.678"
   id="rect132" />
<line
   fill="none"
   stroke="#000000"
   stroke-miterlimit="10"
   x1="137.925"
   y1="65.06"
   x2="262.65"
   y2="65.06"
   id="line134" />
<line
   fill="none"
   stroke="#000000"
   stroke-miterlimit="10"
   x1="137.925"
   y1="67.895"
   x2="262.65"
   y2="67.895"
   id="line136" />
<g
   id="g174"
   style="fill:#000080">
	<path
   d="m 155.462,55.265 c 0,2.782 -1.69,4.257 -3.754,4.257 -2.135,0 -3.634,-1.655 -3.634,-4.102 0,-2.567 1.596,-4.246 3.754,-4.246 2.207,0.002 3.634,1.692 3.634,4.091 z m -6.273,0.132 c 0,1.727 0.936,3.274 2.579,3.274 1.655,0 2.59,-1.523 2.59,-3.358 0,-1.607 -0.839,-3.286 -2.578,-3.286 -1.727,0 -2.591,1.595 -2.591,3.37 z"
   id="path138"
   inkscape:connector-curvature="0"
   style="fill:#000080" />
	<path
   d="m 156.738,59.391 c 0.023,-0.396 0.049,-0.983 0.049,-1.499 v -7.016 h 1.043 v 3.646 h 0.023 c 0.371,-0.648 1.043,-1.067 1.979,-1.067 1.439,0 2.459,1.199 2.447,2.962 0,2.075 -1.307,3.106 -2.604,3.106 -0.838,0 -1.51,-0.324 -1.941,-1.091 h -0.037 l -0.047,0.959 z m 1.091,-2.327 c 0,0.132 0.023,0.264 0.047,0.384 0.205,0.731 0.816,1.235 1.584,1.235 1.104,0 1.764,-0.899 1.764,-2.231 0,-1.163 -0.6,-2.159 -1.729,-2.159 -0.719,0 -1.391,0.492 -1.607,1.295 -0.023,0.12 -0.059,0.264 -0.059,0.432 z"
   id="path140"
   inkscape:connector-curvature="0"
   style="fill:#000080" />
	<path
   d="m 162.198,61.07 c 0.48,-0.036 0.898,-0.168 1.15,-0.444 0.289,-0.336 0.396,-0.792 0.396,-2.183 v -4.857 h 1.055 v 5.265 c 0,1.127 -0.18,1.859 -0.695,2.387 -0.467,0.468 -1.234,0.66 -1.799,0.66 z m 2.723,-9.115 c 0.012,0.348 -0.24,0.648 -0.66,0.648 -0.396,0 -0.646,-0.3 -0.646,-0.648 0,-0.372 0.275,-0.66 0.67,-0.66 0.384,0 0.636,0.288 0.636,0.66 z"
   id="path142"
   inkscape:connector-curvature="0"
   style="fill:#000080" />
	<path
   d="m 167.116,56.68 c 0.025,1.427 0.936,2.015 1.992,2.015 0.756,0 1.211,-0.132 1.607,-0.3 l 0.18,0.756 c -0.373,0.168 -1.008,0.36 -1.932,0.36 -1.787,0 -2.854,-1.175 -2.854,-2.927 0,-1.751 1.031,-3.13 2.723,-3.13 1.895,0 2.398,1.667 2.398,2.734 0,0.216 -0.025,0.384 -0.037,0.492 z m 3.096,-0.755 c 0.012,-0.671 -0.277,-1.715 -1.463,-1.715 -1.068,0 -1.535,0.983 -1.619,1.715 z"
   id="path144"
   inkscape:connector-curvature="0"
   style="fill:#000080" />
	<path
   d="m 176.679,59.175 c -0.275,0.144 -0.887,0.336 -1.668,0.336 -1.75,0 -2.889,-1.188 -2.889,-2.962 0,-1.787 1.223,-3.083 3.117,-3.083 0.623,0 1.176,0.156 1.463,0.3 l -0.238,0.815 c -0.252,-0.144 -0.648,-0.276 -1.225,-0.276 -1.33,0 -2.051,0.984 -2.051,2.195 0,1.343 0.863,2.171 2.016,2.171 0.6,0 0.994,-0.156 1.295,-0.288 z"
   id="path146"
   inkscape:connector-curvature="0"
   style="fill:#000080" />
	<path
   d="m 179.345,51.919 v 1.667 h 1.512 v 0.803 h -1.512 v 3.13 c 0,0.72 0.203,1.127 0.791,1.127 0.275,0 0.48,-0.036 0.611,-0.072 l 0.049,0.792 c -0.203,0.084 -0.527,0.144 -0.936,0.144 -0.492,0 -0.887,-0.156 -1.139,-0.444 -0.301,-0.312 -0.408,-0.828 -0.408,-1.511 v -3.167 h -0.9 v -0.803 h 0.9 v -1.391 z"
   id="path148"
   inkscape:connector-curvature="0"
   style="fill:#000080" />
	<path
   d="m 188.99,55.265 c 0,2.782 -1.691,4.257 -3.754,4.257 -2.135,0 -3.635,-1.655 -3.635,-4.102 0,-2.567 1.596,-4.246 3.754,-4.246 2.207,0.002 3.635,1.692 3.635,4.091 z m -6.274,0.132 c 0,1.727 0.936,3.274 2.58,3.274 1.654,0 2.59,-1.523 2.59,-3.358 0,-1.607 -0.84,-3.286 -2.578,-3.286 -1.727,0 -2.592,1.595 -2.592,3.37 z"
   id="path150"
   inkscape:connector-curvature="0"
   style="fill:#000080" />
	<path
   d="m 195.206,57.808 c 0,0.6 0.012,1.127 0.049,1.583 h -0.936 l -0.061,-0.947 h -0.023 c -0.277,0.467 -0.889,1.079 -1.92,1.079 -0.912,0 -2.002,-0.503 -2.002,-2.542 v -3.394 h 1.055 v 3.214 c 0,1.103 0.336,1.847 1.295,1.847 0.707,0 1.199,-0.492 1.391,-0.959 0.061,-0.156 0.098,-0.348 0.098,-0.54 v -3.562 h 1.055 v 4.221 z"
   id="path152"
   inkscape:connector-curvature="0"
   style="fill:#000080" />
	<path
   d="m 198.232,51.919 v 1.667 h 1.512 v 0.803 h -1.512 v 3.13 c 0,0.72 0.205,1.127 0.793,1.127 0.275,0 0.479,-0.036 0.611,-0.072 l 0.047,0.792 c -0.203,0.084 -0.527,0.144 -0.936,0.144 -0.49,0 -0.887,-0.156 -1.139,-0.444 -0.299,-0.312 -0.408,-0.828 -0.408,-1.511 v -3.167 h -0.898 v -0.803 h 0.898 v -1.391 z"
   id="path154"
   inkscape:connector-curvature="0"
   style="fill:#000080" />
	<path
   d="m 200.933,55.481 c 0,-0.744 -0.023,-1.343 -0.049,-1.895 h 0.949 l 0.047,0.995 h 0.023 c 0.432,-0.708 1.115,-1.127 2.064,-1.127 1.402,0 2.457,1.187 2.457,2.95 0,2.087 -1.27,3.118 -2.639,3.118 -0.768,0 -1.438,-0.336 -1.785,-0.912 h -0.025 v 3.154 h -1.043 v -6.283 z m 1.043,1.547 c 0,0.156 0.025,0.3 0.049,0.432 0.191,0.732 0.828,1.235 1.582,1.235 1.115,0 1.764,-0.911 1.764,-2.243 0,-1.163 -0.611,-2.159 -1.727,-2.159 -0.721,0 -1.393,0.516 -1.596,1.307 -0.035,0.132 -0.072,0.288 -0.072,0.432 z"
   id="path156"
   inkscape:connector-curvature="0"
   style="fill:#000080" />
	<path
   d="m 212.618,57.808 c 0,0.6 0.012,1.127 0.049,1.583 h -0.936 l -0.061,-0.947 h -0.023 c -0.277,0.467 -0.889,1.079 -1.92,1.079 -0.912,0 -2.002,-0.503 -2.002,-2.542 v -3.394 h 1.055 v 3.214 c 0,1.103 0.336,1.847 1.295,1.847 0.707,0 1.199,-0.492 1.391,-0.959 0.061,-0.156 0.098,-0.348 0.098,-0.54 v -3.562 h 1.055 v 4.221 z"
   id="path158"
   inkscape:connector-curvature="0"
   style="fill:#000080" />
	<path
   d="m 215.644,51.919 v 1.667 h 1.512 v 0.803 h -1.512 v 3.13 c 0,0.72 0.203,1.127 0.791,1.127 0.275,0 0.48,-0.036 0.611,-0.072 l 0.049,0.792 c -0.203,0.084 -0.527,0.144 -0.936,0.144 -0.492,0 -0.887,-0.156 -1.139,-0.444 -0.301,-0.312 -0.408,-0.828 -0.408,-1.511 v -3.167 h -0.9 v -0.803 h 0.9 v -1.391 z"
   id="path160"
   inkscape:connector-curvature="0"
   style="fill:#000080" />
	<path
   d="m 218.238,58.119 c 0.467,0.288 1.15,0.528 1.871,0.528 1.066,0 1.691,-0.563 1.691,-1.379 0,-0.755 -0.434,-1.187 -1.523,-1.607 -1.32,-0.468 -2.135,-1.151 -2.135,-2.291 0,-1.259 1.043,-2.195 2.613,-2.195 0.828,0 1.428,0.192 1.787,0.396 l -0.287,0.852 c -0.264,-0.144 -0.805,-0.384 -1.535,-0.384 -1.104,0 -1.523,0.66 -1.523,1.211 0,0.755 0.492,1.127 1.607,1.559 1.367,0.528 2.063,1.188 2.063,2.375 0,1.247 -0.924,2.327 -2.83,2.327 -0.779,0 -1.631,-0.228 -2.063,-0.516 z"
   id="path162"
   inkscape:connector-curvature="0"
   style="fill:#000080" />
	<path
   d="m 225.495,51.919 v 1.667 h 1.512 v 0.803 h -1.512 v 3.13 c 0,0.72 0.205,1.127 0.793,1.127 0.275,0 0.479,-0.036 0.611,-0.072 l 0.047,0.792 c -0.203,0.084 -0.527,0.144 -0.936,0.144 -0.49,0 -0.887,-0.156 -1.139,-0.444 -0.299,-0.312 -0.408,-0.828 -0.408,-1.511 v -3.167 h -0.898 v -0.803 h 0.898 v -1.391 z"
   id="path164"
   inkscape:connector-curvature="0"
   style="fill:#000080" />
	<path
   d="m 228.197,55.397 c 0,-0.684 -0.012,-1.271 -0.049,-1.811 h 0.924 l 0.037,1.139 h 0.047 c 0.264,-0.779 0.9,-1.271 1.607,-1.271 0.121,0 0.205,0.012 0.301,0.036 v 0.996 c -0.109,-0.024 -0.217,-0.036 -0.361,-0.036 -0.742,0 -1.27,0.564 -1.414,1.355 -0.023,0.144 -0.049,0.312 -0.049,0.492 v 3.094 h -1.043 z"
   id="path166"
   inkscape:connector-curvature="0"
   style="fill:#000080" />
	<path
   d="m 232.587,56.68 c 0.025,1.427 0.936,2.015 1.992,2.015 0.756,0 1.211,-0.132 1.607,-0.3 l 0.18,0.756 c -0.373,0.168 -1.008,0.36 -1.932,0.36 -1.787,0 -2.854,-1.175 -2.854,-2.927 0,-1.751 1.031,-3.13 2.723,-3.13 1.895,0 2.398,1.667 2.398,2.734 0,0.216 -0.025,0.384 -0.037,0.492 z m 3.096,-0.755 c 0.012,-0.671 -0.277,-1.715 -1.463,-1.715 -1.068,0 -1.535,0.983 -1.619,1.715 z"
   id="path168"
   inkscape:connector-curvature="0"
   style="fill:#000080" />
	<path
   d="m 241.228,59.391 -0.084,-0.731 h -0.037 c -0.322,0.456 -0.947,0.863 -1.775,0.863 -1.174,0 -1.773,-0.828 -1.773,-1.667 0,-1.403 1.246,-2.171 3.49,-2.159 v -0.12 c 0,-0.479 -0.133,-1.343 -1.32,-1.343 -0.539,0 -1.104,0.168 -1.512,0.432 l -0.238,-0.695 c 0.479,-0.312 1.174,-0.516 1.906,-0.516 1.775,0 2.207,1.211 2.207,2.375 V 58 c 0,0.503 0.023,0.995 0.096,1.391 z m -0.156,-2.963 c -1.152,-0.024 -2.459,0.18 -2.459,1.307 0,0.684 0.455,1.008 0.996,1.008 0.756,0 1.234,-0.48 1.402,-0.972 0.037,-0.108 0.061,-0.228 0.061,-0.336 z"
   id="path170"
   inkscape:connector-curvature="0"
   style="fill:#000080" />
	<path
   d="m 243.796,55.157 c 0,-0.6 -0.012,-1.091 -0.049,-1.571 h 0.924 l 0.049,0.936 h 0.035 c 0.324,-0.552 0.863,-1.067 1.824,-1.067 0.791,0 1.391,0.479 1.643,1.163 h 0.023 c 0.18,-0.324 0.408,-0.576 0.648,-0.755 0.348,-0.264 0.73,-0.408 1.283,-0.408 0.768,0 1.906,0.503 1.906,2.519 v 3.418 h -1.031 v -3.286 c 0,-1.115 -0.408,-1.787 -1.26,-1.787 -0.6,0 -1.066,0.444 -1.246,0.959 -0.049,0.144 -0.084,0.336 -0.084,0.528 v 3.586 h -1.031 v -3.478 c 0,-0.923 -0.408,-1.595 -1.213,-1.595 -0.658,0 -1.139,0.528 -1.307,1.056 -0.061,0.156 -0.084,0.335 -0.084,0.516 v 3.502 h -1.031 v -4.236 z"
   id="path172"
   inkscape:connector-curvature="0"
   style="fill:#000080" />
</g>
<line
   fill="none"
   stroke="#000000"
   stroke-miterlimit="10"
   x1="123.752"
   y1="70.729"
   x2="109.579"
   y2="70.729"
   id="line176" />
<line
   fill="none"
   stroke="#000000"
   stroke-miterlimit="10"
   x1="137.926"
   y1="56.556"
   x2="123.752"
   y2="56.556"
   id="line178" />
<rect
   x="160.603"
   y="124.586"
   fill="none"
   stroke="#000000"
   stroke-miterlimit="10"
   width="124.724"
   height="22.678"
   id="rect180" />
<line
   fill="none"
   stroke="#000000"
   stroke-miterlimit="10"
   x1="160.603"
   y1="141.595"
   x2="285.326"
   y2="141.595"
   id="line182" />
<line
   fill="none"
   stroke="#000000"
   stroke-miterlimit="10"
   x1="160.603"
   y1="144.43"
   x2="285.326"
   y2="144.43"
   id="line184" />
<g
   id="g224"
   style="fill:#000080">
	<path
   d="m 166.72,127.95 c 0.455,-0.097 1.176,-0.168 1.906,-0.168 1.045,0 1.715,0.18 2.219,0.588 0.42,0.311 0.672,0.791 0.672,1.427 0,0.779 -0.516,1.463 -1.367,1.774 v 0.024 c 0.768,0.192 1.668,0.827 1.668,2.026 0,0.696 -0.277,1.224 -0.684,1.619 -0.564,0.516 -1.477,0.756 -2.795,0.756 -0.721,0 -1.271,-0.048 -1.619,-0.096 z m 1.043,3.31 h 0.947 c 1.104,0 1.752,-0.575 1.752,-1.354 0,-0.948 -0.721,-1.32 -1.775,-1.32 -0.48,0 -0.756,0.036 -0.924,0.072 z m 0,3.874 c 0.205,0.036 0.504,0.048 0.875,0.048 1.08,0 2.076,-0.396 2.076,-1.571 0,-1.104 -0.947,-1.559 -2.088,-1.559 h -0.863 z"
   id="path186"
   inkscape:connector-curvature="0"
   style="fill:#000080" />
	<path
   d="m 178.044,134.343 c 0,0.6 0.014,1.127 0.049,1.582 h -0.936 l -0.061,-0.947 h -0.023 c -0.275,0.468 -0.887,1.08 -1.918,1.08 -0.912,0 -2.004,-0.504 -2.004,-2.543 v -3.395 h 1.055 v 3.215 c 0,1.104 0.336,1.847 1.297,1.847 0.707,0 1.199,-0.491 1.391,-0.96 0.061,-0.155 0.096,-0.348 0.096,-0.539 v -3.563 h 1.055 v 4.223 z"
   id="path188"
   inkscape:connector-curvature="0"
   style="fill:#000080" />
	<path
   d="m 183.386,135.925 v -5.001 h -2.434 v 5.001 h -1.045 v -5.001 h -0.814 v -0.804 h 0.814 v -0.191 c 0,-0.815 0.193,-1.523 0.648,-1.979 0.336,-0.336 0.814,-0.54 1.463,-0.54 0.336,0 0.648,0.108 0.828,0.204 l -0.217,0.779 c -0.156,-0.072 -0.383,-0.145 -0.623,-0.145 -0.828,0 -1.055,0.708 -1.055,1.619 v 0.252 h 2.434 v -0.275 c 0,-0.815 0.191,-1.559 0.684,-2.027 0.396,-0.383 0.924,-0.539 1.404,-0.539 0.383,0 0.695,0.084 0.898,0.168 l -0.131,0.815 c -0.168,-0.072 -0.373,-0.132 -0.684,-0.132 -0.889,0 -1.129,0.791 -1.129,1.679 v 0.312 h 1.404 v 0.804 h -1.393 v 5.001 z"
   id="path190"
   inkscape:connector-curvature="0"
   style="fill:#000080" />
	<path
   d="m 187.228,133.215 c 0.023,1.427 0.936,2.015 1.99,2.015 0.756,0 1.211,-0.132 1.607,-0.3 l 0.18,0.756 c -0.371,0.168 -1.008,0.36 -1.93,0.36 -1.787,0 -2.855,-1.176 -2.855,-2.928 0,-1.75 1.031,-3.129 2.723,-3.129 1.895,0 2.398,1.666 2.398,2.734 0,0.215 -0.023,0.383 -0.035,0.491 h -4.078 z m 3.094,-0.756 c 0.012,-0.671 -0.275,-1.715 -1.463,-1.715 -1.066,0 -1.535,0.983 -1.619,1.715 z"
   id="path192"
   inkscape:connector-curvature="0"
   style="fill:#000080" />
	<path
   d="m 192.652,131.932 c 0,-0.684 -0.012,-1.271 -0.049,-1.812 h 0.924 l 0.037,1.14 h 0.047 c 0.264,-0.779 0.9,-1.271 1.607,-1.271 0.121,0 0.205,0.012 0.301,0.035 v 0.996 c -0.109,-0.024 -0.217,-0.037 -0.361,-0.037 -0.742,0 -1.27,0.564 -1.414,1.355 -0.023,0.145 -0.049,0.313 -0.049,0.492 v 3.094 h -1.043 z"
   id="path194"
   inkscape:connector-curvature="0"
   style="fill:#000080" />
	<path
   d="m 197.042,133.215 c 0.025,1.427 0.936,2.015 1.992,2.015 0.756,0 1.211,-0.132 1.607,-0.3 l 0.18,0.756 c -0.373,0.168 -1.008,0.36 -1.932,0.36 -1.787,0 -2.854,-1.176 -2.854,-2.928 0,-1.75 1.031,-3.129 2.723,-3.129 1.895,0 2.398,1.666 2.398,2.734 0,0.215 -0.025,0.383 -0.037,0.491 h -4.077 z m 3.096,-0.756 c 0.012,-0.671 -0.277,-1.715 -1.463,-1.715 -1.068,0 -1.535,0.983 -1.619,1.715 z"
   id="path196"
   inkscape:connector-curvature="0"
   style="fill:#000080" />
	<path
   d="m 207.482,127.41 v 7.017 c 0,0.516 0.012,1.103 0.047,1.498 h -0.947 l -0.047,-1.007 h -0.025 c -0.322,0.647 -1.031,1.14 -1.979,1.14 -1.402,0 -2.482,-1.188 -2.482,-2.951 -0.012,-1.931 1.188,-3.117 2.604,-3.117 0.887,0 1.486,0.419 1.75,0.887 h 0.023 v -3.466 h 1.056 z m -1.057,5.074 c 0,-0.133 -0.012,-0.313 -0.047,-0.443 -0.156,-0.672 -0.732,-1.225 -1.523,-1.225 -1.092,0 -1.738,0.96 -1.738,2.244 0,1.175 0.574,2.146 1.715,2.146 0.707,0 1.355,-0.469 1.547,-1.26 0.035,-0.145 0.047,-0.287 0.047,-0.455 v -1.007 z"
   id="path198"
   inkscape:connector-curvature="0"
   style="fill:#000080" />
	<path
   d="m 216.179,131.8 c 0,2.782 -1.689,4.258 -3.754,4.258 -2.135,0 -3.633,-1.655 -3.633,-4.102 0,-2.567 1.596,-4.246 3.754,-4.246 2.207,0 3.633,1.692 3.633,4.09 z m -6.272,0.132 c 0,1.728 0.936,3.274 2.578,3.274 1.656,0 2.592,-1.523 2.592,-3.358 0,-1.607 -0.84,-3.286 -2.58,-3.286 -1.726,0 -2.59,1.594 -2.59,3.37 z"
   id="path200"
   inkscape:connector-curvature="0"
   style="fill:#000080" />
	<path
   d="m 222.396,134.343 c 0,0.6 0.014,1.127 0.049,1.582 h -0.936 l -0.061,-0.947 h -0.023 c -0.275,0.468 -0.887,1.08 -1.918,1.08 -0.912,0 -2.004,-0.504 -2.004,-2.543 v -3.395 h 1.055 v 3.215 c 0,1.104 0.336,1.847 1.297,1.847 0.707,0 1.199,-0.491 1.391,-0.96 0.061,-0.155 0.096,-0.348 0.096,-0.539 v -3.563 h 1.055 v 4.223 z"
   id="path202"
   inkscape:connector-curvature="0"
   style="fill:#000080" />
	<path
   d="m 225.423,128.454 v 1.666 h 1.512 v 0.804 h -1.512 v 3.13 c 0,0.721 0.203,1.128 0.791,1.128 0.275,0 0.48,-0.036 0.611,-0.071 l 0.049,0.791 c -0.203,0.084 -0.527,0.145 -0.936,0.145 -0.492,0 -0.887,-0.156 -1.139,-0.444 -0.301,-0.312 -0.408,-0.827 -0.408,-1.511 v -3.167 h -0.9 v -0.804 h 0.9 v -1.391 z"
   id="path204"
   inkscape:connector-curvature="0"
   style="fill:#000080" />
	<path
   d="m 228.124,132.016 c 0,-0.743 -0.025,-1.343 -0.049,-1.896 h 0.947 l 0.049,0.996 h 0.023 c 0.432,-0.708 1.115,-1.127 2.063,-1.127 1.404,0 2.459,1.187 2.459,2.949 0,2.088 -1.271,3.119 -2.639,3.119 -0.768,0 -1.439,-0.336 -1.787,-0.912 h -0.023 v 3.154 h -1.043 z m 1.043,1.547 c 0,0.156 0.023,0.3 0.047,0.432 0.193,0.731 0.828,1.235 1.584,1.235 1.115,0 1.764,-0.911 1.764,-2.242 0,-1.164 -0.613,-2.159 -1.729,-2.159 -0.719,0 -1.391,0.516 -1.594,1.308 -0.037,0.131 -0.072,0.287 -0.072,0.432 z"
   id="path206"
   inkscape:connector-curvature="0"
   style="fill:#000080" />
	<path
   d="m 239.808,134.343 c 0,0.6 0.014,1.127 0.049,1.582 h -0.936 l -0.061,-0.947 h -0.023 c -0.275,0.468 -0.887,1.08 -1.918,1.08 -0.912,0 -2.004,-0.504 -2.004,-2.543 v -3.395 h 1.055 v 3.215 c 0,1.104 0.336,1.847 1.297,1.847 0.707,0 1.199,-0.491 1.391,-0.96 0.061,-0.155 0.096,-0.348 0.096,-0.539 v -3.563 h 1.055 v 4.223 z"
   id="path208"
   inkscape:connector-curvature="0"
   style="fill:#000080" />
	<path
   d="m 242.833,128.454 v 1.666 h 1.512 v 0.804 h -1.512 v 3.13 c 0,0.721 0.205,1.128 0.793,1.128 0.275,0 0.479,-0.036 0.611,-0.071 l 0.047,0.791 c -0.203,0.084 -0.527,0.145 -0.936,0.145 -0.49,0 -0.887,-0.156 -1.139,-0.444 -0.299,-0.312 -0.408,-0.827 -0.408,-1.511 v -3.167 h -0.898 v -0.804 h 0.898 v -1.391 z"
   id="path210"
   inkscape:connector-curvature="0"
   style="fill:#000080" />
	<path
   d="m 245.427,134.654 c 0.467,0.289 1.15,0.528 1.871,0.528 1.066,0 1.691,-0.563 1.691,-1.38 0,-0.755 -0.434,-1.187 -1.523,-1.606 -1.32,-0.468 -2.135,-1.151 -2.135,-2.29 0,-1.26 1.043,-2.195 2.613,-2.195 0.828,0 1.428,0.191 1.787,0.396 l -0.287,0.852 c -0.264,-0.144 -0.805,-0.384 -1.535,-0.384 -1.104,0 -1.523,0.66 -1.523,1.211 0,0.756 0.492,1.128 1.607,1.56 1.367,0.528 2.063,1.188 2.063,2.375 0,1.247 -0.924,2.327 -2.83,2.327 -0.779,0 -1.631,-0.229 -2.063,-0.517 z"
   id="path212"
   inkscape:connector-curvature="0"
   style="fill:#000080" />
	<path
   d="m 252.687,128.454 v 1.666 h 1.512 v 0.804 h -1.512 v 3.13 c 0,0.721 0.203,1.128 0.791,1.128 0.275,0 0.48,-0.036 0.611,-0.071 l 0.049,0.791 c -0.203,0.084 -0.527,0.145 -0.936,0.145 -0.492,0 -0.887,-0.156 -1.139,-0.444 -0.301,-0.312 -0.408,-0.827 -0.408,-1.511 v -3.167 h -0.9 v -0.804 h 0.9 v -1.391 z"
   id="path214"
   inkscape:connector-curvature="0"
   style="fill:#000080" />
	<path
   d="m 255.388,131.932 c 0,-0.684 -0.014,-1.271 -0.049,-1.812 h 0.924 l 0.035,1.14 h 0.049 c 0.264,-0.779 0.898,-1.271 1.607,-1.271 0.119,0 0.203,0.012 0.299,0.035 v 0.996 c -0.107,-0.024 -0.215,-0.037 -0.359,-0.037 -0.744,0 -1.271,0.564 -1.416,1.355 -0.023,0.145 -0.047,0.313 -0.047,0.492 v 3.094 h -1.043 z"
   id="path216"
   inkscape:connector-curvature="0"
   style="fill:#000080" />
	<path
   d="m 259.779,133.215 c 0.023,1.427 0.936,2.015 1.99,2.015 0.756,0 1.211,-0.132 1.607,-0.3 l 0.18,0.756 c -0.371,0.168 -1.008,0.36 -1.93,0.36 -1.787,0 -2.855,-1.176 -2.855,-2.928 0,-1.75 1.031,-3.129 2.723,-3.129 1.895,0 2.398,1.666 2.398,2.734 0,0.215 -0.023,0.383 -0.035,0.491 h -4.078 z m 3.093,-0.756 c 0.012,-0.671 -0.275,-1.715 -1.463,-1.715 -1.066,0 -1.535,0.983 -1.619,1.715 z"
   id="path218"
   inkscape:connector-curvature="0"
   style="fill:#000080" />
	<path
   d="m 268.417,135.925 -0.084,-0.73 h -0.037 c -0.322,0.455 -0.947,0.863 -1.775,0.863 -1.174,0 -1.773,-0.828 -1.773,-1.668 0,-1.402 1.246,-2.17 3.49,-2.158 v -0.12 c 0,-0.479 -0.133,-1.343 -1.32,-1.343 -0.539,0 -1.104,0.168 -1.512,0.432 l -0.238,-0.695 c 0.479,-0.313 1.174,-0.516 1.906,-0.516 1.775,0 2.207,1.211 2.207,2.374 v 2.171 c 0,0.504 0.023,0.995 0.096,1.391 h -0.96 z m -0.156,-2.962 c -1.152,-0.024 -2.459,0.18 -2.459,1.308 0,0.684 0.455,1.008 0.996,1.008 0.756,0 1.234,-0.48 1.402,-0.973 0.037,-0.107 0.061,-0.228 0.061,-0.336 z"
   id="path220"
   inkscape:connector-curvature="0"
   style="fill:#000080" />
	<path
   d="m 270.988,131.692 c 0,-0.6 -0.014,-1.091 -0.049,-1.571 h 0.924 l 0.047,0.936 h 0.037 c 0.324,-0.551 0.863,-1.066 1.822,-1.066 0.791,0 1.391,0.479 1.643,1.162 h 0.025 c 0.18,-0.323 0.406,-0.575 0.646,-0.755 0.348,-0.265 0.732,-0.407 1.283,-0.407 0.768,0 1.908,0.503 1.908,2.518 v 3.418 h -1.031 v -3.285 c 0,-1.115 -0.408,-1.787 -1.26,-1.787 -0.6,0 -1.068,0.443 -1.248,0.959 -0.047,0.145 -0.084,0.336 -0.084,0.527 v 3.586 h -1.031 v -3.478 c 0,-0.923 -0.408,-1.595 -1.211,-1.595 -0.66,0 -1.139,0.527 -1.307,1.055 -0.061,0.156 -0.084,0.336 -0.084,0.516 v 3.502 h -1.031 v -4.235 z"
   id="path222"
   inkscape:connector-curvature="0"
   style="fill:#000080" />
</g>
<rect
   x="160.603"
   y="158.603"
   fill="none"
   stroke="#000000"
   stroke-miterlimit="10"
   width="124.724"
   height="22.678"
   id="rect226" />
<line
   fill="none"
   stroke="#000000"
   stroke-miterlimit="10"
   x1="160.603"
   y1="175.612"
   x2="285.326"
   y2="175.612"
   id="line228" />
<line
   fill="none"
   stroke="#000000"
   stroke-miterlimit="10"
   x1="160.603"
   y1="178.447"
   x2="285.326"
   y2="178.447"
   id="line230" />
<g
   id="g264"
   style="fill:#000080">
	<path
   d="m 176.253,161.966 c 0.637,-0.096 1.393,-0.168 2.219,-0.168 1.5,0 2.568,0.348 3.275,1.008 0.719,0.66 1.139,1.596 1.139,2.902 0,1.319 -0.408,2.398 -1.162,3.143 -0.756,0.756 -2.004,1.163 -3.574,1.163 -0.744,0 -1.367,-0.036 -1.896,-0.096 v -7.952 z m 1.045,7.149 c 0.264,0.048 0.646,0.061 1.055,0.061 2.23,0 3.441,-1.248 3.441,-3.431 0.014,-1.907 -1.066,-3.118 -3.273,-3.118 -0.539,0 -0.947,0.048 -1.223,0.107 z"
   id="path232"
   inkscape:connector-curvature="0"
   style="fill:#000080" />
	<path
   d="m 187.425,169.943 -0.084,-0.732 h -0.037 c -0.322,0.456 -0.947,0.863 -1.775,0.863 -1.174,0 -1.773,-0.827 -1.773,-1.666 0,-1.404 1.246,-2.172 3.49,-2.159 v -0.12 c 0,-0.479 -0.133,-1.344 -1.32,-1.344 -0.539,0 -1.104,0.168 -1.512,0.432 l -0.238,-0.695 c 0.479,-0.312 1.174,-0.516 1.906,-0.516 1.775,0 2.207,1.211 2.207,2.375 v 2.171 c 0,0.503 0.023,0.995 0.096,1.392 h -0.96 z m -0.156,-2.963 c -1.152,-0.023 -2.459,0.18 -2.459,1.307 0,0.684 0.455,1.008 0.996,1.008 0.756,0 1.234,-0.479 1.402,-0.971 0.037,-0.108 0.061,-0.229 0.061,-0.336 z"
   id="path234"
   inkscape:connector-curvature="0"
   style="fill:#000080" />
	<path
   d="m 191.216,162.47 v 1.668 h 1.512 v 0.803 h -1.512 v 3.131 c 0,0.719 0.205,1.127 0.793,1.127 0.275,0 0.479,-0.036 0.611,-0.072 l 0.047,0.792 c -0.203,0.084 -0.527,0.144 -0.936,0.144 -0.49,0 -0.887,-0.156 -1.139,-0.443 -0.299,-0.313 -0.408,-0.828 -0.408,-1.512 v -3.166 h -0.898 v -0.803 h 0.898 v -1.392 z"
   id="path236"
   inkscape:connector-curvature="0"
   style="fill:#000080" />
	<path
   d="m 197.132,169.943 -0.084,-0.732 h -0.037 c -0.322,0.456 -0.947,0.863 -1.775,0.863 -1.174,0 -1.773,-0.827 -1.773,-1.666 0,-1.404 1.246,-2.172 3.49,-2.159 v -0.12 c 0,-0.479 -0.133,-1.344 -1.32,-1.344 -0.539,0 -1.104,0.168 -1.512,0.432 l -0.238,-0.695 c 0.479,-0.312 1.174,-0.516 1.906,-0.516 1.775,0 2.207,1.211 2.207,2.375 v 2.171 c 0,0.503 0.023,0.995 0.096,1.392 h -0.96 z m -0.156,-2.963 c -1.152,-0.023 -2.459,0.18 -2.459,1.307 0,0.684 0.455,1.008 0.996,1.008 0.756,0 1.234,-0.479 1.402,-0.971 0.037,-0.108 0.061,-0.229 0.061,-0.336 z"
   id="path238"
   inkscape:connector-curvature="0"
   style="fill:#000080" />
	<path
   d="m 206.646,165.817 c 0,2.782 -1.691,4.257 -3.754,4.257 -2.135,0 -3.635,-1.654 -3.635,-4.102 0,-2.566 1.596,-4.245 3.754,-4.245 2.207,0 3.635,1.69 3.635,4.09 z m -6.274,0.131 c 0,1.727 0.936,3.273 2.58,3.273 1.654,0 2.59,-1.522 2.59,-3.357 0,-1.607 -0.84,-3.286 -2.578,-3.286 -1.726,0 -2.592,1.595 -2.592,3.37 z"
   id="path240"
   inkscape:connector-curvature="0"
   style="fill:#000080" />
	<path
   d="m 212.863,168.359 c 0,0.6 0.012,1.128 0.049,1.584 h -0.936 l -0.061,-0.947 h -0.023 c -0.277,0.467 -0.889,1.078 -1.92,1.078 -0.912,0 -2.002,-0.503 -2.002,-2.542 v -3.394 h 1.055 v 3.214 c 0,1.103 0.336,1.847 1.295,1.847 0.707,0 1.199,-0.492 1.391,-0.959 0.061,-0.156 0.098,-0.348 0.098,-0.54 v -3.562 h 1.055 v 4.221 z"
   id="path242"
   inkscape:connector-curvature="0"
   style="fill:#000080" />
	<path
   d="m 215.888,162.47 v 1.668 h 1.512 v 0.803 h -1.512 v 3.131 c 0,0.719 0.205,1.127 0.793,1.127 0.275,0 0.479,-0.036 0.611,-0.072 l 0.047,0.792 c -0.203,0.084 -0.527,0.144 -0.936,0.144 -0.49,0 -0.887,-0.156 -1.139,-0.443 -0.299,-0.313 -0.408,-0.828 -0.408,-1.512 v -3.166 h -0.898 v -0.803 h 0.898 v -1.392 z"
   id="path244"
   inkscape:connector-curvature="0"
   style="fill:#000080" />
	<path
   d="m 218.589,166.032 c 0,-0.744 -0.023,-1.344 -0.049,-1.895 h 0.949 l 0.047,0.994 h 0.023 c 0.432,-0.707 1.115,-1.127 2.064,-1.127 1.402,0 2.457,1.188 2.457,2.951 0,2.086 -1.27,3.117 -2.639,3.117 -0.768,0 -1.438,-0.336 -1.785,-0.911 h -0.025 v 3.154 h -1.043 v -6.283 z m 1.043,1.547 c 0,0.156 0.025,0.3 0.049,0.432 0.191,0.732 0.828,1.235 1.582,1.235 1.115,0 1.764,-0.911 1.764,-2.243 0,-1.162 -0.611,-2.158 -1.727,-2.158 -0.721,0 -1.393,0.516 -1.596,1.307 -0.035,0.133 -0.072,0.289 -0.072,0.433 z"
   id="path246"
   inkscape:connector-curvature="0"
   style="fill:#000080" />
	<path
   d="m 230.275,168.359 c 0,0.6 0.012,1.128 0.049,1.584 h -0.936 l -0.061,-0.947 h -0.023 c -0.277,0.467 -0.889,1.078 -1.92,1.078 -0.912,0 -2.002,-0.503 -2.002,-2.542 v -3.394 h 1.055 v 3.214 c 0,1.103 0.336,1.847 1.295,1.847 0.707,0 1.199,-0.492 1.391,-0.959 0.061,-0.156 0.098,-0.348 0.098,-0.54 v -3.562 h 1.055 v 4.221 z"
   id="path248"
   inkscape:connector-curvature="0"
   style="fill:#000080" />
	<path
   d="m 233.3,162.47 v 1.668 h 1.512 v 0.803 H 233.3 v 3.131 c 0,0.719 0.205,1.127 0.793,1.127 0.275,0 0.479,-0.036 0.611,-0.072 l 0.047,0.792 c -0.203,0.084 -0.527,0.144 -0.936,0.144 -0.49,0 -0.887,-0.156 -1.139,-0.443 -0.299,-0.313 -0.408,-0.828 -0.408,-1.512 v -3.166 h -0.898 v -0.803 h 0.898 v -1.392 z"
   id="path250"
   inkscape:connector-curvature="0"
   style="fill:#000080" />
	<path
   d="m 235.894,168.671 c 0.467,0.287 1.15,0.527 1.871,0.527 1.066,0 1.691,-0.563 1.691,-1.379 0,-0.756 -0.434,-1.188 -1.523,-1.607 -1.32,-0.468 -2.135,-1.151 -2.135,-2.291 0,-1.259 1.043,-2.194 2.613,-2.194 0.828,0 1.428,0.192 1.787,0.396 l -0.287,0.852 c -0.264,-0.145 -0.805,-0.384 -1.535,-0.384 -1.104,0 -1.523,0.659 -1.523,1.212 0,0.755 0.492,1.127 1.607,1.559 1.367,0.527 2.063,1.188 2.063,2.375 0,1.247 -0.924,2.326 -2.83,2.326 -0.779,0 -1.631,-0.228 -2.063,-0.516 z"
   id="path252"
   inkscape:connector-curvature="0"
   style="fill:#000080" />
	<path
   d="m 243.152,162.47 v 1.668 h 1.512 v 0.803 h -1.512 v 3.131 c 0,0.719 0.205,1.127 0.793,1.127 0.275,0 0.479,-0.036 0.611,-0.072 l 0.047,0.792 c -0.203,0.084 -0.527,0.144 -0.936,0.144 -0.49,0 -0.887,-0.156 -1.139,-0.443 -0.299,-0.313 -0.408,-0.828 -0.408,-1.512 v -3.166 h -0.898 v -0.803 h 0.898 v -1.392 z"
   id="path254"
   inkscape:connector-curvature="0"
   style="fill:#000080" />
	<path
   d="m 245.853,165.948 c 0,-0.684 -0.012,-1.271 -0.049,-1.811 h 0.924 l 0.037,1.139 h 0.047 c 0.264,-0.779 0.9,-1.271 1.607,-1.271 0.121,0 0.205,0.012 0.301,0.036 v 0.995 c -0.109,-0.023 -0.217,-0.035 -0.361,-0.035 -0.742,0 -1.27,0.563 -1.414,1.355 -0.023,0.144 -0.049,0.311 -0.049,0.491 v 3.095 h -1.043 z"
   id="path256"
   inkscape:connector-curvature="0"
   style="fill:#000080" />
	<path
   d="m 250.245,167.232 c 0.023,1.428 0.936,2.015 1.99,2.015 0.756,0 1.211,-0.132 1.607,-0.3 l 0.18,0.756 c -0.371,0.168 -1.008,0.359 -1.93,0.359 -1.787,0 -2.855,-1.175 -2.855,-2.926 0,-1.752 1.031,-3.131 2.723,-3.131 1.895,0 2.398,1.668 2.398,2.734 0,0.217 -0.023,0.385 -0.035,0.492 h -4.078 z m 3.094,-0.756 c 0.012,-0.672 -0.275,-1.715 -1.463,-1.715 -1.066,0 -1.535,0.983 -1.619,1.715 z"
   id="path258"
   inkscape:connector-curvature="0"
   style="fill:#000080" />
	<path
   d="m 258.884,169.943 -0.084,-0.732 h -0.037 c -0.322,0.456 -0.947,0.863 -1.775,0.863 -1.174,0 -1.773,-0.827 -1.773,-1.666 0,-1.404 1.246,-2.172 3.49,-2.159 v -0.12 c 0,-0.479 -0.133,-1.344 -1.32,-1.344 -0.539,0 -1.104,0.168 -1.512,0.432 l -0.238,-0.695 c 0.479,-0.312 1.174,-0.516 1.906,-0.516 1.775,0 2.207,1.211 2.207,2.375 v 2.171 c 0,0.503 0.023,0.995 0.096,1.392 h -0.96 z m -0.156,-2.963 c -1.152,-0.023 -2.459,0.18 -2.459,1.307 0,0.684 0.455,1.008 0.996,1.008 0.756,0 1.234,-0.479 1.402,-0.971 0.037,-0.108 0.061,-0.229 0.061,-0.336 z"
   id="path260"
   inkscape:connector-curvature="0"
   style="fill:#000080" />
	<path
   d="m 261.452,165.708 c 0,-0.6 -0.012,-1.092 -0.049,-1.57 h 0.924 l 0.049,0.936 h 0.035 c 0.324,-0.553 0.863,-1.068 1.824,-1.068 0.791,0 1.391,0.48 1.643,1.164 h 0.023 c 0.18,-0.324 0.408,-0.576 0.648,-0.756 0.348,-0.264 0.73,-0.408 1.283,-0.408 0.768,0 1.906,0.504 1.906,2.52 v 3.418 h -1.031 v -3.287 c 0,-1.115 -0.408,-1.787 -1.26,-1.787 -0.6,0 -1.066,0.444 -1.246,0.96 -0.049,0.144 -0.084,0.336 -0.084,0.528 v 3.586 h -1.031 v -3.479 c 0,-0.924 -0.408,-1.596 -1.213,-1.596 -0.658,0 -1.139,0.528 -1.307,1.057 -0.061,0.155 -0.084,0.335 -0.084,0.516 v 3.502 h -1.031 v -4.236 z"
   id="path262"
   inkscape:connector-curvature="0"
   style="fill:#000080" />
</g>
<rect
   x="160.603"
   y="192.618"
   fill="none"
   stroke="#000000"
   stroke-miterlimit="10"
   width="124.724"
   height="22.678"
   id="rect266" />
<line
   fill="none"
   stroke="#000000"
   stroke-miterlimit="10"
   x1="160.603"
   y1="209.627"
   x2="285.326"
   y2="209.627"
   id="line268" />
<line
   fill="none"
   stroke="#000000"
   stroke-miterlimit="10"
   x1="160.603"
   y1="212.462"
   x2="285.326"
   y2="212.462"
   id="line270" />
<g
   id="g294">
	<path
   d="M194.366,195.97c0.504-0.084,1.164-0.156,2.004-0.156c1.031,0,1.787,0.24,2.268,0.672c0.443,0.385,0.707,0.972,0.707,1.691   c0,0.731-0.217,1.307-0.625,1.727c-0.551,0.588-1.451,0.888-2.469,0.888c-0.313,0-0.602-0.012-0.84-0.071v3.238h-1.045V195.97z    M195.411,199.868c0.227,0.06,0.516,0.084,0.863,0.084c1.26,0,2.027-0.612,2.027-1.728c0-1.067-0.756-1.583-1.908-1.583   c-0.455,0-0.803,0.036-0.982,0.084V199.868z"
   id="path272" />
	<path
   d="M200.525,199.964c0-0.684-0.014-1.271-0.049-1.811h0.924l0.035,1.139h0.049c0.264-0.779,0.898-1.271,1.607-1.271   c0.119,0,0.203,0.012,0.299,0.036v0.995c-0.107-0.023-0.215-0.035-0.359-0.035c-0.744,0-1.271,0.563-1.416,1.355   c-0.023,0.144-0.047,0.311-0.047,0.491v3.095h-1.043V199.964z"
   id="path274" />
	<path
   d="M205.671,196.522c0.012,0.36-0.252,0.647-0.672,0.647c-0.371,0-0.637-0.287-0.637-0.647c0-0.372,0.277-0.659,0.66-0.659   C205.419,195.863,205.671,196.15,205.671,196.522z M204.495,203.958v-5.805h1.055v5.805H204.495z"
   id="path276" />
	<path
   d="M207.304,199.724c0-0.6-0.014-1.092-0.049-1.57h0.936l0.061,0.959h0.023c0.287-0.552,0.959-1.092,1.918-1.092   c0.805,0,2.051,0.48,2.051,2.471v3.467h-1.055v-3.347c0-0.936-0.348-1.715-1.344-1.715c-0.695,0-1.234,0.491-1.414,1.079   c-0.049,0.132-0.072,0.313-0.072,0.492v3.49h-1.055V199.724z"
   id="path278" />
	<path
   d="M215.187,196.486v1.668h1.512v0.803h-1.512v3.131c0,0.719,0.203,1.127,0.791,1.127c0.275,0,0.48-0.036,0.611-0.072   l0.049,0.792c-0.203,0.084-0.527,0.144-0.936,0.144c-0.492,0-0.887-0.156-1.139-0.443c-0.301-0.313-0.408-0.828-0.408-1.512v-3.166   h-0.9v-0.803h0.9v-1.392L215.187,196.486z"
   id="path280" />
	<path
   d="M217.779,202.687c0.469,0.287,1.152,0.527,1.871,0.527c1.068,0,1.691-0.563,1.691-1.379c0-0.756-0.432-1.188-1.523-1.607   c-1.318-0.468-2.135-1.151-2.135-2.291c0-1.259,1.043-2.194,2.615-2.194c0.826,0,1.428,0.192,1.787,0.396l-0.289,0.852   c-0.264-0.145-0.803-0.384-1.535-0.384c-1.104,0-1.521,0.659-1.521,1.212c0,0.755,0.49,1.127,1.605,1.559   c1.367,0.527,2.064,1.188,2.064,2.375c0,1.247-0.924,2.326-2.832,2.326c-0.779,0-1.631-0.228-2.063-0.516L217.779,202.687z"
   id="path282" />
	<path
   d="M225.038,196.486v1.668h1.512v0.803h-1.512v3.131c0,0.719,0.203,1.127,0.791,1.127c0.275,0,0.48-0.036,0.611-0.072   l0.049,0.792c-0.203,0.084-0.527,0.144-0.936,0.144c-0.492,0-0.887-0.156-1.139-0.443c-0.301-0.313-0.408-0.828-0.408-1.512v-3.166   h-0.9v-0.803h0.9v-1.392L225.038,196.486z"
   id="path284" />
	<path
   d="M227.74,199.964c0-0.684-0.012-1.271-0.049-1.811h0.924l0.037,1.139h0.047c0.264-0.779,0.9-1.271,1.607-1.271   c0.121,0,0.205,0.012,0.301,0.036v0.995c-0.109-0.023-0.217-0.035-0.361-0.035c-0.742,0-1.27,0.563-1.414,1.355   c-0.023,0.144-0.049,0.311-0.049,0.491v3.095h-1.043V199.964z"
   id="path286" />
	<path
   d="M232.13,201.247c0.025,1.428,0.936,2.015,1.992,2.015c0.756,0,1.211-0.132,1.607-0.3l0.18,0.756   c-0.373,0.168-1.008,0.359-1.932,0.359c-1.787,0-2.854-1.175-2.854-2.926c0-1.752,1.031-3.131,2.723-3.131   c1.895,0,2.398,1.668,2.398,2.734c0,0.217-0.025,0.385-0.037,0.492H232.13z M235.226,200.491c0.012-0.672-0.277-1.715-1.463-1.715   c-1.068,0-1.535,0.983-1.619,1.715H235.226z"
   id="path288" />
	<path
   d="M240.769,203.958l-0.084-0.732h-0.035c-0.324,0.456-0.947,0.863-1.775,0.863c-1.176,0-1.775-0.827-1.775-1.666   c0-1.404,1.248-2.172,3.49-2.159v-0.12c0-0.479-0.131-1.344-1.318-1.344c-0.541,0-1.104,0.168-1.512,0.432l-0.24-0.695   c0.48-0.312,1.176-0.516,1.906-0.516c1.775,0,2.207,1.211,2.207,2.375v2.171c0,0.503,0.025,0.995,0.096,1.392H240.769z    M240.613,200.995c-1.15-0.023-2.457,0.18-2.457,1.307c0,0.684,0.455,1.008,0.994,1.008c0.756,0,1.236-0.479,1.404-0.971   c0.035-0.108,0.059-0.229,0.059-0.336V200.995z"
   id="path290" />
	<path
   d="M243.339,199.724c0-0.6-0.012-1.092-0.049-1.57h0.924l0.049,0.936h0.035c0.324-0.553,0.863-1.068,1.824-1.068   c0.791,0,1.391,0.48,1.643,1.164h0.023c0.18-0.324,0.408-0.576,0.648-0.756c0.348-0.264,0.73-0.408,1.283-0.408   c0.768,0,1.906,0.504,1.906,2.52v3.418h-1.031v-3.287c0-1.115-0.408-1.787-1.26-1.787c-0.6,0-1.066,0.444-1.246,0.96   c-0.049,0.144-0.084,0.336-0.084,0.528v3.586h-1.031v-3.479c0-0.924-0.408-1.596-1.213-1.596c-0.658,0-1.139,0.528-1.307,1.057   c-0.061,0.155-0.084,0.335-0.084,0.516v3.502h-1.031V199.724z"
   id="path292" />
</g>
<line
   fill="none"
   stroke="#000000"
   stroke-miterlimit="10"
   x1="160.603"
   y1="133.091"
   x2="146.43"
   y2="133.091"
   id="line296" />
<line
   fill="none"
   stroke="#000000"
   stroke-miterlimit="10"
   x1="160.603"
   y1="164.272"
   x2="146.43"
   y2="164.272"
   id="line298" />
<rect
   x="137.925"
   y="82.067"
   fill="none"
   stroke="#000000"
   stroke-miterlimit="10"
   width="124.725"
   height="22.678"
   id="rect300" />
<line
   fill="none"
   stroke="#000000"
   stroke-miterlimit="10"
   x1="137.925"
   y1="99.075"
   x2="262.65"
   y2="99.075"
   id="line302" />
<line
   fill="none"
   stroke="#000000"
   stroke-miterlimit="10"
   x1="137.925"
   y1="101.911"
   x2="262.65"
   y2="101.911"
   id="line304" />
<g
   id="g342"
   style="fill:#000080">
	<path
   d="m 152.813,85.323 h 4.354 v 0.875 h -3.31 v 2.687 h 3.058 v 0.863 h -3.058 v 3.658 h -1.044 z"
   id="path306"
   inkscape:connector-curvature="0"
   style="fill:#000080" />
	<path
   d="m 159.486,85.97 c 0.012,0.36 -0.252,0.648 -0.672,0.648 -0.371,0 -0.637,-0.288 -0.637,-0.648 0,-0.372 0.277,-0.66 0.66,-0.66 0.397,0.001 0.649,0.289 0.649,0.66 z m -1.176,7.436 v -5.805 h 1.055 v 5.805 z"
   id="path308"
   inkscape:connector-curvature="0"
   style="fill:#000080" />
	<path
   d="m 161.118,84.891 h 1.055 v 8.515 h -1.055 z"
   id="path310"
   inkscape:connector-curvature="0"
   style="fill:#000080" />
	<path
   d="m 165.22,85.935 v 1.667 h 1.512 v 0.803 h -1.512 v 3.13 c 0,0.72 0.205,1.127 0.793,1.127 0.275,0 0.479,-0.036 0.611,-0.072 l 0.047,0.792 c -0.203,0.084 -0.527,0.144 -0.936,0.144 -0.49,0 -0.887,-0.156 -1.139,-0.444 -0.299,-0.312 -0.408,-0.828 -0.408,-1.511 v -3.167 h -0.898 v -0.803 h 0.898 V 86.21 Z"
   id="path312"
   inkscape:connector-curvature="0"
   style="fill:#000080" />
	<path
   d="m 168.437,90.696 c 0.025,1.427 0.936,2.015 1.992,2.015 0.756,0 1.211,-0.132 1.607,-0.3 l 0.18,0.756 c -0.373,0.168 -1.008,0.36 -1.932,0.36 -1.787,0 -2.854,-1.175 -2.854,-2.927 0,-1.751 1.031,-3.13 2.723,-3.13 1.895,0 2.398,1.667 2.398,2.734 0,0.216 -0.025,0.384 -0.037,0.492 z m 3.095,-0.756 c 0.012,-0.671 -0.277,-1.715 -1.463,-1.715 -1.068,0 -1.535,0.983 -1.619,1.715 z"
   id="path314"
   inkscape:connector-curvature="0"
   style="fill:#000080" />
	<path
   d="m 173.863,89.413 c 0,-0.684 -0.014,-1.271 -0.049,-1.811 h 0.924 l 0.035,1.139 h 0.049 c 0.264,-0.779 0.898,-1.271 1.607,-1.271 0.119,0 0.203,0.012 0.299,0.036 v 0.996 c -0.107,-0.024 -0.215,-0.036 -0.359,-0.036 -0.744,0 -1.271,0.564 -1.416,1.355 -0.023,0.144 -0.047,0.312 -0.047,0.492 v 3.094 h -1.043 z"
   id="path316"
   inkscape:connector-curvature="0"
   style="fill:#000080" />
	<path
   d="m 184.73,89.281 c 0,2.782 -1.691,4.257 -3.754,4.257 -2.135,0 -3.635,-1.655 -3.635,-4.102 0,-2.567 1.596,-4.246 3.754,-4.246 2.207,0.001 3.635,1.692 3.635,4.091 z m -6.274,0.132 c 0,1.727 0.936,3.274 2.58,3.274 1.654,0 2.59,-1.523 2.59,-3.358 0,-1.607 -0.84,-3.286 -2.578,-3.286 -1.726,0 -2.592,1.594 -2.592,3.37 z"
   id="path318"
   inkscape:connector-curvature="0"
   style="fill:#000080" />
	<path
   d="m 190.947,91.823 c 0,0.6 0.012,1.127 0.049,1.583 h -0.936 l -0.061,-0.947 h -0.023 c -0.277,0.467 -0.889,1.079 -1.92,1.079 -0.912,0 -2.002,-0.503 -2.002,-2.542 v -3.394 h 1.055 v 3.214 c 0,1.103 0.336,1.847 1.295,1.847 0.707,0 1.199,-0.492 1.391,-0.959 0.061,-0.156 0.098,-0.348 0.098,-0.54 v -3.562 h 1.055 v 4.221 z"
   id="path320"
   inkscape:connector-curvature="0"
   style="fill:#000080" />
	<path
   d="m 193.972,85.935 v 1.667 h 1.512 v 0.803 h -1.512 v 3.13 c 0,0.72 0.205,1.127 0.793,1.127 0.275,0 0.479,-0.036 0.611,-0.072 l 0.047,0.792 c -0.203,0.084 -0.527,0.144 -0.936,0.144 -0.49,0 -0.887,-0.156 -1.139,-0.444 -0.299,-0.312 -0.408,-0.828 -0.408,-1.511 v -3.167 h -0.898 v -0.803 h 0.898 V 86.21 Z"
   id="path322"
   inkscape:connector-curvature="0"
   style="fill:#000080" />
	<path
   d="m 196.673,89.497 c 0,-0.744 -0.023,-1.343 -0.049,-1.895 h 0.949 l 0.047,0.995 h 0.023 c 0.432,-0.708 1.115,-1.127 2.064,-1.127 1.402,0 2.457,1.187 2.457,2.95 0,2.087 -1.27,3.118 -2.639,3.118 -0.768,0 -1.438,-0.336 -1.785,-0.912 h -0.025 v 3.154 h -1.043 v -6.283 z m 1.043,1.547 c 0,0.156 0.025,0.3 0.049,0.432 0.191,0.732 0.828,1.235 1.582,1.235 1.115,0 1.764,-0.911 1.764,-2.243 0,-1.163 -0.611,-2.159 -1.727,-2.159 -0.721,0 -1.393,0.516 -1.596,1.307 -0.035,0.132 -0.072,0.288 -0.072,0.432 z"
   id="path324"
   inkscape:connector-curvature="0"
   style="fill:#000080" />
	<path
   d="m 208.359,91.823 c 0,0.6 0.012,1.127 0.049,1.583 h -0.936 l -0.061,-0.947 h -0.023 c -0.277,0.467 -0.889,1.079 -1.92,1.079 -0.912,0 -2.002,-0.503 -2.002,-2.542 v -3.394 h 1.055 v 3.214 c 0,1.103 0.336,1.847 1.295,1.847 0.707,0 1.199,-0.492 1.391,-0.959 0.061,-0.156 0.098,-0.348 0.098,-0.54 v -3.562 h 1.055 v 4.221 z"
   id="path326"
   inkscape:connector-curvature="0"
   style="fill:#000080" />
	<path
   d="m 211.384,85.935 v 1.667 h 1.512 v 0.803 h -1.512 v 3.13 c 0,0.72 0.203,1.127 0.791,1.127 0.275,0 0.48,-0.036 0.611,-0.072 l 0.049,0.792 c -0.203,0.084 -0.527,0.144 -0.936,0.144 -0.492,0 -0.887,-0.156 -1.139,-0.444 -0.301,-0.312 -0.408,-0.828 -0.408,-1.511 v -3.167 h -0.9 v -0.803 h 0.9 V 86.21 Z"
   id="path328"
   inkscape:connector-curvature="0"
   style="fill:#000080" />
	<path
   d="m 213.978,92.135 c 0.467,0.288 1.15,0.528 1.871,0.528 1.066,0 1.691,-0.563 1.691,-1.379 0,-0.755 -0.434,-1.187 -1.523,-1.607 -1.32,-0.468 -2.135,-1.151 -2.135,-2.291 0,-1.259 1.043,-2.195 2.613,-2.195 0.828,0 1.428,0.192 1.787,0.396 l -0.287,0.852 c -0.264,-0.144 -0.805,-0.384 -1.535,-0.384 -1.104,0 -1.523,0.66 -1.523,1.211 0,0.755 0.492,1.127 1.607,1.559 1.367,0.528 2.063,1.188 2.063,2.375 0,1.247 -0.924,2.327 -2.83,2.327 -0.779,0 -1.631,-0.228 -2.063,-0.516 z"
   id="path330"
   inkscape:connector-curvature="0"
   style="fill:#000080" />
	<path
   d="m 221.236,85.935 v 1.667 h 1.512 v 0.803 h -1.512 v 3.13 c 0,0.72 0.205,1.127 0.793,1.127 0.275,0 0.479,-0.036 0.611,-0.072 l 0.047,0.792 c -0.203,0.084 -0.527,0.144 -0.936,0.144 -0.49,0 -0.887,-0.156 -1.139,-0.444 -0.299,-0.312 -0.408,-0.828 -0.408,-1.511 v -3.167 h -0.898 v -0.803 h 0.898 V 86.21 Z"
   id="path332"
   inkscape:connector-curvature="0"
   style="fill:#000080" />
	<path
   d="m 223.937,89.413 c 0,-0.684 -0.012,-1.271 -0.049,-1.811 h 0.924 l 0.037,1.139 h 0.047 c 0.264,-0.779 0.9,-1.271 1.607,-1.271 0.121,0 0.205,0.012 0.301,0.036 v 0.996 c -0.109,-0.024 -0.217,-0.036 -0.361,-0.036 -0.742,0 -1.27,0.564 -1.414,1.355 -0.023,0.144 -0.049,0.312 -0.049,0.492 v 3.094 h -1.043 z"
   id="path334"
   inkscape:connector-curvature="0"
   style="fill:#000080" />
	<path
   d="m 228.327,90.696 c 0.025,1.427 0.936,2.015 1.992,2.015 0.756,0 1.211,-0.132 1.607,-0.3 l 0.18,0.756 c -0.373,0.168 -1.008,0.36 -1.932,0.36 -1.787,0 -2.854,-1.175 -2.854,-2.927 0,-1.751 1.031,-3.13 2.723,-3.13 1.895,0 2.398,1.667 2.398,2.734 0,0.216 -0.025,0.384 -0.037,0.492 z m 3.096,-0.756 c 0.012,-0.671 -0.277,-1.715 -1.463,-1.715 -1.068,0 -1.535,0.983 -1.619,1.715 z"
   id="path336"
   inkscape:connector-curvature="0"
   style="fill:#000080" />
	<path
   d="m 236.968,93.406 -0.084,-0.731 h -0.037 c -0.322,0.456 -0.947,0.863 -1.775,0.863 -1.174,0 -1.773,-0.828 -1.773,-1.667 0,-1.403 1.246,-2.171 3.49,-2.159 v -0.12 c 0,-0.479 -0.133,-1.343 -1.32,-1.343 -0.539,0 -1.104,0.168 -1.512,0.432 l -0.238,-0.695 c 0.479,-0.312 1.174,-0.516 1.906,-0.516 1.775,0 2.207,1.211 2.207,2.375 v 2.171 c 0,0.503 0.023,0.995 0.096,1.391 h -0.96 z m -0.156,-2.962 c -1.152,-0.024 -2.459,0.18 -2.459,1.307 0,0.684 0.455,1.008 0.996,1.008 0.756,0 1.234,-0.48 1.402,-0.972 0.037,-0.108 0.061,-0.228 0.061,-0.336 z"
   id="path338"
   inkscape:connector-curvature="0"
   style="fill:#000080" />
	<path
   d="m 239.536,89.173 c 0,-0.6 -0.012,-1.091 -0.049,-1.571 h 0.924 l 0.049,0.936 h 0.035 c 0.324,-0.552 0.863,-1.067 1.824,-1.067 0.791,0 1.391,0.479 1.643,1.163 h 0.023 c 0.18,-0.324 0.408,-0.576 0.648,-0.755 0.348,-0.264 0.73,-0.408 1.283,-0.408 0.768,0 1.906,0.503 1.906,2.519 v 3.418 h -1.031 V 90.12 c 0,-1.115 -0.408,-1.787 -1.26,-1.787 -0.6,0 -1.066,0.444 -1.246,0.959 -0.049,0.144 -0.084,0.336 -0.084,0.528 v 3.586 h -1.031 v -3.478 c 0,-0.923 -0.408,-1.595 -1.213,-1.595 -0.658,0 -1.139,0.528 -1.307,1.056 -0.061,0.156 -0.084,0.335 -0.084,0.516 v 3.502 h -1.031 v -4.234 z"
   id="path340"
   inkscape:connector-curvature="0"
   style="fill:#000080" />
</g>
<line
   fill="none"
   stroke="#000000"
   stroke-miterlimit="10"
   x1="137.926"
   y1="90.572"
   x2="123.752"
   y2="90.572"
   id="line344" />
</svg>