<?xml version="1.0" encoding="UTF-8" standalone="no"?>
<svg
   xmlns:dc="http://purl.org/dc/elements/1.1/"
   xmlns:cc="http://creativecommons.org/ns#"
   xmlns:rdf="http://www.w3.org/1999/02/22-rdf-syntax-ns#"
   xmlns:svg="http://www.w3.org/2000/svg"
   xmlns="http://www.w3.org/2000/svg"
   xmlns:sodipodi="http://sodipodi.sourceforge.net/DTD/sodipodi-0.dtd"
   xmlns:inkscape="http://www.inkscape.org/namespaces/inkscape"
   version="1.1"
   viewBox="0.0 0.0 772.0 394.0"
   fill="none"
   stroke="none"
   stroke-linecap="square"
   stroke-miterlimit="10"
   clip-path="url(#clip0)"
   id="svg61"
   sodipodi:docname="8puzzle_example.svg"
   inkscape:version="0.92.2 (unknown)">
  <metadata
     id="metadata67">
    <rdf:RDF>
      <cc:Work
         rdf:about="">
        <dc:format>image/svg+xml</dc:format>
        <dc:type
           rdf:resource="http://purl.org/dc/dcmitype/StillImage" />
      </cc:Work>
    </rdf:RDF>
  </metadata>
  <defs
     id="defs65" />
  <sodipodi:namedview
     pagecolor="#ffffff"
     bordercolor="#666666"
     borderopacity="1"
     objecttolerance="10"
     gridtolerance="10"
     guidetolerance="10"
     inkscape:pageopacity="0"
     inkscape:pageshadow="2"
     inkscape:window-width="1995"
     inkscape:window-height="1128"
     id="namedview63"
     showgrid="false"
     inkscape:zoom="0.5"
     inkscape:cx="384"
     inkscape:cy="197"
     inkscape:window-x="1733"
     inkscape:window-y="24"
     inkscape:window-maximized="1"
     inkscape:current-layer="svg61" />
  <clipPath
     id="clip0">
    <path
       d="M0 0L772.0 0L772.0 394.0L0 394.0L0 0Z"
       clip-rule="nonzero"
       id="path2" />
  </clipPath>
  <path
     d="M24.33071 22.897638L353.87402 22.897638L353.87402 351.1811L24.33071 351.1811Z"
     id="path5"
     stroke-linejoin="round"
     stroke-linecap="butt"
     stroke-width="2.0"
     stroke="#073763"
     fill-rule="nonzero"
     fill="#cfe2f3" />
  <path
     d="M132.69029 22.897638L132.69029 351.1811"
     fill-rule="nonzero"
     stroke="#073763"
     stroke-width="2.0"
     stroke-linejoin="round"
     stroke-linecap="butt"
     id="path7" />
  <path
     d="M243.03412 22.897638L243.03412 351.1811"
     fill-rule="nonzero"
     stroke="#073763"
     stroke-width="2.0"
     stroke-linejoin="round"
     stroke-linecap="butt"
     id="path9" />
  <path
     d="M25.102362 130.48294L354.99213 130.51443"
     fill-rule="nonzero"
     stroke="#073763"
     stroke-width="2.0"
     stroke-linejoin="round"
     stroke-linecap="butt"
     id="path11" />
  <path
     d="M 90.67076,91.4375 V 95.5 H 67.95201 q -0.0469,-1.53125 0.5,-2.9375 Q 69.31139,90.25 71.22545,88 q 1.91406,-2.25 5.52344,-5.203125 5.59375,-4.59375 7.5625,-7.28125 1.96875,-2.6875 1.96875,-5.078125 0,-2.5 -1.78907,-4.22656 -1.78906,-1.726565 -4.67968,-1.726565 -3.04688,0 -4.875,1.828125 -1.82813,1.828125 -1.84375,5.0625 L 68.74889,70.9375 Q 69.20201,66.078125 72.10826,63.539062 75.01451,61 79.90514,61 q 4.95312,0 7.83593,2.742188 2.88282,2.742187 2.88282,6.789062 0,2.0625 -0.84375,4.05469 -0.84375,1.992185 -2.80469,4.19531 -1.96094,2.203125 -6.50781,6.046875 -3.79688,3.1875 -4.875,4.328125 -1.07813,1.140625 -1.78125,2.28125 z"
     id="path13"
     inkscape:connector-curvature="0"
     style="fill:#000000;fill-rule:nonzero" />
  <path
     d="m 298.80453,203.5 v -8.23438 H 283.8983 v -3.85937 l 15.6875,-22.26563 h 3.4375 v 22.26563 h 4.6406 v 3.85937 h -4.6406 V 203.5 Z m 0,-12.09375 v -15.5 l -10.75,15.5 z"
     id="path15"
     inkscape:connector-curvature="0"
     style="fill:#000000;fill-rule:nonzero" />
  <path
     d="m 284.73511,306.5 4.42188,-0.375 q 0.5,3.23438 2.28906,4.85938 1.78906,1.625 4.32031,1.625 3.04688,0 5.15625,-2.29688 2.10938,-2.29688 2.10938,-6.09375 0,-3.60937 -2.02344,-5.69531 -2.02344,-2.08594 -5.30469,-2.08594 -2.04687,0 -3.6875,0.92969 -1.64062,0.92969 -2.57812,2.39843 l -3.95313,-0.51562 3.32813,-17.64062 h 17.07812 v 4.03124 h -13.70312 l -1.85938,9.23438 q 3.09375,-2.15625 6.5,-2.15625 4.5,0 7.59375,3.11719 3.09375,3.11718 3.09375,8.00781 0,4.67187 -2.71875,8.0625 -3.3125,4.1875 -9.03125,4.1875 -4.6875,0 -7.64843,-2.63281 -2.96094,-2.63282 -3.38282,-6.96094 z"
     id="path17"
     inkscape:connector-curvature="0"
     style="fill:#000000;fill-rule:nonzero" />
  <path
     d="m 193.17953,177.32031 -4.20313,0.32812 q -0.5625,-2.48437 -1.59374,-3.60937 -1.70313,-1.79688 -4.21876,-1.79688 -2.0156,0 -3.53124,1.125 -2,1.45313 -3.14844,4.24219 -1.14842,2.78906 -1.19532,7.94531 1.53126,-2.32812 3.7344,-3.45312 2.2031,-1.125 4.60936,-1.125 4.21874,0 7.1875,3.10937 2.96874,3.10938 2.96874,8.03125 0,3.23438 -1.39843,6.00782 -1.39844,2.77343 -3.83594,4.25782 -2.4375,1.48437 -5.53123,1.48437 -5.26564,0 -8.59377,-3.88281 -3.32813,-3.88282 -3.32813,-12.78906 0,-9.96876 3.6719,-14.48438 3.21873,-3.9375 8.65623,-3.9375 4.04687,0 6.64063,2.27344 2.59374,2.27344 3.10937,6.27343 z m -17.23437,14.8125 q 0,2.1875 0.92969,4.17968 0.92968,1.99219 2.59375,3.03125 1.66406,1.03907 3.4922,1.03907 2.67186,0 4.59373,-2.15626 1.92187,-2.15624 1.92187,-5.85937 0,-3.5625 -1.89843,-5.60937 -1.89844,-2.04688 -4.78907,-2.04688 -2.85937,0 -4.85155,2.04688 -1.99219,2.04687 -1.99219,5.375 z"
     id="path19"
     inkscape:connector-curvature="0"
     style="fill:#000000;fill-rule:nonzero" />
  <path
     d="m 63.01636,285.95312 v -4.0625 h 22.23438 v 3.28125 q -3.28125,3.5 -6.5,9.28907 -3.21875,5.78906 -4.98438,11.89843 -1.26562,4.3125 -1.60937,9.45313 h -4.34375 q 0.0781,-4.0625 1.60156,-9.80469 1.52344,-5.74219 4.36719,-11.07031 2.84375,-5.32813 6.0625,-8.98438 z"
     id="path21"
     inkscape:connector-curvature="0"
     inkscape:transform-center-x="36"
     inkscape:transform-center-y="232"
     style="fill:#000000;fill-rule:nonzero" />
  <path
     d="m 181.21949,76.562505 q -2.625,-0.95313 -3.89063,-2.73438 -1.26562,-1.78125 -1.26562,-4.26562 0,-3.75 2.69531,-6.30468 2.69531,-2.5547 7.17969,-2.5547 4.5,0 7.24219,2.60938 2.74218,2.60937 2.74218,6.35937 0,2.39063 -1.25781,4.16405 -1.25781,1.77345 -3.80469,2.72658 3.15625,1.03124 4.8125,3.32812 1.65625,2.29688 1.65625,5.48438 0,4.40624 -3.11718,7.41406 -3.11719,3.00781 -8.21094,3.00781 -5.07813,0 -8.19531,-3.01563 -3.11719,-3.01562 -3.11719,-7.51562 0,-3.35938 1.69531,-5.6172 1.69531,-2.2578 4.83594,-3.08592 z m -0.84375,-7.14063 q 0,2.4375 1.57031,3.98437 1.57031,1.54688 4.08594,1.54688 2.4375,0 3.99219,-1.53906 1.55468,-1.53906 1.55468,-3.75782 0,-2.32812 -1.60156,-3.90624 -1.60156,-1.57813 -3.99219,-1.57813 -2.42187,0 -4.01562,1.54687 -1.59375,1.54688 -1.59375,3.70313 z m -1.35938,15.85937 q 0,1.8125 0.85938,3.5 0.85937,1.6875 2.54687,2.60938 1.6875,0.92188 3.625,0.92188 3.03125,0 5,-1.94532 1.96875,-1.94531 1.96875,-4.94531 0,-3.04687 -2.03125,-5.03905 -2.03125,-1.9922 -5.07812,-1.9922 -2.96875,0 -4.92969,1.96875 -1.96094,1.96875 -1.96094,4.92187 z"
     id="path23"
     inkscape:connector-curvature="0"
     style="fill:#000000;fill-rule:nonzero" />
  <path
     d="m 282.51451,86.11719 4.21875,-0.5625 q 0.73438,3.59374 2.47656,5.17187 1.74219,1.57813 4.25782,1.57813 2.96875,0 5.02343,-2.0625 2.05469,-2.0625 2.05469,-5.10938 0,-2.90625 -1.89844,-4.78906 -1.89843,-1.88282 -4.83593,-1.88282 -1.1875,0 -2.96875,0.46876 l 0.46875,-3.70313 q 0.42187,0.04687 0.67187,0.04687 2.70313,0 4.85938,-1.40624 2.15625,-1.40626 2.15625,-4.34376 0,-2.3125 -1.57032,-3.83592 -1.57031,-1.52345 -4.05468,-1.52345 -2.46875,0 -4.10938,1.54687 -1.64062,1.54688 -2.10937,4.64063 l -4.21875,-0.75 q 0.78125,-4.25 3.52343,-6.57813 2.74219,-2.32812 6.82032,-2.32812 2.8125,0 5.17968,1.20312 2.36719,1.20313 3.61719,3.28908 1.25,2.08592 1.25,4.42968 0,2.23437 -1.19531,4.0625 -1.19531,1.82812 -3.53906,2.90624 3.04687,0.70313 4.73437,2.91408 1.6875,2.21092 1.6875,5.53905 0,4.5 -3.28125,7.63281 -3.28125,3.13282 -8.29687,3.13282 -4.51563,0 -7.50782,-2.69532 -2.99218,-2.69531 -3.41406,-6.99218 z"
     id="path25"
     inkscape:connector-curvature="0"
     style="fill:#000000;fill-rule:nonzero" />
  <path
     d="M 83.17953,203.57031 H 78.9608 v -26.89062 q -1.53127,1.45312 -4,2.90624 -2.46877,1.45313 -4.4375,2.1875 v -4.07812 q 3.53123,-1.67188 6.17967,-4.03906 2.64843,-2.36719 3.75783,-4.58594 h 2.71873 z"
     id="path27"
     inkscape:connector-curvature="0"
     style="fill:#000000;fill-rule:nonzero" />
  <path
     d="M24.110237 240.50131L354.09448 240.50131"
     fill-rule="nonzero"
     stroke="#073763"
     stroke-width="2.0"
     stroke-linejoin="round"
     stroke-linecap="butt"
     id="path29" />
  <path
     d="M422.33072 22.897638L751.874 22.897638L751.874 351.1811L422.33072 351.1811Z"
     fill-rule="nonzero"
     fill="#cfe2f3"
     stroke="#073763"
     stroke-width="2.0"
     stroke-linejoin="round"
     stroke-linecap="butt"
     id="path31" />
  <path
     d="M530.6903 22.897638L530.6903 351.1811"
     fill-rule="nonzero"
     stroke="#073763"
     stroke-width="2.0"
     stroke-linejoin="round"
     stroke-linecap="butt"
     id="path33" />
  <path
     d="M641.0341 22.897638L641.0341 351.1811"
     fill-rule="nonzero"
     stroke="#073763"
     stroke-width="2.0"
     stroke-linejoin="round"
     stroke-linecap="butt"
     id="path35" />
  <path
     d="M423.10236 130.48294L752.9921 130.51443"
     fill-rule="nonzero"
     stroke="#073763"
     stroke-width="2.0"
     stroke-linejoin="round"
     stroke-linecap="butt"
     id="path37" />
  <path
     d="m 480.3895,95.5 h -4.2187 V 68.609375 q -1.5313,1.453125 -4,2.90625 -2.4688,1.453125 -4.4375,2.1875 V 69.625 q 3.5312,-1.671875 6.17966,-4.039062 Q 476.5614,63.21875 477.6708,61 h 2.7187 z"
     id="path39"
     inkscape:connector-curvature="0"
     style="fill:#000000;fill-rule:nonzero" />
  <path
     d="M 597.4608,91.4375 V 95.5 h -22.71873 q -0.0469,-1.53125 0.5,-2.9375 0.85937,-2.3125 2.77343,-4.5625 1.91407,-2.25 5.52344,-5.203125 5.59376,-4.59375 7.5625,-7.28125 1.96876,-2.6875 1.96876,-5.078125 0,-2.5 -1.7891,-4.22656 -1.78903,-1.726565 -4.67966,-1.726565 -3.04687,0 -4.875,1.828125 -1.82814,1.828125 -1.84374,5.0625 l -4.34376,-0.4375 q 0.45313,-4.859375 3.35936,-7.398438 Q 581.80457,61 586.6952,61 q 4.9531,0 7.8359,2.742188 2.88284,2.742187 2.88284,6.789062 0,2.0625 -0.84374,4.05469 -0.84376,1.992185 -2.8047,4.19531 -1.96093,2.203125 -6.5078,6.046875 -3.7969,3.1875 -4.875,4.328125 -1.07813,1.140625 -1.78126,2.28125 z"
     id="path41"
     inkscape:connector-curvature="0"
     style="fill:#000000;fill-rule:nonzero" />
  <path
     d="m 678.75073,86.11719 4.21875,-0.5625 q 0.73438,3.59374 2.47656,5.17187 1.74219,1.57813 4.25782,1.57813 2.96874,0 5.02344,-2.0625 2.05468,-2.0625 2.05468,-5.10938 0,-2.90625 -1.89844,-4.78906 -1.89844,-1.88282 -4.83594,-1.88282 -1.1875,0 -2.96874,0.46876 l 0.46874,-3.70313 q 0.42188,0.04687 0.67188,0.04687 2.70312,0 4.85938,-1.40624 2.15624,-1.40626 2.15624,-4.34376 0,-2.3125 -1.5703,-3.83593 -1.57032,-1.52344 -4.0547,-1.52344 -2.46874,0 -4.10937,1.54687 -1.64063,1.54688 -2.10937,4.64063 l -4.21876,-0.75 q 0.78126,-4.25 3.52344,-6.57813 2.74219,-2.32812 6.82032,-2.32812 2.8125,0 5.17968,1.20312 2.36719,1.20313 3.61719,3.28907 1.25,2.08593 1.25,4.42969 0,2.23437 -1.19531,4.0625 -1.19532,1.82812 -3.53906,2.90624 3.04687,0.70313 4.73437,2.91407 1.6875,2.21093 1.6875,5.53906 0,4.5 -3.28125,7.63281 -3.28125,3.13282 -8.29688,3.13282 -4.51562,0 -7.5078,-2.69532 -2.9922,-2.69531 -3.41407,-6.99218 z"
     id="path43"
     inkscape:connector-curvature="0"
     style="fill:#000000;fill-rule:nonzero" />
  <path
     d="m 692.0145,203.5 v -8.23438 h -14.9062 v -3.85937 l 15.6875,-22.26563 h 3.4375 v 22.26563 h 4.6406 v 3.85937 h -4.6406 V 203.5 Z m 0,-12.09375 v -15.5 l -10.75,15.5 z"
     id="path45"
     inkscape:connector-curvature="0"
     style="fill:#000000;fill-rule:nonzero" />
  <path
     d="m 681.28894,306.5 4.42186,-0.375 q 0.5,3.23438 2.2891,4.85938 1.78904,1.625 4.3203,1.625 3.04687,0 5.15624,-2.29688 2.10936,-2.29688 2.10936,-6.09375 0,-3.60937 -2.0234,-5.69531 -2.02346,-2.08594 -5.3047,-2.08594 -2.0469,0 -3.6875,0.92969 -1.64063,0.92969 -2.57813,2.39843 l -3.95313,-0.51562 3.32813,-17.64062 h 17.07813 v 4.03124 h -13.70313 l -1.85937,9.23438 q 3.09374,-2.15625 6.5,-2.15625 4.5,0 7.59374,3.11719 3.09376,3.11718 3.09376,8.00781 0,4.67187 -2.71876,8.0625 -3.3125,4.1875 -9.03124,4.1875 -4.6875,0 -7.64845,-2.63281 -2.96095,-2.63282 -3.38281,-6.96094 z"
     id="path47"
     inkscape:connector-curvature="0"
     style="fill:#000000;fill-rule:nonzero" />
  <path
     d="m 592.62573,289.85157 -4.20313,0.32812 q -0.5625,-2.48438 -1.59374,-3.60938 -1.70313,-1.79687 -4.21876,-1.79687 -2.01562,0 -3.53124,1.125 -2,1.45313 -3.14844,4.24219 -1.14844,2.78906 -1.19532,7.94531 1.53126,-2.32813 3.73438,-3.45313 2.20312,-1.125 4.60938,-1.125 4.21874,0 7.1875,3.10938 2.96874,3.10938 2.96874,8.03125 0,3.23437 -1.39843,6.00781 -1.39844,2.77344 -3.83594,4.25782 -2.4375,1.48437 -5.53125,1.48437 -5.26562,0 -8.59375,-3.88281 -3.32813,-3.88282 -3.32813,-12.78906 0,-9.96876 3.67188,-14.48438 3.21875,-3.9375 8.65625,-3.9375 4.04687,0 6.64063,2.27344 2.59374,2.27344 3.10937,6.27344 z m -17.23437,14.8125 q 0,2.1875 0.92968,4.17968 0.92969,1.99219 2.59376,3.03124 1.66406,1.03908 3.49218,1.03908 2.67188,0 4.59375,-2.15626 1.92187,-2.15624 1.92187,-5.85937 0,-3.5625 -1.89843,-5.60937 -1.89844,-2.04688 -4.78907,-2.04688 -2.85937,0 -4.85156,2.04688 -1.99218,2.04687 -1.99218,5.375 z"
     id="path49"
     inkscape:connector-curvature="0"
     style="fill:#000000;fill-rule:nonzero" />
  <path
     d="m 468.78015,285.95312 v -4.0625 h 22.23435 v 3.28126 q -3.2812,3.5 -6.5,9.28906 -3.2187,5.78906 -4.98435,11.89844 -1.26565,4.3125 -1.60935,9.45312 h -4.3438 q 0.0781,-4.0625 1.6016,-9.8047 1.5234,-5.74218 4.3672,-11.0703 2.8437,-5.32812 6.0625,-8.98438 z"
     id="path51"
     inkscape:connector-curvature="0"
     style="fill:#000000;fill-rule:nonzero" />
  <path
     d="m 477.7733,184.63281 q -2.625,-0.95313 -3.8906,-2.73438 -1.26563,-1.78125 -1.26563,-4.26562 0,-3.75 2.69533,-6.30468 2.6953,-2.5547 7.17967,-2.5547 4.5,0 7.24218,2.60938 2.74219,2.60937 2.74219,6.35937 0,2.39063 -1.25784,4.16405 -1.2578,1.77345 -3.80466,2.72659 3.15626,1.03124 4.8125,3.32812 1.65626,2.29688 1.65626,5.48438 0,4.40624 -3.1172,7.41406 -3.1172,3.00781 -8.21093,3.00781 -5.07813,0 -8.19532,-3.01563 -3.11718,-3.01562 -3.11718,-7.51562 0,-3.35938 1.69533,-5.6172 1.6953,-2.2578 4.8359,-3.08593 z m -0.84373,-7.14063 q 0,2.4375 1.57033,3.98438 1.5703,1.54687 4.0859,1.54687 2.4375,0 3.9922,-1.53906 1.5547,-1.53906 1.5547,-3.75782 0,-2.32812 -1.6016,-3.90624 -1.60153,-1.57813 -3.99216,-1.57813 -2.42187,0 -4.01564,1.54688 -1.59373,1.54687 -1.59373,3.70312 z m -1.35937,15.85938 q 0,1.8125 0.85937,3.5 0.85937,1.6875 2.54687,2.60937 1.6875,0.92188 3.625,0.92188 3.03126,0 5,-1.94532 1.96876,-1.94531 1.96876,-4.94531 0,-3.04687 -2.03126,-5.03905 -2.03124,-1.9922 -5.07814,-1.9922 -2.96873,0 -4.9297,1.96875 -1.9609,1.96875 -1.9609,4.92188 z"
     id="path53"
     inkscape:connector-curvature="0"
     style="fill:#000000;fill-rule:nonzero" />
  <path
     d="M422.11023 240.50131L752.0945 240.50131"
     fill-rule="nonzero"
     stroke="#073763"
     stroke-width="2.0"
     stroke-linejoin="round"
     stroke-linecap="butt"
     id="path55" />
  <path
     d="M131.35938 381.46875L133.5 381.28125Q133.65625 382.5625 134.21094 383.39062Q134.76562 384.21875 135.9375 384.72656Q137.10938 385.23438 138.57812 385.23438Q139.875 385.23438 140.875 384.85156Q141.875 384.46875 142.35938 383.78906Q142.84375 383.10938 142.84375 382.3125Q142.84375 381.51562 142.375 380.90625Q141.90625 380.29688 140.82812 379.89062Q140.14062 379.625 137.77344 379.0547Q135.40625 378.48438 134.45312 377.98438Q133.21875 377.34375 132.61719 376.3828Q132.01562 375.42188 132.01562 374.25Q132.01562 372.9375 132.75781 371.8125Q133.5 370.6875 134.91406 370.10156Q136.32812 369.51562 138.0625 369.51562Q139.96875 369.51562 141.42969 370.125Q142.89062 370.73438 143.67969 371.9297Q144.46875 373.125 144.51562 374.64062L142.34375 374.8125Q142.17188 373.17188 141.15625 372.34375Q140.14062 371.51562 138.15625 371.51562Q136.09375 371.51562 135.14844 372.27344Q134.20312 373.03125 134.20312 374.09375Q134.20312 375.01562 134.875 375.60938Q135.53125 376.21875 138.30469 376.84375Q141.07812 377.46875 142.10938 377.9375Q143.60938 378.625 144.32031 379.6875Q145.03125 380.75 145.03125 382.125Q145.03125 383.5 144.25 384.71094Q143.46875 385.92188 142.0 386.60156Q140.53125 387.28125 138.6875 387.28125Q136.35938 387.28125 134.78125 386.60156Q133.20312 385.92188 132.30469 384.5547Q131.40625 383.1875 131.35938 381.46875ZM152.48438 385.09375L152.79688 386.95312Q151.90625 387.15625 151.20312 387.15625Q150.04688 387.15625 149.41406 386.78906Q148.78125 386.42188 148.52344 385.82812Q148.26562 385.23438 148.26562 383.34375L148.26562 376.17188L146.71875 376.17188L146.71875 374.53125L148.26562 374.53125L148.26562 371.45312L150.35938 370.1875L150.35938 374.53125L152.48438 374.53125L152.48438 376.17188L150.35938 376.17188L150.35938 383.45312Q150.35938 384.35938 150.47656 384.6172Q150.59375 384.875 150.84375 385.02344Q151.09375 385.17188 151.5625 385.17188Q151.90625 385.17188 152.48438 385.09375ZM162.67188 385.45312Q161.5 386.4375 160.41406 386.85156Q159.32812 387.26562 158.09375 387.26562Q156.04688 387.26562 154.94531 386.26562Q153.84375 385.26562 153.84375 383.70312Q153.84375 382.78125 154.25781 382.03125Q154.67188 381.28125 155.34375 380.8203Q156.01562 380.35938 156.85938 380.125Q157.48438 379.96875 158.73438 379.8125Q161.29688 379.5 162.5 379.07812Q162.51562 378.65625 162.51562 378.53125Q162.51562 377.25 161.90625 376.71875Q161.10938 376.0 159.51562 376.0Q158.01562 376.0 157.3125 376.52344Q156.60938 377.04688 156.26562 378.375L154.20312 378.09375Q154.48438 376.76562 155.125 375.95312Q155.76562 375.14062 156.98438 374.6953Q158.20312 374.25 159.8125 374.25Q161.40625 374.25 162.40625 374.625Q163.40625 375.0 163.875 375.5703Q164.34375 376.14062 164.53125 377.01562Q164.625 377.54688 164.625 378.95312L164.625 381.76562Q164.625 384.70312 164.76562 385.48438Q164.90625 386.26562 165.29688 386.98438L163.09375 386.98438Q162.76562 386.32812 162.67188 385.45312ZM162.5 380.73438Q161.34375 381.20312 159.04688 381.53125Q157.75 381.71875 157.21094 381.95312Q156.67188 382.1875 156.38281 382.64062Q156.09375 383.09375 156.09375 383.64062Q156.09375 384.48438 156.72656 385.04688Q157.35938 385.60938 158.59375 385.60938Q159.8125 385.60938 160.76562 385.07812Q161.71875 384.54688 162.15625 383.625Q162.5 382.90625 162.5 381.51562L162.5 380.73438ZM167.875 386.98438L167.875 374.53125L169.76562 374.53125L169.76562 376.42188Q170.5 375.09375 171.11719 374.67188Q171.73438 374.25 172.46875 374.25Q173.53125 374.25 174.64062 374.9375L173.90625 376.89062Q173.14062 376.4375 172.35938 376.4375Q171.67188 376.4375 171.11719 376.85156Q170.5625 377.26562 170.32812 378.0Q169.98438 379.125 169.98438 380.46875L169.98438 386.98438L167.875 386.98438ZM180.48438 385.09375L180.79688 386.95312Q179.90625 387.15625 179.20312 387.15625Q178.04688 387.15625 177.41406 386.78906Q176.78125 386.42188 176.52344 385.82812Q176.26562 385.23438 176.26562 383.34375L176.26562 376.17188L174.71875 376.17188L174.71875 374.53125L176.26562 374.53125L176.26562 371.45312L178.35938 370.1875L178.35938 374.53125L180.48438 374.53125L180.48438 376.17188L178.35938 376.17188L178.35938 383.45312Q178.35938 384.35938 178.47656 384.6172Q178.59375 384.875 178.84375 385.02344Q179.09375 385.17188 179.5625 385.17188Q179.90625 385.17188 180.48438 385.09375ZM188.71875 381.46875L190.85938 381.28125Q191.01562 382.5625 191.57031 383.39062Q192.125 384.21875 193.29688 384.72656Q194.46875 385.23438 195.9375 385.23438Q197.23438 385.23438 198.23438 384.85156Q199.23438 384.46875 199.71875 383.78906Q200.20312 383.10938 200.20312 382.3125Q200.20312 381.51562 199.73438 380.90625Q199.26562 380.29688 198.1875 379.89062Q197.5 379.625 195.13281 379.0547Q192.76562 378.48438 191.8125 377.98438Q190.57812 377.34375 189.97656 376.3828Q189.375 375.42188 189.375 374.25Q189.375 372.9375 190.11719 371.8125Q190.85938 370.6875 192.27344 370.10156Q193.6875 369.51562 195.42188 369.51562Q197.32812 369.51562 198.78906 370.125Q200.25 370.73438 201.03906 371.9297Q201.82812 373.125 201.875 374.64062L199.70312 374.8125Q199.53125 373.17188 198.51562 372.34375Q197.5 371.51562 195.51562 371.51562Q193.45312 371.51562 192.50781 372.27344Q191.5625 373.03125 191.5625 374.09375Q191.5625 375.01562 192.23438 375.60938Q192.89062 376.21875 195.66406 376.84375Q198.4375 377.46875 199.46875 377.9375Q200.96875 378.625 201.67969 379.6875Q202.39062 380.75 202.39062 382.125Q202.39062 383.5 201.60938 384.71094Q200.82812 385.92188 199.35938 386.60156Q197.89062 387.28125 196.04688 387.28125Q193.71875 387.28125 192.14062 386.60156Q190.5625 385.92188 189.66406 384.5547Q188.76562 383.1875 188.71875 381.46875ZM209.82812 385.09375L210.14062 386.95312Q209.25 387.15625 208.54688 387.15625Q207.39062 387.15625 206.75781 386.78906Q206.125 386.42188 205.86719 385.82812Q205.60938 385.23438 205.60938 383.34375L205.60938 376.17188L204.0625 376.17188L204.0625 374.53125L205.60938 374.53125L205.60938 371.45312L207.70312 370.1875L207.70312 374.53125L209.82812 374.53125L209.82812 376.17188L207.70312 376.17188L207.70312 383.45312Q207.70312 384.35938 207.82031 384.6172Q207.9375 384.875 208.1875 385.02344Q208.4375 385.17188 208.90625 385.17188Q209.25 385.17188 209.82812 385.09375ZM220.01562 385.45312Q218.84375 386.4375 217.75781 386.85156Q216.67188 387.26562 215.4375 387.26562Q213.39062 387.26562 212.28906 386.26562Q211.1875 385.26562 211.1875 383.70312Q211.1875 382.78125 211.60156 382.03125Q212.01562 381.28125 212.6875 380.8203Q213.35938 380.35938 214.20312 380.125Q214.82812 379.96875 216.07812 379.8125Q218.64062 379.5 219.84375 379.07812Q219.85938 378.65625 219.85938 378.53125Q219.85938 377.25 219.25 376.71875Q218.45312 376.0 216.85938 376.0Q215.35938 376.0 214.65625 376.52344Q213.95312 377.04688 213.60938 378.375L211.54688 378.09375Q211.82812 376.76562 212.46875 375.95312Q213.10938 375.14062 214.32812 374.6953Q215.54688 374.25 217.15625 374.25Q218.75 374.25 219.75 374.625Q220.75 375.0 221.21875 375.5703Q221.6875 376.14062 221.875 377.01562Q221.96875 377.54688 221.96875 378.95312L221.96875 381.76562Q221.96875 384.70312 222.10938 385.48438Q222.25 386.26562 222.64062 386.98438L220.4375 386.98438Q220.10938 386.32812 220.01562 385.45312ZM219.84375 380.73438Q218.6875 381.20312 216.39062 381.53125Q215.09375 381.71875 214.55469 381.95312Q214.01562 382.1875 213.72656 382.64062Q213.4375 383.09375 213.4375 383.64062Q213.4375 384.48438 214.07031 385.04688Q214.70312 385.60938 215.9375 385.60938Q217.15625 385.60938 218.10938 385.07812Q219.0625 384.54688 219.5 383.625Q219.84375 382.90625 219.84375 381.51562L219.84375 380.73438ZM229.84375 385.09375L230.15625 386.95312Q229.26562 387.15625 228.5625 387.15625Q227.40625 387.15625 226.77344 386.78906Q226.14062 386.42188 225.88281 385.82812Q225.625 385.23438 225.625 383.34375L225.625 376.17188L224.07812 376.17188L224.07812 374.53125L225.625 374.53125L225.625 371.45312L227.71875 370.1875L227.71875 374.53125L229.84375 374.53125L229.84375 376.17188L227.71875 376.17188L227.71875 383.45312Q227.71875 384.35938 227.83594 384.6172Q227.95312 384.875 228.20312 385.02344Q228.45312 385.17188 228.92188 385.17188Q229.26562 385.17188 229.84375 385.09375ZM240.4375 382.96875L242.60938 383.25Q242.09375 385.15625 240.70312 386.21094Q239.3125 387.26562 237.14062 387.26562Q234.40625 387.26562 232.80469 385.58594Q231.20312 383.90625 231.20312 380.85938Q231.20312 377.71875 232.82031 375.98438Q234.4375 374.25 237.01562 374.25Q239.51562 374.25 241.10156 375.95312Q242.6875 377.65625 242.6875 380.73438Q242.6875 380.92188 242.67188 381.29688L233.39062 381.29688Q233.5 383.34375 234.54688 384.4375Q235.59375 385.53125 237.15625 385.53125Q238.3125 385.53125 239.13281 384.92188Q239.95312 384.3125 240.4375 382.96875ZM233.5 379.5625L240.45312 379.5625Q240.3125 378.0 239.65625 377.20312Q238.65625 375.98438 237.04688 375.98438Q235.59375 375.98438 234.60156 376.96094Q233.60938 377.9375 233.5 379.5625Z"
     fill-rule="nonzero"
     fill="#000000"
     id="path57" />
  <path
     d="M541.1875 380.25L541.1875 378.23438L548.46875 378.21875L548.46875 384.59375Q546.7969 385.92188 545.0156 386.60156Q543.2344 387.28125 541.3594 387.28125Q538.8281 387.28125 536.7578 386.1953Q534.6875 385.10938 533.6328 383.0547Q532.5781 381.0 532.5781 378.46875Q532.5781 375.96875 533.625 373.79688Q534.6719 371.625 536.6406 370.5703Q538.6094 369.51562 541.1719 369.51562Q543.0469 369.51562 544.5469 370.1172Q546.0469 370.71875 546.90625 371.79688Q547.7656 372.875 548.2031 374.60938L546.15625 375.17188Q545.7656 373.85938 545.1953 373.10938Q544.625 372.35938 543.5547 371.90625Q542.4844 371.45312 541.1875 371.45312Q539.625 371.45312 538.4922 371.9297Q537.3594 372.40625 536.66406 373.1797Q535.96875 373.95312 535.5781 374.875Q534.9219 376.46875 534.9219 378.32812Q534.9219 380.625 535.71094 382.17188Q536.5 383.71875 538.0156 384.46875Q539.53125 385.21875 541.21875 385.21875Q542.7031 385.21875 544.1094 384.65625Q545.5156 384.09375 546.2344 383.4375L546.2344 380.25L541.1875 380.25ZM550.75 380.76562Q550.75 377.29688 552.6719 375.64062Q554.28125 374.25 556.59375 374.25Q559.15625 374.25 560.78125 375.9375Q562.40625 377.625 562.40625 380.57812Q562.40625 382.98438 561.6875 384.35938Q560.96875 385.73438 559.59375 386.5Q558.21875 387.26562 556.59375 387.26562Q553.96875 387.26562 552.3594 385.58594Q550.75 383.90625 550.75 380.76562ZM552.9219 380.76562Q552.9219 383.15625 553.96094 384.34375Q555.0 385.53125 556.59375 385.53125Q558.15625 385.53125 559.2031 384.33594Q560.25 383.14062 560.25 380.6875Q560.25 378.375 559.1953 377.1875Q558.1406 376.0 556.59375 376.0Q555.0 376.0 553.96094 377.1875Q552.9219 378.375 552.9219 380.76562ZM573.0156 385.45312Q571.84375 386.4375 570.7578 386.85156Q569.6719 387.26562 568.4375 387.26562Q566.3906 387.26562 565.28906 386.26562Q564.1875 385.26562 564.1875 383.70312Q564.1875 382.78125 564.60156 382.03125Q565.0156 381.28125 565.6875 380.8203Q566.3594 380.35938 567.2031 380.125Q567.8281 379.96875 569.0781 379.8125Q571.6406 379.5 572.84375 379.07812Q572.8594 378.65625 572.8594 378.53125Q572.8594 377.25 572.25 376.71875Q571.4531 376.0 569.8594 376.0Q568.3594 376.0 567.65625 376.52344Q566.9531 377.04688 566.6094 378.375L564.5469 378.09375Q564.8281 376.76562 565.46875 375.95312Q566.1094 375.14062 567.3281 374.6953Q568.5469 374.25 570.15625 374.25Q571.75 374.25 572.75 374.625Q573.75 375.0 574.21875 375.5703Q574.6875 376.14062 574.875 377.01562Q574.96875 377.54688 574.96875 378.95312L574.96875 381.76562Q574.96875 384.70312 575.1094 385.48438Q575.25 386.26562 575.6406 386.98438L573.4375 386.98438Q573.1094 386.32812 573.0156 385.45312ZM572.84375 380.73438Q571.6875 381.20312 569.3906 381.53125Q568.09375 381.71875 567.5547 381.95312Q567.0156 382.1875 566.72656 382.64062Q566.4375 383.09375 566.4375 383.64062Q566.4375 384.48438 567.0703 385.04688Q567.7031 385.60938 568.9375 385.60938Q570.15625 385.60938 571.1094 385.07812Q572.0625 384.54688 572.5 383.625Q572.84375 382.90625 572.84375 381.51562L572.84375 380.73438ZM578.1875 386.98438L578.1875 369.79688L580.2969 369.79688L580.2969 386.98438L578.1875 386.98438ZM589.7344 381.46875L591.875 381.28125Q592.03125 382.5625 592.58594 383.39062Q593.1406 384.21875 594.3125 384.72656Q595.4844 385.23438 596.9531 385.23438Q598.25 385.23438 599.25 384.85156Q600.25 384.46875 600.7344 383.78906Q601.21875 383.10938 601.21875 382.3125Q601.21875 381.51562 600.75 380.90625Q600.28125 380.29688 599.2031 379.89062Q598.5156 379.625 596.14844 379.0547Q593.78125 378.48438 592.8281 377.98438Q591.59375 377.34375 590.9922 376.3828Q590.3906 375.42188 590.3906 374.25Q590.3906 372.9375 591.1328 371.8125Q591.875 370.6875 593.28906 370.10156Q594.7031 369.51562 596.4375 369.51562Q598.34375 369.51562 599.8047 370.125Q601.2656 370.73438 602.0547 371.9297Q602.84375 373.125 602.8906 374.64062L600.71875 374.8125Q600.5469 373.17188 599.53125 372.34375Q598.5156 371.51562 596.53125 371.51562Q594.46875 371.51562 593.52344 372.27344Q592.5781 373.03125 592.5781 374.09375Q592.5781 375.01562 593.25 375.60938Q593.90625 376.21875 596.6797 376.84375Q599.4531 377.46875 600.4844 377.9375Q601.9844 378.625 602.6953 379.6875Q603.40625 380.75 603.40625 382.125Q603.40625 383.5 602.625 384.71094Q601.84375 385.92188 600.375 386.60156Q598.90625 387.28125 597.0625 387.28125Q594.7344 387.28125 593.15625 386.60156Q591.5781 385.92188 590.6797 384.5547Q589.78125 383.1875 589.7344 381.46875ZM610.84375 385.09375L611.15625 386.95312Q610.2656 387.15625 609.5625 387.15625Q608.40625 387.15625 607.77344 386.78906Q607.1406 386.42188 606.8828 385.82812Q606.625 385.23438 606.625 383.34375L606.625 376.17188L605.0781 376.17188L605.0781 374.53125L606.625 374.53125L606.625 371.45312L608.71875 370.1875L608.71875 374.53125L610.84375 374.53125L610.84375 376.17188L608.71875 376.17188L608.71875 383.45312Q608.71875 384.35938 608.83594 384.6172Q608.9531 384.875 609.2031 385.02344Q609.4531 385.17188 609.9219 385.17188Q610.2656 385.17188 610.84375 385.09375ZM621.03125 385.45312Q619.8594 386.4375 618.77344 386.85156Q617.6875 387.26562 616.4531 387.26562Q614.40625 387.26562 613.3047 386.26562Q612.2031 385.26562 612.2031 383.70312Q612.2031 382.78125 612.6172 382.03125Q613.03125 381.28125 613.7031 380.8203Q614.375 380.35938 615.21875 380.125Q615.84375 379.96875 617.09375 379.8125Q619.65625 379.5 620.8594 379.07812Q620.875 378.65625 620.875 378.53125Q620.875 377.25 620.2656 376.71875Q619.46875 376.0 617.875 376.0Q616.375 376.0 615.6719 376.52344Q614.96875 377.04688 614.625 378.375L612.5625 378.09375Q612.84375 376.76562 613.4844 375.95312Q614.125 375.14062 615.34375 374.6953Q616.5625 374.25 618.1719 374.25Q619.7656 374.25 620.7656 374.625Q621.7656 375.0 622.2344 375.5703Q622.7031 376.14062 622.8906 377.01562Q622.9844 377.54688 622.9844 378.95312L622.9844 381.76562Q622.9844 384.70312 623.125 385.48438Q623.2656 386.26562 623.65625 386.98438L621.4531 386.98438Q621.125 386.32812 621.03125 385.45312ZM620.8594 380.73438Q619.7031 381.20312 617.40625 381.53125Q616.1094 381.71875 615.5703 381.95312Q615.03125 382.1875 614.7422 382.64062Q614.4531 383.09375 614.4531 383.64062Q614.4531 384.48438 615.08594 385.04688Q615.71875 385.60938 616.9531 385.60938Q618.1719 385.60938 619.125 385.07812Q620.0781 384.54688 620.5156 383.625Q620.8594 382.90625 620.8594 381.51562L620.8594 380.73438ZM630.8594 385.09375L631.1719 386.95312Q630.28125 387.15625 629.5781 387.15625Q628.4219 387.15625 627.78906 386.78906Q627.15625 386.42188 626.89844 385.82812Q626.6406 385.23438 626.6406 383.34375L626.6406 376.17188L625.09375 376.17188L625.09375 374.53125L626.6406 374.53125L626.6406 371.45312L628.7344 370.1875L628.7344 374.53125L630.8594 374.53125L630.8594 376.17188L628.7344 376.17188L628.7344 383.45312Q628.7344 384.35938 628.85156 384.6172Q628.96875 384.875 629.21875 385.02344Q629.46875 385.17188 629.9375 385.17188Q630.28125 385.17188 630.8594 385.09375ZM641.4531 382.96875L643.625 383.25Q643.1094 385.15625 641.71875 386.21094Q640.3281 387.26562 638.15625 387.26562Q635.4219 387.26562 633.8203 385.58594Q632.21875 383.90625 632.21875 380.85938Q632.21875 377.71875 633.83594 375.98438Q635.4531 374.25 638.03125 374.25Q640.53125 374.25 642.1172 375.95312Q643.7031 377.65625 643.7031 380.73438Q643.7031 380.92188 643.6875 381.29688L634.40625 381.29688Q634.5156 383.34375 635.5625 384.4375Q636.6094 385.53125 638.1719 385.53125Q639.3281 385.53125 640.14844 384.92188Q640.96875 384.3125 641.4531 382.96875ZM634.5156 379.5625L641.46875 379.5625Q641.3281 378.0 640.6719 377.20312Q639.6719 375.98438 638.0625 375.98438Q636.6094 375.98438 635.6172 376.96094Q634.625 377.9375 634.5156 379.5625Z"
     fill-rule="nonzero"
     fill="#000000"
     id="path59" />
</svg>
