<?xml version="1.0" encoding="UTF-8" standalone="no"?>
<!DOCTYPE svg PUBLIC "-//W3C//DTD SVG 1.1//EN" 
"http://www.w3.org/Graphics/SVG/1.1/DTD/svg11.dtd">
<svg
   width="402"
   height="162"
   version="1.1"
   xmlns:svg="http://www.w3.org/2000/svg"
   xmlns="http://www.w3.org/2000/svg">
<path
   d="m 216,36 60,-30 120,0 -60,30 -48,0 0,-3 42,0 48,-24 -96,0 -48,24 36,0 0,3 z m 18,105 0,-6 36,-18 12,0 z m 48,-24 6,-3 36,0 0,3 z m -54,27 6,-3 90,0 0,3 z m 114,-27 0,-3 36,0 0,3 z m 0,24 0,-6 36,-18 12,0 z "
   style="fill:#c5c5c5"
   id="light" />
<path
   d="m 234,33 48,-24 0,12 -24,12 z m -6,15 6,0 0,93 -6,3 z m 54,-27 6,0 0,93 -6,3 z m -48,120 48,-24 0,12 -24,12 z M 336,36 396,6 l 0,120 -60,30 z m 6,9 0,96 48,-24 0,-96 z "
   style="fill:#969696"
   id="medium" />
<path
   d="m 216,36 54,0 0,-9 12,-6 0,96 -12,0 0,-69 -42,0 0,96 96,0 0,-15 -42,0 0,-12 42,0 0,-69 -36,0 0,-12 48,0 0,120 -120,0 z m 66,-27 96,0 -24,12 -72,0 z m 96,18 12,-6 0,96 -12,0 z m -36,90 36,0 -24,12 -12,0 z "
   style="fill:#595959"
   id="dark" />
<path
   d="M 6,156 6,36 66,6 l 120,0 0,120 -60,30 z M 6,36 126,36 186,6 M 66,6 66,126 m -60,30 60,-30 120,0 m -60,-90 0,120 "
   style="fill:none;stroke:#000000"
   id="lines" />
</svg>
